<?xml version="1.0" standalone="no"?>
<!DOCTYPE svg PUBLIC "-//W3C//DTD SVG 20010904//EN"
 "http://www.w3.org/TR/2001/REC-SVG-20010904/DTD/svg10.dtd">
<svg version="1.0" xmlns="http://www.w3.org/2000/svg"
 width="500.000000pt" height="499.000000pt" viewBox="0 0 500.000000 499.000000"
 preserveAspectRatio="xMidYMid meet">

<g transform="translate(0.000000,499.000000) scale(0.100000,-0.100000)"
fill="#000000" stroke="none">
<path d="M1555 3573 c-196 -118 -376 -223 -381 -223 -2 0 -4 29 -4 65 l0 65
-90 0 -89 0 -3 -122 -3 -122 -103 -62 c-56 -33 -105 -64 -108 -67 -4 -3 6 -27
21 -52 19 -33 31 -45 42 -41 13 5 321 187 583 344 41 25 89 53 105 62 17 9 55
32 85 50 30 18 70 41 88 51 l32 19 441 -261 c242 -143 446 -262 453 -265 16
-6 72 84 60 96 -5 4 -209 126 -454 270 -245 145 -454 269 -465 276 -11 8 -26
14 -35 13 -8 0 -87 -44 -175 -96z"/>
<path d="M1785 2987 c-3 -6 -4 -185 -3 -397 l3 -385 88 -3 87 -3 0 241 c0 132
3 240 6 240 3 0 15 -11 25 -24 10 -13 65 -80 121 -148 57 -69 137 -166 178
-216 l74 -92 73 0 73 0 0 400 0 400 -90 0 -90 0 -2 -241 -3 -241 -55 69 c-30
37 -62 77 -72 88 -45 53 -140 169 -198 242 l-65 82 -73 1 c-49 0 -74 -4 -77
-13z"/>
<path d="M975 2958 c-53 -27 -102 -74 -128 -123 -28 -53 -29 -145 -3 -200 12
-25 97 -117 225 -242 113 -111 209 -203 213 -203 4 0 95 86 202 191 142 139
202 205 221 242 58 117 15 255 -100 323 -87 51 -197 42 -281 -22 l-46 -36 -27
26 c-68 65 -196 86 -276 44z m181 -112 c13 -9 48 -45 76 -80 l52 -63 30 37
c17 21 43 54 59 74 77 100 247 43 247 -84 0 -17 -5 -41 -11 -53 -15 -29 -311
-327 -325 -327 -6 0 -83 69 -171 154 -177 172 -197 203 -170 268 17 38 63 84
92 91 33 9 94 0 121 -17z"/>
<path d="M2737 2923 c-4 -3 -7 -33 -7 -65 l0 -58 -50 0 -50 0 0 -35 0 -35 49
0 49 0 4 -207 c3 -232 9 -254 78 -300 52 -35 171 -28 218 12 3 3 -15 43 -23
53 -1 2 -18 -5 -38 -14 -44 -21 -95 -13 -128 22 -24 25 -24 30 -27 230 l-3
204 90 0 91 0 0 35 0 35 -90 0 -90 0 0 65 0 65 -33 0 c-19 0 -37 -3 -40 -7z"/>
<path d="M4508 2868 l-3 -63 -52 -3 -53 -3 0 -35 0 -34 55 0 55 0 0 -206 c0
-191 2 -209 21 -244 11 -20 34 -44 50 -54 45 -27 121 -32 174 -12 47 19 54 30
32 60 -11 15 -17 16 -35 7 -33 -18 -104 -13 -132 9 l-25 19 -3 210 -3 211 90
0 91 0 0 35 0 35 -90 0 -90 0 0 65 0 65 -40 0 -39 0 -3 -62z"/>
<path d="M407 2786 c-98 -36 -165 -115 -188 -219 -18 -85 1 -182 49 -245 46
-61 67 -77 130 -101 110 -43 258 -17 322 56 l32 36 -28 18 c-28 18 -29 18 -54
-6 -78 -75 -228 -76 -309 -2 -37 34 -71 115 -71 171 0 144 87 236 224 236 77
0 102 -8 148 -49 34 -30 35 -30 62 -12 l27 18 -27 32 c-44 53 -97 74 -194 78
-56 2 -98 -1 -123 -11z"/>
<path d="M3254 2782 c-28 -10 -63 -26 -78 -35 -26 -17 -26 -19 -10 -45 l16
-28 60 30 c50 25 72 30 138 30 64 1 84 -3 106 -20 47 -35 65 -67 67 -120 l2
-49 -150 -6 c-110 -4 -158 -9 -180 -21 -73 -39 -105 -111 -84 -186 17 -61 56
-98 126 -118 97 -28 230 0 265 56 19 30 28 24 28 -20 0 -39 1 -40 35 -40 l35
0 0 208 c0 114 -5 224 -10 244 -14 50 -55 97 -105 119 -54 25 -190 25 -261 1z
m304 -346 c3 -39 -2 -56 -23 -88 -32 -48 -110 -88 -173 -88 -123 0 -194 103
-124 180 34 38 83 49 217 47 l100 -2 3 -49z"/>
<path d="M3972 2781 c-72 -34 -110 -70 -142 -135 -64 -130 -32 -299 73 -379
60 -46 114 -62 202 -61 89 1 134 16 190 65 42 37 43 43 10 65 -24 16 -27 16
-48 -4 -12 -11 -42 -30 -67 -41 -110 -50 -236 -6 -292 103 -31 60 -30 168 3
226 64 116 208 152 323 80 20 -12 36 -26 36 -31 0 -14 33 -10 54 6 20 15 20
15 0 43 -40 53 -99 76 -204 80 -78 2 -102 -1 -138 -17z"/>
<path d="M3720 1964 l0 -106 -34 30 c-108 95 -276 15 -276 -131 0 -100 55
-167 144 -175 69 -6 96 1 135 34 l31 26 0 -31 c0 -24 4 -31 20 -31 19 0 20 7
20 245 0 238 -1 245 -20 245 -19 0 -20 -7 -20 -106z m-56 -97 c34 -22 60 -96
51 -143 -9 -49 -60 -100 -108 -109 -75 -14 -157 57 -157 137 0 47 40 113 78
127 36 14 106 7 136 -12z"/>
<path d="M2148 1914 c-53 -16 -65 -28 -47 -50 10 -13 14 -13 30 2 10 9 43 18
78 21 57 5 61 4 91 -26 23 -22 30 -38 28 -58 -3 -28 -4 -28 -93 -33 -122 -7
-155 -28 -155 -100 0 -23 9 -40 31 -61 28 -26 38 -29 94 -29 54 0 68 4 94 26
l31 26 0 -26 c0 -19 5 -26 20 -26 19 0 20 7 20 131 0 151 -10 179 -72 204 -47
18 -88 18 -150 -1z m182 -206 c-1 -56 -50 -98 -116 -98 -43 0 -81 23 -85 50
-7 65 14 78 124 79 l77 1 0 -32z"/>
<path d="M2500 1755 l0 -175 25 0 25 0 0 110 c0 145 16 177 98 194 22 5 32 13
32 27 0 10 -7 19 -15 19 -26 0 -93 -31 -99 -46 -10 -25 -26 -15 -26 16 0 23
-4 30 -20 30 -19 0 -20 -7 -20 -175z"/>
<path d="M2770 1755 l0 -175 24 0 c24 0 24 0 28 124 3 142 11 159 85 178 33 8
43 15 43 30 0 18 -5 20 -31 14 -17 -3 -35 -6 -39 -6 -5 0 -22 -14 -39 -31
l-31 -31 0 36 c0 29 -4 36 -20 36 -19 0 -20 -7 -20 -175z"/>
<path d="M3104 1911 c-95 -43 -127 -147 -76 -251 41 -84 195 -110 276 -46 16
13 17 18 6 31 -11 13 -16 12 -41 -6 -67 -47 -170 -25 -202 44 -9 19 -17 40
-17 46 0 7 46 11 145 11 l145 0 0 29 c0 36 -23 91 -47 113 -26 24 -87 48 -120
48 -15 0 -46 -9 -69 -19z m156 -57 c16 -16 32 -41 35 -56 l7 -28 -127 0 -127
0 6 26 c17 66 59 95 129 90 38 -2 55 -10 77 -32z"/>
<path d="M3975 1919 c-128 -48 -155 -223 -46 -306 37 -29 50 -33 102 -33 122
0 185 66 177 185 -6 99 -57 151 -156 160 -26 3 -60 0 -77 -6z m133 -49 c60
-37 78 -119 42 -189 -38 -76 -150 -90 -209 -27 -29 31 -43 91 -31 136 9 35 50
82 80 93 33 12 87 6 118 -13z"/>
</g>
</svg>
