<svg id="Livello_1" data-name="Livello 1"
    xmlns="http://www.w3.org/2000/svg" viewBox="0 0 500 60.06" width="200" height="24.02">
    <polygon class="st0" points="320.79 28.16 346.44 28.16 346.44 30.96 321.01 30.96 321.01 54.94 346.66 54.94 346.66 57.68 318.02 57.68 318.02 2.16 346.23 2.16 346.23 4.83 320.79 4.83 320.79 28.16"></polygon>
    <path class="st0" d="M347.89,58.9H316.8V.94h30.65V6.05H322V26.93h25.65v5.26H322.24V53.71h25.65Zm-28.64-2.45h26.19v-.28H319.78V29.74h25.44v-.36H319.56V3.6H345V3.39H319.25Z"></path>
    <polygon class="st0" points="320.79 28.16 346.44 28.16 346.44 30.96 321.01 30.96 321.01 54.94 346.66 54.94 346.66 57.68 318.02 57.68 318.02 2.16 346.23 2.16 346.23 4.83 320.79 4.83 320.79 28.16"></polygon>
    <path class="st0" d="M347.72,58.74H317V1.1h30.33V5.89H321.85v21.2H347.5V32H322.07V53.88h25.65Zm-28.64-2.12H345.6V56H320V29.9h25.43v-.69H319.73V3.77h25.44V3.22H319.08Z"></path>
    <path class="st0" d="M366.1,4a11.63,11.63,0,0,0-11.66,11.31c0,5.9,4.3,9.93,10,11.45l3.64,1c7.8,2.09,13.34,7.64,13.34,15.84,0,8.79-7.43,15.27-16,15.27h-.36a16,16,0,0,1-15.67-15.7h2.77a13.27,13.27,0,0,0,13.12,13c7.36,0,13.41-5.54,13.48-12.81,0-6.77-4.74-11.52-11.23-13.11l-3.93-1c-6.93-1.73-11.88-6.92-11.88-14a14.36,14.36,0,0,1,14.43-14h.36a14.2,14.2,0,0,1,13.93,13.61h-2.77A11.44,11.44,0,0,0,366.68,4Z"></path>
    <path class="st0" d="M365.44,60.06h-.36a17.13,17.13,0,0,1-16.9-16.92V41.91h5.22l0,1.21a12,12,0,0,0,11.9,11.82c6.79,0,12.17-5.1,12.24-11.6,0-5.79-3.94-10.35-10.29-11.9l-3.94-1c-7.78-1.94-12.81-7.93-12.81-15.24A15.55,15.55,0,0,1,366.17,0h.36a15.34,15.34,0,0,1,15.15,14.79l.05,1.27h-5.21l-.06-1.16a10.25,10.25,0,0,0-9.84-9.71h-.52a10.4,10.4,0,0,0-10.44,10.08c0,4.91,3.4,8.75,9.08,10.26l3.65,1c8.91,2.39,14.24,8.75,14.24,17C382.63,52.66,374.92,60.06,365.44,60.06ZM350.7,44.36A14.68,14.68,0,0,0,365.11,57.6h.33c8.13,0,14.73-6.3,14.73-14,0-7.09-4.64-12.57-12.42-14.65l-3.66-1c-6.71-1.78-10.88-6.63-10.88-12.63A12.88,12.88,0,0,1,366.1,2.74h.58A12.71,12.71,0,0,1,378.8,13.61h.32A12.91,12.91,0,0,0,366.5,2.46h-.33A13.08,13.08,0,0,0,353,15.21c0,6.22,4.19,11.15,10.95,12.83l3.94,1c7.49,1.83,12.15,7.31,12.15,14.3-.08,7.88-6.55,14-14.71,14a14.52,14.52,0,0,1-14.28-13Z"></path>
    <path class="st0" d="M366.1,4a11.63,11.63,0,0,0-11.66,11.31c0,5.9,4.3,9.93,10,11.45l3.64,1c7.8,2.09,13.34,7.64,13.34,15.84,0,8.79-7.43,15.27-16,15.27h-.36a16,16,0,0,1-15.67-15.7h2.77a13.27,13.27,0,0,0,13.12,13c7.36,0,13.41-5.54,13.48-12.81,0-6.77-4.74-11.52-11.23-13.11l-3.93-1c-6.93-1.73-11.88-6.92-11.88-14a14.36,14.36,0,0,1,14.43-14h.36a14.2,14.2,0,0,1,13.93,13.61h-2.77A11.44,11.44,0,0,0,366.68,4Z"></path>
    <path class="st0" d="M365.44,59.89h-.36a17,17,0,0,1-16.73-16.75V42.07h4.89v1a12.21,12.21,0,0,0,12.07,12c6.88,0,12.34-5.16,12.41-11.76,0-5.87-4-10.5-10.42-12.07l-3.94-1c-7.7-1.93-12.68-7.84-12.68-15.08a15.38,15.38,0,0,1,15.49-15h.36a15.18,15.18,0,0,1,15,14.62l0,1.11h-4.88l-.05-1a10.42,10.42,0,0,0-10-9.87h-.53a10.58,10.58,0,0,0-10.61,10.25c0,5,3.44,8.89,9.21,10.42l3.65,1c8.83,2.37,14.11,8.67,14.11,16.86C382.46,52.57,374.83,59.89,365.44,59.89Zm-14.92-15.7A14.85,14.85,0,0,0,365.1,57.77h.34c8.22,0,14.9-6.37,14.9-14.21,0-7.17-4.69-12.71-12.55-14.81l-3.65-1C357.5,26,353.37,21.2,353.37,15.27A12.73,12.73,0,0,1,366.1,2.9h.58a12.54,12.54,0,0,1,12,10.88h.66A13.07,13.07,0,0,0,366.5,2.29h-.33A13.25,13.25,0,0,0,352.8,15.2c0,6.31,4.24,11.3,11.08,13l3.94,1c7.41,1.82,12,7.23,12,14.14-.08,7.78-6.47,13.87-14.54,13.87a14.35,14.35,0,0,1-14.13-13Z"></path>
    <rect class="st0" x="386.83" y="2.02" width="2.91" height="55.73"></rect>
    <path class="st0" d="M391,59H385.6V.79H391Zm-2.91-2.46h.46V3.25h-.46Z"></path>
    <rect class="st0" x="386.83" y="2.02" width="2.91" height="55.73"></rect>
    <path class="st0" d="M390.8,58.81h-5V1h5Zm-2.91-2.12h.79V3.08h-.79Z"></path>
    <path class="st0" d="M395.6,30a26.3,26.3,0,0,0,26.32,26.06c12.38-.07,22.44-7.85,25.36-19.87H414.92V33.48h35.86C449,48.1,436.85,58.68,421.92,58.75c-16,0-29.23-12.88-29.23-28.79A28.92,28.92,0,0,1,421.62,1.37c10.79.07,18.66,4.18,24.49,13.18h-3.35c-5.4-7.27-12.25-10.66-21.07-10.66A26.22,26.22,0,0,0,395.6,30"></path>
    <path class="st0" d="M421.92,60a30.28,30.28,0,0,1-30.46-30A30.22,30.22,0,0,1,421.62.14c11.39.08,19.5,4.45,25.52,13.74l1.23,1.9h-6.23l-.37-.5c-5.14-6.93-11.52-10.16-20.08-10.16a24.87,24.87,0,1,0,.23,49.74c11.37-.06,20.54-6.84,23.75-17.41h-32V32.26h38.48L452,33.63A30,30,0,0,1,421.92,60ZM421.61,2.6A27.74,27.74,0,0,0,393.92,30a28,28,0,0,0,55.43,4.74h-33.2V35h32.69l-.37,1.52c-3,12.56-13.46,20.73-26.55,20.81a27.33,27.33,0,1,1-.23-54.66,25.8,25.8,0,0,1,21.68,10.66h.39C438.38,6.08,431.28,2.66,421.61,2.6Z"></path>
    <path class="st0" d="M395.6,30a26.3,26.3,0,0,0,26.32,26.06c12.38-.07,22.44-7.85,25.36-19.87H414.92V33.48h35.86C449,48.1,436.85,58.68,421.92,58.75c-16,0-29.23-12.88-29.23-28.79A28.92,28.92,0,0,1,421.62,1.37c10.79.07,18.66,4.18,24.49,13.18h-3.35c-5.4-7.27-12.25-10.66-21.07-10.66A26.22,26.22,0,0,0,395.6,30Z"></path>
    <path class="st0" d="M421.92,59.82A30.11,30.11,0,0,1,391.63,30a30,30,0,0,1,30-29.65C433,.39,441,4.73,447,14l1.06,1.64h-5.83l-.32-.43C436.73,8.2,430.31,5,421.69,5A25,25,0,1,0,421.92,55c11.53-.07,20.8-7,24-17.75h-32V32.42H452l-.15,1.2A29.85,29.85,0,0,1,421.92,59.82Zm-.31-57.39A27.91,27.91,0,0,0,393.75,30a28.12,28.12,0,0,0,55.8,4.57H416v.62h32.64l-.31,1.31c-3,12.49-13.38,20.61-26.39,20.68a27.16,27.16,0,1,1-.23-54.32,25.67,25.67,0,0,1,21.6,10.66h.81C438.66,6,431.46,2.5,421.61,2.43Z"></path>
    <polygon class="st0" points="498.77 57.75 495.64 57.75 458.47 4.68 458.47 57.68 455.7 57.68 455.7 2.16 460.15 2.16 495.86 52.99 495.86 1.8 498.77 1.8 498.77 57.75"></polygon>
    <path class="st0" d="M500,59h-5L459.7,8.58V58.9h-5.23V.94h2.77V.79l.1.15h3.44l33.85,48.17V.58H500Zm-2.91-2.46h.45V3h-.45Zm-.81,0h.55L459.51,3.39h-.44Zm-39.35-.07h.31V3.39h-.31Z"></path>
    <polygon class="st0" points="498.77 57.75 495.64 57.75 458.47 4.68 458.47 57.68 455.7 57.68 455.7 2.16 460.15 2.16 495.86 52.99 495.86 1.8 498.77 1.8 498.77 57.75"></polygon>
    <path class="st0" d="M499.83,58.81h-4.74L459.53,8.05V58.74h-4.89V1.1h6.06l34.1,48.54V.74h5Zm-3.64-2.12h1.52V2.86h-.79V56.35L459.6,3.22h-.86Zm-39.43-.07h.65V3.22h-.65Z"></path>
    <path class="st0" d="M285.46,2H274.4V4.75h11.14c14.21,0,26.23,11.38,26.23,25.35v.58c-.29,13.24-10.93,24.26-24.34,24.26h-13V58h12.81c15.16,0,27.19-12.53,27.48-27.51V30c0-15.56-13.48-28-29.23-28"></path>
    <path class="st0" d="M287.21,59.26h-14V53.71h14.26c12.47,0,22.84-10.34,23.12-23.06V30.1C310.55,17,299.09,6,285.54,6H273.17V.79h12.29c16.79,0,30.46,13.12,30.46,29.24v.5C315.61,46.39,302.73,59.26,287.21,59.26Zm-11.58-2.45h11.58c14.19,0,26-11.8,26.25-26.3V30c0-14.77-12.56-26.78-28-26.78h-9.83v.28h9.91C300.43,3.53,313,15.7,313,30.1v.58c-.31,14.07-11.78,25.49-25.57,25.49h-11.8Z"></path>
    <path class="st0" d="M285.46,2H274.4V4.75h11.14c14.21,0,26.23,11.38,26.23,25.35v.58c-.29,13.24-10.93,24.26-24.34,24.26h-13V58h12.81c15.16,0,27.19-12.53,27.48-27.51V30C314.69,14.47,301.21,2,285.46,2Z"></path>
    <path class="st0" d="M287.21,59.1H273.34V53.88h14.09c12.55,0,23-10.42,23.29-23.23V30.1c0-13.16-11.54-24.28-25.18-24.28h-12.2V1h12.12c16.7,0,30.29,13,30.29,29.07v.5C315.44,46.29,302.64,59.1,287.21,59.1ZM275.46,57h11.75c14.28,0,26.13-11.88,26.42-26.47V30c0-14.86-12.64-26.95-28.17-26.95h-10V3.7h10.08c14.79,0,27.3,12.09,27.3,26.4v.58c-.31,14-11.71,25.32-25.41,25.32h-12Z"></path>
    <polygon class="st0" points="1.74 3.65 10.58 3.65 24.93 46.41 39.36 3.65 47.93 3.65 28.99 56.74 20.69 56.74 1.74 3.65"></polygon>
    <path class="st0" d="M29.85,58h-10L0,2.43H11.47L24.93,42.56,38.48,2.43H49.67Zm-8.3-2.46h6.57L46.19,4.88H40.24L24.92,50.26,9.7,4.88H3.48Z"></path>
    <polygon class="st0" points="1.74 3.65 10.58 3.65 24.93 46.41 39.36 3.65 47.93 3.65 28.99 56.74 20.69 56.74 1.74 3.65"></polygon>
    <path class="st0" d="M29.73,57.8H19.94L.24,2.59H11.35l13.58,40.5L38.6,2.59H49.44Zm-8.29-2.12h6.8l18.19-51H40.12l-15.2,45-15.1-45H3.25Z"></path>
    <polygon class="st0" points="1.74 3.65 10.58 3.65 24.93 46.41 39.36 3.65 47.93 3.65 28.99 56.74 20.69 56.74 1.74 3.65"></polygon>
    <path class="st0" d="M29.85,58h-10L0,2.43H11.47L24.93,42.56,38.48,2.43H49.67Zm-8.3-2.46h6.57L46.19,4.88H40.24L24.92,50.26,9.7,4.88H3.48Z"></path>
    <polygon class="st0" points="1.74 3.65 10.58 3.65 24.93 46.41 39.36 3.65 47.93 3.65 28.99 56.74 20.69 56.74 1.74 3.65"></polygon>
    <path class="st0" d="M29.73,57.8H19.94L.24,2.59H11.35l13.58,40.5L38.6,2.59H49.44Zm-8.29-2.12h6.8l18.19-51H40.12l-15.2,45-15.1-45H3.25Z"></path>
    <polygon class="st0" points="60.1 3.65 96.88 3.65 96.88 10.18 70.48 10.18 70.48 26.11 96.88 26.11 96.88 32.64 70.48 32.64 70.48 50.21 96.88 50.21 96.88 56.74 60.1 56.74 60.1 3.65"></polygon>
    <path class="st0" d="M98.11,58H58.88V2.43H98.11v9H71.71V24.88h26.4v9H71.71V49h26.4ZM61.33,55.51H95.65V51.44H69.25v-20h26.4V27.34H69.25V9h26.4V4.88H61.33Z"></path>
    <polygon class="st0" points="60.1 3.65 96.88 3.65 96.88 10.18 70.48 10.18 70.48 26.11 96.88 26.11 96.88 32.64 70.48 32.64 70.48 50.21 96.88 50.21 96.88 56.74 60.1 56.74 60.1 3.65"></polygon>
    <path class="st0" d="M97.94,57.8H59V2.59h38.9v8.66H71.54v13.8h26.4V33.7H71.54V49.15h26.4ZM61.16,55.68H95.82V51.27H69.42V31.58h26.4V27.17H69.42v-18h26.4V4.71H61.16Z"></path>
    <polygon class="st0" points="60.1 3.65 96.88 3.65 96.88 10.18 70.48 10.18 70.48 26.11 96.88 26.11 96.88 32.64 70.48 32.64 70.48 50.21 96.88 50.21 96.88 56.74 60.1 56.74 60.1 3.65"></polygon>
    <path class="st0" d="M98.11,58H58.88V2.43H98.11v9H71.71V24.88h26.4v9H71.71V49h26.4ZM61.33,55.51H95.65V51.44H69.25v-20h26.4V27.34H69.25V9h26.4V4.88H61.33Z"></path>
    <polygon class="st0" points="60.1 3.65 96.88 3.65 96.88 10.18 70.48 10.18 70.48 26.11 96.88 26.11 96.88 32.64 70.48 32.64 70.48 50.21 96.88 50.21 96.88 56.74 60.1 56.74 60.1 3.65"></polygon>
    <path class="st0" d="M97.94,57.8H59V2.59h38.9v8.66H71.54v13.8h26.4V33.7H71.54V49.15h26.4ZM61.16,55.68H95.82V51.27H69.42V31.58h26.4V27.17H69.42v-18h26.4V4.71H61.16Z"></path>
    <polygon class="st0" points="147.77 43.83 147.77 3.65 155.94 3.65 155.94 56.74 146.76 56.74 121.5 14.99 121.5 56.74 113.33 56.74 113.33 3.65 123.43 3.65 147.77 43.83"></polygon>
    <path class="st0" d="M157.17,58h-11.1L122.73,19.39V58H112.1V2.43h12l22.42,37v-37h10.63Zm-9.72-2.46h7.26V4.88H149V48.23L122.74,4.88h-8.18V55.51h5.71V10.59Z"></path>
    <polygon class="st0" points="147.77 43.83 147.77 3.65 155.94 3.65 155.94 56.74 146.76 56.74 121.5 14.99 121.5 56.74 113.33 56.74 113.33 3.65 123.43 3.65 147.77 43.83"></polygon>
    <path class="st0" d="M157,57.8H146.16l-23.6-39v39H112.27V2.59H124L146.71,40V2.59H157Zm-9.64-2.12h7.52v-51h-6V47.63l-26-42.92h-8.44v51h6V11.19Z"></path>
    <polygon class="st0" points="147.77 43.83 147.77 3.65 155.94 3.65 155.94 56.74 146.76 56.74 121.5 14.99 121.5 56.74 113.33 56.74 113.33 3.65 123.43 3.65 147.77 43.83"></polygon>
    <path class="st0" d="M157.17,58h-11.1L122.73,19.39V58H112.1V2.43h12l22.42,37v-37h10.63Zm-9.72-2.46h7.26V4.88H149V48.23L122.74,4.88h-8.18V55.51h5.71V10.59Z"></path>
    <polygon class="st0" points="147.77 43.83 147.77 3.65 155.94 3.65 155.94 56.74 146.76 56.74 121.5 14.99 121.5 56.74 113.33 56.74 113.33 3.65 123.43 3.65 147.77 43.83"></polygon>
    <path class="st0" d="M157,57.8H146.16l-23.6-39v39H112.27V2.59H124L146.71,40V2.59H157Zm-9.64-2.12h7.52v-51h-6V47.63l-26-42.92h-8.44v51h6V11.19Z"></path>
    <path class="st0" d="M182.28,3.65v38c0,2.94.56,5.38,3,7.24,2.06,1.65,5.14,2.22,8.51,2.22s6.54-.57,8.59-2.22c2.43-1.86,3-4.3,3-7.24v-38h9.25V42.39c0,5-1.49,8.47-5,11.12s-8.59,4.24-15.79,4.24S181.35,56.17,178,53.51,173,47.34,173,42.39V3.65Z"></path>
    <path class="st0" d="M193.87,59c-7.27,0-12.87-1.51-16.65-4.49s-5.41-6.68-5.41-12.08v-40h11.7V41.61c0,3.12.7,4.88,2.51,6.27,1.64,1.31,4.24,2,7.76,2s6.23-.68,7.82-2c1.83-1.4,2.54-3.16,2.54-6.28V2.43h11.7v40c0,5.4-1.72,9.24-5.43,12.09S201.07,59,193.87,59ZM174.26,4.88V42.4c0,4.64,1.38,7.77,4.47,10.14,3.35,2.64,8.44,4,15.14,4,6.55,0,11.74-1.37,15-4,3.11-2.39,4.49-5.51,4.49-10.15V4.88h-6.8V41.61c0,2.74-.41,5.86-3.47,8.21-2,1.64-5.19,2.48-9.34,2.48s-7.18-.81-9.28-2.49c-3-2.34-3.45-5.46-3.45-8.2V4.88Z"></path>
    <path class="st0" d="M182.28,3.65v38c0,2.94.56,5.38,3,7.24,2.06,1.65,5.14,2.22,8.51,2.22s6.54-.57,8.59-2.22c2.43-1.86,3-4.3,3-7.24v-38h9.25V42.39c0,5-1.49,8.47-5,11.12s-8.59,4.24-15.79,4.24S181.35,56.17,178,53.51,173,47.34,173,42.39V3.65Z"></path>
    <path class="st0" d="M193.87,58.81c-7.23,0-12.79-1.5-16.54-4.46S172,47.74,172,42.4V2.59h11.37v39c0,2.65.44,4.76,2.58,6.4,1.66,1.33,4.3,2,7.86,2s6.29-.66,7.93-2c2.15-1.65,2.59-3.76,2.59-6.41v-39h11.38V42.4c0,5.34-1.71,9.14-5.37,12S201,58.81,193.87,58.81ZM174.1,4.71V42.4c0,4.69,1.39,7.86,4.53,10.27,3.38,2.67,8.5,4,15.24,4,6.58,0,11.82-1.39,15.14-4,3.14-2.42,4.54-5.59,4.54-10.28V4.71h-7.13v36.9c0,2.7-.4,5.78-3.4,8.08-2,1.62-5.13,2.44-9.24,2.44s-7.14-.82-9.17-2.45c-3-2.29-3.39-5.37-3.39-8.07V4.71Z"></path>
    <path class="st0" d="M182.28,3.65v38c0,2.94.56,5.38,3,7.24,2.06,1.65,5.14,2.22,8.51,2.22s6.54-.57,8.59-2.22c2.43-1.86,3-4.3,3-7.24v-38h9.25V42.39c0,5-1.49,8.47-5,11.12s-8.59,4.24-15.79,4.24S181.35,56.17,178,53.51,173,47.34,173,42.39V3.65Z"></path>
    <path class="st0" d="M193.87,59c-7.27,0-12.87-1.51-16.65-4.49s-5.41-6.68-5.41-12.08v-40h11.7V41.61c0,3.12.7,4.88,2.51,6.27,1.64,1.31,4.24,2,7.76,2s6.23-.68,7.82-2c1.83-1.4,2.54-3.16,2.54-6.28V2.43h11.7v40c0,5.4-1.72,9.24-5.43,12.09S201.07,59,193.87,59ZM174.26,4.88V42.4c0,4.64,1.38,7.77,4.47,10.14,3.35,2.64,8.44,4,15.14,4,6.55,0,11.74-1.37,15-4,3.11-2.39,4.49-5.51,4.49-10.15V4.88h-6.8V41.61c0,2.74-.41,5.86-3.47,8.21-2,1.64-5.19,2.48-9.34,2.48s-7.18-.81-9.28-2.49c-3-2.34-3.45-5.46-3.45-8.2V4.88Z"></path>
    <path class="st0" d="M182.28,3.65v38c0,2.94.56,5.38,3,7.24,2.06,1.65,5.14,2.22,8.51,2.22s6.54-.57,8.59-2.22c2.43-1.86,3-4.3,3-7.24v-38h9.25V42.39c0,5-1.49,8.47-5,11.12s-8.59,4.24-15.79,4.24S181.35,56.17,178,53.51,173,47.34,173,42.39V3.65Z"></path>
    <path class="st0" d="M193.87,58.81c-7.23,0-12.79-1.5-16.54-4.46S172,47.74,172,42.4V2.59h11.37v39c0,2.65.44,4.76,2.58,6.4,1.66,1.33,4.3,2,7.86,2s6.29-.66,7.93-2c2.15-1.65,2.59-3.76,2.59-6.41v-39h11.38V42.4c0,5.34-1.71,9.14-5.37,12S201,58.81,193.87,58.81ZM174.1,4.71V42.4c0,4.69,1.39,7.86,4.53,10.27,3.38,2.67,8.5,4,15.24,4,6.58,0,11.82-1.39,15.14-4,3.14-2.42,4.54-5.59,4.54-10.28V4.71h-7.13v36.9c0,2.7-.4,5.78-3.4,8.08-2,1.62-5.13,2.44-9.24,2.44s-7.14-.82-9.17-2.45c-3-2.29-3.39-5.37-3.39-8.07V4.71Z"></path>
    <path class="st0" d="M239,41.46c.64,7.39,5.7,10,11.13,10,6.63,0,11.32-3.44,11.32-9,0-6.88-8.1-8.46-15-10.33-6.35-1.79-15.37-4.66-15.37-14.06S238.64,2.65,250,2.65c11,0,17.67,4.31,19.32,14h-8.83c-.46-3.87-3-8-10.12-8-6.17,0-9.85,3.51-9.85,8.24-.09,6.39,6.9,7.83,15.19,10,6,1.72,15.09,4.8,15.09,15.21,0,9.61-8.93,15.64-20.62,15.64-12.15,0-19.88-5.6-20.15-16.29Z"></path>
    <path class="st0" d="M250.14,59c-13.3,0-21.09-6.37-21.38-17.48l0-1.26h11.4l.1,1.12c.67,7.7,6.5,8.86,9.91,8.86,6.13,0,10.09-3.07,10.09-7.81,0-5-5-6.74-12.51-8.73l-1.58-.42c-5.7-1.61-16.28-4.6-16.28-15.25a15.07,15.07,0,0,1,4.28-11c3.57-3.6,9.19-5.59,15.82-5.59,11.92,0,18.83,5.05,20.53,15l.25,1.44H259.36l-.13-1.09c-.31-2.59-1.88-7-8.9-7-5.24,0-8.63,2.76-8.63,7-.06,4.82,4.57,6.29,12.78,8.46l1.5.4c5.21,1.5,16,4.61,16,16.4C272,52,263,59,250.14,59ZM231.29,42.69c.78,8.93,7.42,13.83,18.85,13.83s19.39-5.93,19.39-14.41c0-8.74-6.83-11.91-14.2-14l-1.48-.4c-7.89-2.09-14.7-3.89-14.6-10.84,0-5.65,4.45-9.46,11.08-9.46,6,0,10.1,3,11.16,8h6.29C265.9,7.66,260.05,3.88,250,3.88c-6,0-11,1.72-14.07,4.86A12.63,12.63,0,0,0,232.32,18c0,8.12,7.47,10.91,14.47,12.89l1.55.41c6.73,1.78,14.35,3.79,14.35,11.11,0,6.14-5.05,10.26-12.55,10.26-6.84,0-11.24-3.61-12.22-10Z"></path>
    <path class="st0" d="M239,41.46c.64,7.39,5.7,10,11.13,10,6.63,0,11.32-3.44,11.32-9,0-6.88-8.1-8.46-15-10.33-6.35-1.79-15.37-4.66-15.37-14.06S238.64,2.65,250,2.65c11,0,17.67,4.31,19.32,14h-8.83c-.46-3.87-3-8-10.12-8-6.17,0-9.85,3.51-9.85,8.24-.09,6.39,6.9,7.83,15.19,10,6,1.72,15.09,4.8,15.09,15.21,0,9.61-8.93,15.64-20.62,15.64-12.15,0-19.88-5.6-20.15-16.29Z"></path>
    <path class="st0" d="M250.14,58.81c-13.2,0-20.93-6.32-21.21-17.32l0-1.09H240l.08,1c.69,7.83,6.61,9,10.08,9,6.23,0,10.26-3.13,10.26-8,0-5.56-6.43-7.25-12.64-8.89l-1.58-.42C240.53,31.49,230,28.52,230,18a14.88,14.88,0,0,1,4.23-10.87c3.54-3.57,9.12-5.54,15.7-5.54,11.83,0,18.68,5,20.37,14.87l.21,1.24h-11l-.11-.93c-.32-2.66-1.92-7.11-9.07-7.11-5.34,0-8.79,2.83-8.79,7.19-.07,4.94,4.61,6.43,12.89,8.62l1.51.4c5.17,1.49,15.88,4.57,15.88,16.24C271.82,51.94,262.9,58.81,250.14,58.81Zm-19-16.29c.72,9.15,7.43,14.17,19,14.17s19.56-6,19.56-14.58c0-8.85-6.89-12-14.33-14.19l-1.48-.4c-7.82-2.07-14.57-3.86-14.47-10.68,0-5.55,4.38-9.3,10.91-9.3,6,0,10,3,11,8H268c-1.85-8-7.76-11.87-18-11.87-6,0-11.05,1.75-14.19,4.92A12.77,12.77,0,0,0,232.15,18c0,8.24,7.54,11.06,14.6,13.05l1.55.41c6.67,1.76,14.22,3.76,14.22,11,0,6-5,10.09-12.38,10.09-6.8,0-11.16-3.61-12.08-10Z"></path>
    <path class="st0" d="M239,41.46c.64,7.39,5.7,10,11.13,10,6.63,0,11.32-3.44,11.32-9,0-6.88-8.1-8.46-15-10.33-6.35-1.79-15.37-4.66-15.37-14.06S238.64,2.65,250,2.65c11,0,17.67,4.31,19.32,14h-8.83c-.46-3.87-3-8-10.12-8-6.17,0-9.85,3.51-9.85,8.24-.09,6.39,6.9,7.83,15.19,10,6,1.72,15.09,4.8,15.09,15.21,0,9.61-8.93,15.64-20.62,15.64-12.15,0-19.88-5.6-20.15-16.29Z"></path>
    <path class="st0" d="M250.14,59c-13.3,0-21.09-6.37-21.38-17.48l0-1.26h11.4l.1,1.12c.67,7.7,6.5,8.86,9.91,8.86,6.13,0,10.09-3.07,10.09-7.81,0-5-5-6.74-12.51-8.73l-1.58-.42c-5.7-1.61-16.28-4.6-16.28-15.25a15.07,15.07,0,0,1,4.28-11c3.57-3.6,9.19-5.59,15.82-5.59,11.92,0,18.83,5.05,20.53,15l.25,1.44H259.36l-.13-1.09c-.31-2.59-1.88-7-8.9-7-5.24,0-8.63,2.76-8.63,7-.06,4.82,4.57,6.29,12.78,8.46l1.5.4c5.21,1.5,16,4.61,16,16.4C272,52,263,59,250.14,59ZM231.29,42.69c.78,8.93,7.42,13.83,18.85,13.83s19.39-5.93,19.39-14.41c0-8.74-6.83-11.91-14.2-14l-1.48-.4c-7.89-2.09-14.7-3.89-14.6-10.84,0-5.65,4.45-9.46,11.08-9.46,6,0,10.1,3,11.16,8h6.29C265.9,7.66,260.05,3.88,250,3.88c-6,0-11,1.72-14.07,4.86A12.63,12.63,0,0,0,232.32,18c0,8.12,7.47,10.91,14.47,12.89l1.55.41c6.73,1.78,14.35,3.79,14.35,11.11,0,6.14-5.05,10.26-12.55,10.26-6.84,0-11.24-3.61-12.22-10Z"></path>
    <path class="st0" d="M239,41.46c.64,7.39,5.7,10,11.13,10,6.63,0,11.32-3.44,11.32-9,0-6.88-8.1-8.46-15-10.33-6.35-1.79-15.37-4.66-15.37-14.06S238.64,2.65,250,2.65c11,0,17.67,4.31,19.32,14h-8.83c-.46-3.87-3-8-10.12-8-6.17,0-9.85,3.51-9.85,8.24-.09,6.39,6.9,7.83,15.19,10,6,1.72,15.09,4.8,15.09,15.21,0,9.61-8.93,15.64-20.62,15.64-12.15,0-19.88-5.6-20.15-16.29Z"></path>
    <path class="st0" d="M250.14,58.81c-13.2,0-20.93-6.32-21.21-17.32l0-1.09H240l.08,1c.69,7.83,6.61,9,10.08,9,6.23,0,10.26-3.13,10.26-8,0-5.56-6.43-7.25-12.64-8.89l-1.58-.42C240.53,31.49,230,28.52,230,18a14.88,14.88,0,0,1,4.23-10.87c3.54-3.57,9.12-5.54,15.7-5.54,11.83,0,18.68,5,20.37,14.87l.21,1.24h-11l-.11-.93c-.32-2.66-1.92-7.11-9.07-7.11-5.34,0-8.79,2.83-8.79,7.19-.07,4.94,4.61,6.43,12.89,8.62l1.51.4c5.17,1.49,15.88,4.57,15.88,16.24C271.82,51.94,262.9,58.81,250.14,58.81Zm-19-16.29c.72,9.15,7.43,14.17,19,14.17s19.56-6,19.56-14.58c0-8.85-6.89-12-14.33-14.19l-1.48-.4c-7.82-2.07-14.57-3.86-14.47-10.68,0-5.55,4.38-9.3,10.91-9.3,6,0,10,3,11,8H268c-1.85-8-7.76-11.87-18-11.87-6,0-11.05,1.75-14.19,4.92A12.77,12.77,0,0,0,232.15,18c0,8.24,7.54,11.06,14.6,13.05l1.55.41c6.67,1.76,14.22,3.76,14.22,11,0,6-5,10.09-12.38,10.09-6.8,0-11.16-3.61-12.08-10Z"></path>
</svg>