<?xml version="1.0" encoding="UTF-8" standalone="no"?>
<!DOCTYPE svg PUBLIC "-//W3C//DTD SVG 1.1//EN" "http://www.w3.org/Graphics/SVG/1.1/DTD/svg11.dtd">
<svg width="100%" height="100%" viewBox="0 0 798 293" version="1.1" xmlns="http://www.w3.org/2000/svg" xmlns:xlink="http://www.w3.org/1999/xlink" xml:space="preserve" style="fill-rule:evenodd;clip-rule:evenodd;stroke-linejoin:round;stroke-miterlimit:1.41421;">
    <g id="Artboard1" transform="matrix(1,0,0,1,-828.719,-1617.75)">
        <rect x="828.719" y="1617.75" width="797.439" height="292.231" style="fill:none;"/>
        <g id="Livello-1" transform="matrix(4.16667,0,0,4.16667,0,0)">
            <path d="M207.699,432.631C207.699,423.813 214.365,417.363 223.036,417.363C227.266,417.363 230.135,418.44 232.066,419.943L232.066,423.453C229.775,421.662 226.905,420.231 223.036,420.231C215.721,420.231 210.561,425.317 210.561,432.631C210.561,439.942 215.721,445.098 223.036,445.098C227.052,445.098 229.919,443.594 232.066,441.66L232.066,445.32C229.775,446.891 227.338,447.969 223.036,447.969C214.218,447.969 207.699,441.447 207.699,432.631" style="fill:rgb(35,31,32);fill-rule:nonzero;"/>
            <path d="M249.915,447.897C241.455,447.897 234.646,441.086 234.646,432.631C234.646,424.17 241.455,417.364 249.915,417.364C254.717,417.364 258.941,419.512 261.739,422.954L261.739,417.792L264.678,417.792L264.678,447.393L261.739,447.393L261.739,442.301C258.941,445.749 254.717,447.897 249.915,447.897M237.515,432.631C237.515,439.512 243.032,445.032 249.915,445.032C256.792,445.032 262.314,439.512 262.314,432.631C262.314,425.749 256.792,420.229 249.915,420.229C243.032,420.229 237.515,425.749 237.515,432.631" style="fill:rgb(35,31,32);fill-rule:nonzero;"/>
            <rect x="270.659" y="394.356" width="2.801" height="53.037" style="fill:rgb(35,31,32);fill-rule:nonzero;"/>
            <path d="M304.027,438.866L306.683,440.083C304.673,444.096 300.513,447.97 293.061,447.97C284.027,447.97 277.722,441.587 277.722,432.632C277.722,423.6 284.314,417.434 293.061,417.434C302.306,417.434 308.326,423.956 308.326,431.983L280.591,431.983C280.591,440.229 285.75,445.098 293.061,445.098C298.867,445.098 302.164,442.235 304.027,438.866M305.031,429.19C304.314,425.749 300.806,420.302 293.061,420.302C285.105,420.302 281.95,425.675 281.018,429.19L305.031,429.19Z" style="fill:rgb(35,31,32);fill-rule:nonzero;"/>
            <path d="M315.928,410.12C315.928,411.417 314.85,412.487 313.561,412.487C312.272,412.487 311.198,411.417 311.198,410.12C311.198,408.835 312.272,407.755 313.561,407.755C314.85,407.755 315.928,408.835 315.928,410.12M314.994,447.393L312.058,447.393L312.058,417.793L314.994,417.793L314.994,447.393Z" style="fill:rgb(35,31,32);fill-rule:nonzero;"/>
            <path d="M334.775,447.897C326.318,447.897 319.507,441.086 319.507,432.631C319.507,424.17 326.318,417.364 334.775,417.364C339.648,417.364 344.019,419.585 346.816,423.168L346.816,394.356L349.755,394.356L349.755,447.393L346.816,447.393L346.816,442.092C344.019,445.602 339.722,447.897 334.775,447.897M322.377,432.631C322.377,439.512 327.894,445.032 334.775,445.032C341.656,445.032 347.175,439.512 347.175,432.631C347.175,425.749 341.656,420.229 334.775,420.229C327.894,420.229 322.377,425.749 322.377,432.631" style="fill:rgb(35,31,32);fill-rule:nonzero;"/>
            <path d="M383.227,432.631C383.227,441.086 376.42,447.897 367.961,447.897C359.504,447.897 352.696,441.086 352.696,432.631C352.696,424.17 359.504,417.363 367.961,417.363C376.42,417.363 383.227,424.17 383.227,432.631M355.559,432.631C355.559,439.512 361.079,445.031 367.961,445.031C374.838,445.031 380.362,439.512 380.362,432.631C380.362,425.748 374.838,420.231 367.961,420.231C361.079,420.231 355.559,425.748 355.559,432.631" style="fill:rgb(35,31,32);fill-rule:nonzero;"/>
        </g>
    </g>
</svg>
