<svg data-name="Livello 1" xmlns="http://www.w3.org/2000/svg" width="200" height="22.24"><path d="M28.13 18.58V3.42c0-.34.05-.64.16-.92s.26-.51.46-.71c.2-.2.44-.35.71-.46.28-.11.58-.16.92-.16h22.91v3.76H32.24v3.98h18.5v3.76h-18.5v4.41h21.05v3.76H30.38c-.34 0-.64-.05-.92-.16s-.51-.26-.71-.46c-.2-.2-.35-.44-.46-.71a2.47 2.47 0 01-.16-.92zM58.32 1.17h17.54c.66 0 1.26.08 1.81.24.54.16 1.04.38 1.47.65s.82.6 1.14.98.6.79.81 1.23c.22.44.38.91.48 1.39s.16.97.15 1.46c0 .5-.05 1-.16 1.49s-.27.96-.48 1.4-.49.85-.81 1.23c-.33.37-.71.7-1.14.97-.44.27-.93.49-1.47.64-.55.15-1.15.23-1.81.23h-.08l6.32 7.74H77l-6.32-7.74H60.17v7.74h-4.1V3.42c0-.34.05-.64.15-.92.11-.28.26-.51.46-.71.2-.2.44-.35.71-.46.28-.11.58-.16.92-.16zm17.46 8.17c.3 0 .57-.06.8-.19.23-.13.42-.29.58-.5.15-.21.27-.44.35-.71.08-.26.12-.53.12-.81s-.03-.55-.11-.81c-.07-.26-.19-.5-.34-.71-.15-.21-.34-.37-.58-.5s-.5-.19-.82-.19h-15.6v4.41h15.6zm7.35 11.49l12.24-18.4C96 1.47 96.62 1 97.24 1s1.24.48 1.87 1.43l12.24 18.4h-5L97.24 7.04l-9.11 13.79h-5zm32.64 0c-.34 0-.64-.05-.92-.16s-.51-.26-.71-.46c-.2-.2-.35-.44-.46-.71a2.47 2.47 0 01-.16-.92V3.42c0-.34.05-.64.16-.92s.26-.51.46-.71.44-.35.71-.46.58-.16.92-.16h17.52c.66 0 1.26.08 1.81.24a5.9 5.9 0 011.49.65c.44.28.83.6 1.16.98.33.38.61.79.83 1.23.22.44.39.9.5 1.39s.17.98.17 1.47v7.81c0 .49-.05.98-.16 1.46s-.27.94-.49 1.38c-.22.44-.49.84-.82 1.21s-.71.7-1.16.97c-.44.27-.94.48-1.5.64-.55.15-1.17.23-1.84.23h-17.52zm19.31-14.09c0-.23-.04-.45-.12-.67-.08-.22-.2-.41-.35-.58s-.35-.31-.58-.41c-.23-.1-.5-.15-.8-.15h-15.6v12.15h15.6c.32 0 .59-.05.83-.16.23-.11.43-.24.58-.41.15-.17.26-.37.34-.58.07-.22.11-.44.11-.66V6.74zm9.38 12.15a6.48 6.48 0 01-1.43-2.05c-.34-.77-.51-1.61-.51-2.51V7.67c0-.9.17-1.73.5-2.49.33-.76.81-1.45 1.44-2.08a6.71 6.71 0 012.08-1.44c.76-.33 1.59-.5 2.48-.5h12.16c.89 0 1.72.17 2.48.5.76.33 1.45.81 2.08 1.44a6.71 6.71 0 011.44 2.08c.33.76.5 1.59.5 2.49v6.66c0 .9-.17 1.74-.51 2.51a6.48 6.48 0 01-1.43 2.05c-.3.29-.62.55-.96.79-.35.24-.71.44-1.1.61-.39.17-.79.3-1.21.4-.42.09-.85.14-1.3.14h-12.16c-.44 0-.88-.05-1.3-.14-.42-.09-.82-.23-1.21-.4s-.75-.38-1.1-.61c-.35-.24-.67-.5-.96-.79zm2.16-4.22c0 .31.07.61.2.9.14.29.31.54.54.77.22.22.48.4.77.54s.59.2.9.2h12.16c.31 0 .61-.07.9-.2s.54-.31.77-.54c.22-.22.4-.48.54-.77.14-.29.2-.59.2-.9V7.32c0-.33-.06-.64-.19-.94-.12-.29-.29-.55-.51-.77-.22-.22-.47-.39-.77-.51-.29-.12-.61-.19-.94-.19h-12.16c-.33 0-.64.06-.94.19s-.55.29-.77.51c-.22.22-.39.47-.51.77-.12.29-.19.61-.19.94v7.35zm24.79-11.25c0-.34.05-.64.16-.92s.26-.51.46-.71.44-.35.71-.46c.28-.11.58-.16.92-.16h1.66c.16 0 .32.02.47.06.16.04.31.1.45.18.14.08.27.17.4.28s.23.23.32.36l8.53 12.91 8.53-12.91c.09-.13.19-.25.32-.36.12-.11.25-.2.4-.28a1.893 1.893 0 01.92-.24h1.66c.34 0 .64.05.92.16s.51.26.71.46.35.44.46.71c.11.28.16.58.16.92v17.41h-4.09V7.38l-8.11 12.19c-.1.15-.21.31-.35.48s-.28.32-.44.46c-.16.14-.33.26-.51.35s-.37.14-.58.14-.39-.05-.57-.14-.35-.21-.51-.35c-.16-.14-.3-.29-.44-.46s-.25-.33-.34-.48l-8.12-12.2v13.47h-4.11V3.42zM.55 15.38h4.1-4.1L18.72 1.32h6.13l-8.53 6.45 9.4 13.22h-5.05l-7.61-10.74-8.41 6.38v4.36H.55v-5.62z" fill="#fff"/><path d="M.55 15.38h4.1-4.1L18.72 1.32h6.13l-8.53 6.45-3.27 2.48-12.5 9.49" fill="#c13118"/><path d="M.42 4.35l3.97-3.03h6.13L.42 9.01V4.35z" fill="#027b35"/></svg>