<?xml version="1.0" encoding="utf-8"?>
<!-- Generator: Adobe Illustrator 25.3.0, SVG Export Plug-In . SVG Version: 6.00 Build 0)  -->
<svg version="1.1" id="Livello_1" xmlns="http://www.w3.org/2000/svg" xmlns:xlink="http://www.w3.org/1999/xlink" x="0px" y="0px"
	 viewBox="0 0 100 100" style="enable-background:new 0 0 100 100;" xml:space="preserve">
<style type="text/css">
	.st0{fill:#FFFFFF;}
</style>
<path class="st0" d="M0,100h100V0.1H0V100z M9.3,90.9V9.3h81.5v81.5H9.3V90.9z"/>
<polygon class="st0" points="33.2,29.9 23.5,29.9 23.5,14 17.3,14 17.3,35 33.2,35 "/>
<path class="st0" d="M41.7,28.9L41.7,28.9c0.1,0.7,0.4,1.4,0.7,2c0.3,0.7,0.8,1.3,1.5,1.8c0.9,0.8,1.8,1.4,2.9,1.8
	c1,0.4,2.3,0.6,3.8,0.6c1.4,0,2.7-0.2,3.8-0.6c1-0.4,2-1,2.9-1.8c0.6-0.6,1.1-1.2,1.5-1.8c0.3-0.6,0.6-1.3,0.7-2
	c0.1-0.7,0.2-1.4,0.2-2.2c0-0.7,0-1.5,0-2.3c0-0.8,0-1.5,0-2.3c0-0.8-0.1-1.5-0.2-2.2c-0.1-0.7-0.4-1.4-0.7-2
	c-0.3-0.7-0.8-1.3-1.5-1.8c-0.9-0.8-1.8-1.4-2.9-1.8c-1-0.4-2.3-0.6-3.8-0.6c-1.4,0-2.7,0.2-3.8,0.6c-1,0.4-2,1-2.9,1.8
	c-0.6,0.6-1.1,1.2-1.5,1.8c-0.3,0.6-0.6,1.3-0.7,2c-0.1,0.7-0.2,1.4-0.2,2.2c0,0.7,0,1.5,0,2.3c0,0.8,0,1.5,0,2.3
	C41.4,27.5,41.5,28.2,41.7,28.9 M47.7,22.2c0-0.5,0.1-1,0.2-1.4c0.1-0.3,0.1-0.6,0.2-0.7c0.1-0.2,0.2-0.3,0.3-0.5
	c0.2-0.2,0.5-0.4,0.8-0.6c0.7-0.3,1.8-0.3,2.5,0c0.3,0.1,0.6,0.3,0.8,0.5c0.1,0.1,0.2,0.3,0.3,0.5c0.1,0.2,0.2,0.4,0.2,0.7
	c0.1,0.3,0.1,0.8,0.2,1.4c0,0.6,0.1,1.3,0.1,2.3c0,1,0,1.7-0.1,2.2c0,0.5-0.1,1-0.2,1.4c-0.1,0.3-0.1,0.6-0.2,0.7
	c-0.1,0.2-0.2,0.3-0.3,0.5c-0.2,0.2-0.4,0.4-0.8,0.6c-0.3,0.2-0.7,0.2-1.2,0.2c-0.5,0-0.9-0.1-1.2-0.2c-0.3-0.2-0.6-0.4-0.8-0.6
	c-0.1-0.1-0.2-0.3-0.3-0.5c-0.1-0.2-0.2-0.4-0.2-0.7c-0.1-0.4-0.1-0.8-0.2-1.4c0-0.6-0.1-1.4-0.1-2.2C47.7,23.6,47.7,22.8,47.7,22.2
	"/>
<polygon class="st0" points="72.7,25.4 79.6,35 85,35 85,14 78.8,14 78.8,23.6 71.9,14 66.5,14 66.5,35 72.7,35 "/>
<path class="st0" d="M29,59.8c1.1-0.3,2.1-0.9,2.9-1.6c0.7-0.6,1.2-1.3,1.6-1.9c0.3-0.6,0.6-1.3,0.7-2c0.1-0.7,0.2-1.4,0.2-2.2v-4.6
	c0-0.7-0.1-1.5-0.2-2.2c-0.1-0.7-0.4-1.4-0.7-2c-0.4-0.7-0.9-1.3-1.6-1.9c-0.8-0.7-1.8-1.3-2.9-1.6c-1.1-0.3-2.3-0.5-3.5-0.5h-8.8
	v21h8.8C26.8,60.2,27.9,60.1,29,59.8 M23,55.2V44.3h2.2c0.7,0,1.2,0.1,1.6,0.3c0.4,0.2,0.7,0.4,0.9,0.7c0.1,0.1,0.2,0.3,0.2,0.4
	c0.1,0.1,0.1,0.4,0.2,0.7c0.1,0.3,0.1,0.7,0.1,1.2c0,0.5,0,1.2,0,2.1c0,0.9,0,1.5,0,2.1c0,0.5-0.1,0.9-0.1,1.3
	c-0.1,0.3-0.1,0.5-0.2,0.7c-0.1,0.1-0.1,0.3-0.2,0.4c-0.2,0.3-0.5,0.6-0.9,0.7c-0.4,0.2-0.9,0.3-1.6,0.3H23z"/>
<path class="st0" d="M41.7,54.2L41.7,54.2c0.1,0.7,0.4,1.4,0.7,2c0.3,0.7,0.8,1.3,1.5,1.8c0.9,0.8,1.8,1.4,2.9,1.8
	c1,0.4,2.3,0.6,3.7,0.6c1.4,0,2.7-0.2,3.8-0.6c1-0.4,2-1,2.9-1.8c0.6-0.5,1.1-1.2,1.5-1.8c0.3-0.6,0.6-1.3,0.7-2
	c0.1-0.7,0.2-1.4,0.2-2.2c0-0.7,0-1.5,0-2.3c0-0.8,0-1.5,0-2.3c0-0.7-0.1-1.5-0.2-2.2c-0.1-0.7-0.4-1.4-0.7-2
	c-0.3-0.7-0.8-1.3-1.5-1.8c-0.9-0.8-1.8-1.4-2.9-1.8c-1-0.4-2.3-0.6-3.8-0.6c-1.4,0-2.7,0.2-3.7,0.6c-1,0.4-2,1-2.9,1.8
	c-0.6,0.6-1.1,1.2-1.5,1.8c-0.3,0.7-0.6,1.3-0.7,2c-0.1,0.7-0.2,1.4-0.2,2.2c0,0.7,0,1.5,0,2.3c0,0.8,0,1.5,0,2.3
	C41.4,52.7,41.5,53.5,41.7,54.2 M47.7,47.5L47.7,47.5c0-0.5,0.1-1,0.2-1.4c0.1-0.3,0.1-0.6,0.2-0.7c0.1-0.2,0.2-0.3,0.3-0.5
	c0.2-0.2,0.5-0.4,0.8-0.6c0.3-0.2,0.8-0.2,1.2-0.2c0.5,0,0.9,0.1,1.2,0.2c0.3,0.2,0.6,0.3,0.8,0.5c0.1,0.2,0.2,0.3,0.3,0.5
	c0.1,0.2,0.2,0.4,0.2,0.7c0.1,0.3,0.1,0.8,0.2,1.4c0,0.6,0.1,1.3,0.1,2.3c0,0.9,0,1.7-0.1,2.2c0,0.6-0.1,1-0.2,1.4
	c-0.1,0.3-0.1,0.6-0.2,0.7c-0.1,0.2-0.2,0.3-0.3,0.5c-0.2,0.2-0.5,0.4-0.8,0.6c-0.7,0.3-1.8,0.3-2.4,0c-0.3-0.2-0.6-0.3-0.8-0.6
	c-0.1-0.1-0.2-0.3-0.3-0.5c-0.1-0.2-0.2-0.4-0.2-0.7c-0.1-0.4-0.1-0.8-0.2-1.4c0-0.5-0.1-1.3-0.1-2.2C47.7,48.8,47.7,48,47.7,47.5"
	/>
<polygon class="st0" points="72.7,50.6 79.6,60.2 85,60.2 85,39.2 78.8,39.2 78.8,48.9 71.9,39.2 66.5,39.2 66.5,60.2 72.7,60.2 "/>
<path class="st0" d="M22.3,82.4h6.6l1.1,3h6.6l-8.6-21h-4.8l-8.6,21h6.6L22.3,82.4z M25.7,73.3l1.5,4.3h-3.1L25.7,73.3z"/>
<polygon class="st0" points="67,69.5 72.6,69.5 72.6,85.4 78.9,85.4 78.9,69.5 84.5,69.5 84.5,64.4 67,64.4 "/>
<path class="st0" d="M58.4,74.9L58.4,74.9c0.4-0.5,0.7-1,0.9-1.6c0.2-0.6,0.4-1.3,0.4-2c0-0.9-0.2-1.7-0.5-2.6
	c-0.4-0.8-0.9-1.6-1.6-2.2C56.9,65.9,56,65.4,55,65c-1-0.4-2.2-0.6-3.5-0.6h-9.4v21h6.2v-7.6h1.4l4.1,7.6h7.3l-5.1-8.7
	c0.4-0.2,0.7-0.4,1.1-0.7C57.6,75.7,58,75.3,58.4,74.9 M52.9,72.4L52.9,72.4C52.5,72.8,52,73,51.3,73h-2.9v-3.5h2.9
	c0.7,0,1.2,0.2,1.6,0.5c0.4,0.4,0.6,0.8,0.6,1.2C53.4,71.7,53.3,72.1,52.9,72.4"/>
</svg>
