<?xml version="1.0" encoding="UTF-8"?>
<svg xmlns="http://www.w3.org/2000/svg" xmlns:xlink="http://www.w3.org/1999/xlink" width="120" height="24" viewBox="0 0 120 24">
  <defs>
    <polygon id="azzurraceramiche_logo-a" points=".397 .227 5.497 .227 5.497 5.225 .397 5.225"></polygon>
  </defs>
  <g fill="none" fill-rule="evenodd" transform="translate(1 2)">
    <path fill="#12253a" d="M8.41733469,0.490196808 L0.16878942,17.6470851 L0,18 L0.401220753,18 L3.11015259,18 L3.27409969,18 L3.34258393,17.8546821 L5.13078332,14.0864615 L11.9363174,14.0864615 L13.6179858,17.8506641 L13.6857782,18 L13.8524924,18 L16.6056968,18 L17,18 L16.8388199,17.6524424 L8.88219736,0.493545147 L8.65253306,0 L8.41733469,0.490196808 Z M8.60134283,6.68328435 L10.6883825,11.3173853 L6.41192269,11.3173853 L8.60134283,6.68328435 Z"></path>
    <polygon fill="#12253a" points="31.567 1 20.752 1 20.5 1 20.5 1.254 20.5 3.576 20.5 3.829 20.752 3.829 27.06 3.829 19.215 17.623 19 18 19.433 18 31.385 18 31.638 18 31.638 17.748 31.638 15.425 31.638 15.173 31.385 15.173 23.939 15.173 31.785 1.377 32 1"></polygon>
    <polygon fill="#12253a" points="46.567 1 35.753 1 35.5 1 35.5 1.254 35.5 3.576 35.5 3.829 35.753 3.829 42.061 3.829 34.215 17.623 34 18 34.433 18 46.387 18 46.638 18 46.638 17.748 46.638 15.425 46.638 15.173 46.387 15.173 38.94 15.173 46.786 1.377 47 1"></polygon>
    <g transform="translate(51)">
      <path fill="#12253a" d="M21.5426722 8.78666667L21.0133113 8.78666667 21.0133113 4.182 21.6386103 4.182C22.7191052 4.182 23.5206309 4.372 24.0431876 4.74933333 24.5412495 5.11066667 24.7909608 5.66266667 24.7909608 6.40133333 24.7909608 7.19866667 24.5324041 7.792 24.0152907 8.18 23.4777649 8.58466667 22.6531052 8.78666667 21.5426722 8.78666667L21.5426722 8.78666667zM24.2718062 11.0486667C24.6997856 10.9286667 25.0951052 10.7606667 25.4577649 10.5446667 25.9224866 10.2686667 26.3314144 9.91333333 26.6852289 9.48066667L26.6872701 9.48066667C27.0356412 9.05 27.3010021 8.57466667 27.4779093 8.056 27.6527753 7.54 27.7419093 6.98333333 27.7419093 6.38933333 27.7419093 5.62733333 27.6010639 4.93666667 27.3214144 4.318 27.0424454 3.69666667 26.6219505 3.15133333 26.0619711 2.68133333L26.0619711 2.68066667C25.5523423 2.258 24.8875794 1.94133333 24.0676825 1.732 23.2641155 1.52733333 22.3108577 1.42466667 21.2099505 1.42466667L18.3147959 1.42466667 18.0630433 1.42466667 18.0630433 1.67133333 18.0630433 17.7533333 18.0630433 18 18.3147959 18 20.7608784 18 21.0133113 18 21.0133113 17.7533333 21.0133113 11.424 21.0779505 11.424 25.6972701 17.8933333 25.7734763 18 25.9027546 18 28.9339918 18 29.4286515 18 29.1381155 17.6086667 24.2718062 11.0486667zM36.2665237 8.78666667L35.7378433 8.78666667 35.7378433 4.182 36.3631423 4.182C37.4436371 4.182 38.2451629 4.372 38.7677196 4.74933333 39.2657814 5.11066667 39.5154928 5.66266667 39.5154928 6.40133333 39.5154928 7.19866667 39.2576165 7.792 38.7411835 8.18 38.2029773 8.58466667 37.3783175 8.78666667 36.2665237 8.78666667L36.2665237 8.78666667zM38.9970186 11.0486667C39.4243175 10.9286667 39.8196371 10.7606667 40.1816165 10.5446667 40.6470186 10.2686667 41.0559464 9.91333333 41.4104412 9.48066667L41.4118021 9.48066667C41.761534 9.05 42.0248536 8.57466667 42.2024412 8.056 42.3773072 7.54 42.4657608 6.98466667 42.4657608 6.38933333 42.4657608 5.62666667 42.3255959 4.93533333 42.0459464 4.31733333 41.7662969 3.69666667 41.3458021 3.15133333 40.7871835 2.68133333L40.7865031 2.68066667C40.2768742 2.258 39.6114309 1.94133333 38.7922144 1.732 37.9886474 1.52733333 37.0347093 1.42466667 35.9351629 1.42466667L33.0386474 1.42466667 32.7875753 1.42466667 32.7875753 1.67133333 32.7875753 17.7533333 32.7875753 18 33.0386474 18 35.4867711 18 35.7378433 18 35.7378433 17.7533333 35.7378433 11.424 35.8024825 11.424 40.4218021 17.8933333 40.4980082 18 40.627967 18 43.6578433 18 44.1525031 18 43.861967 17.6086667 38.9970186 11.0486667zM52.5685237 11.3400667L54.7199876 6.72673333 56.7727918 11.3400667 52.5685237 11.3400667zM54.9975959.5654L54.771699.0734 54.5396784.5614 46.4264412 17.6414 46.2597402 17.9927333 46.6543794 17.9927333 49.3209155 17.9927333 49.480132 17.9927333 49.5488536 17.8487333 51.3070392 14.0974 58.0009361 14.0974 59.655699 17.8447333 59.721699 17.9927333 59.8863588 17.9927333 62.5937196 17.9927333 62.9822351 17.9927333 62.8230186 17.6467333 54.9975959.5654zM10.3012392 1.424L10.0494866 1.424 10.0494866 1.67066667 10.0494866 11.0666667C10.0494866 11.7526667 9.99369278 12.3386667 9.88278557 12.8246667 9.7746 13.296 9.61402268 13.6733333 9.40445567 13.956 9.08262062 14.3853333 8.69614639 14.7073333 8.2457134 14.92 7.79323918 15.134 7.27000206 15.2413333 6.67736289 15.2413333 6.08744536 15.2413333 5.5669299 15.134 5.11581649 14.92 4.66742474 14.708 4.28163093 14.3853333 3.96047629 13.956 3.74886804 13.6626667 3.58897113 13.2806667 3.48214639 12.8093333 3.37123918 12.3253333 3.31612577 11.7433333 3.31612577 11.0666667L3.31612577 1.67066667 3.31612577 1.424 3.06369278 1.424.616249485 1.424.364496907 1.424.364496907 1.67066667.364496907 11.728C.364496907 12.6046667.504661856 13.408.78431134 14.134 1.06532165 14.864 1.48649691 15.5166667 2.04851753 16.09 2.67449691 16.7246667 3.37464124 17.202 4.14690928 17.5213333 4.92053814 17.84 5.76424948 17.9993333 6.67736289 17.9993333 7.59183711 17.9993333 8.43622887 17.84 9.21053814 17.522 9.9834866 17.2026667 10.6856722 16.726 11.3150536 16.0906667L11.315734 16.09C11.8777546 15.5166667 12.2996103 14.8633333 12.5799402 14.134 12.8595897 13.4086667 13.0004351 12.6046667 13.0004351 11.728L13.0004351 1.67066667 13.0004351 1.424 12.7486825 1.424 10.3012392 1.424zM62.9448124 4.55686667L62.1398845 4.55686667 62.1398845 3.63886667 63.0353072 3.63886667C63.2435134 3.63886667 63.3966062 3.68086667 63.4939052 3.76553333 63.5898433 3.84886667 63.638833 3.95886667 63.638833 4.08953333 63.638833 4.17953333 63.6129773 4.2622 63.5633072 4.33886667 63.5143175 4.41486667 63.440833 4.4702 63.3448948 4.50486667 63.2475959 4.5402 63.1149155 4.55686667 62.9448124 4.55686667M63.4551216 4.98286667C63.4040907 4.93686667 63.3285649 4.89086667 63.2292247 4.8442 63.5000289 4.8062 63.7007505 4.72153333 63.8313897 4.58753333 63.9599876 4.45153333 64.026668 4.28553333 64.026668 4.0882 64.026668 3.9362 63.9865237 3.79686667 63.9075959 3.67153333 63.8307093 3.54486667 63.7252454 3.45686667 63.5939258 3.40753333 63.463967 3.3582 63.2714103 3.33286667 63.0189773 3.33286667L61.7642969 3.33286667 61.7642969 6.10686667 62.1398845 6.10686667 62.1398845 4.87486667 62.5733072 4.87486667C62.6712866 4.87486667 62.7393278 4.8782 62.7821938 4.88886667 62.8400289 4.9022 62.8978639 4.92686667 62.9529773 4.9602 63.0087711 4.99753333 63.0720495 5.0582 63.142132 5.14686667 63.2142557 5.23486667 63.3033897 5.3622 63.4122557 5.52953333L63.7864825 6.10686667 64.255967 6.10686667 63.7647093 5.35086667C63.6680907 5.20353333 63.5639876 5.0802 63.4551216 4.98286667"></path>
      <g transform="translate(59.876 2)">
        <mask id="azzurraceramiche_logo-b" fill="#fff">
          <use xlink:href="#azzurraceramiche_logo-a"></use>
        </mask>
        <path fill="#12253a" d="M2.94693402,4.732 C1.8181299,4.732 0.900253608,3.832 0.900253608,2.726 C0.900253608,1.62 1.8181299,0.72 2.94693402,0.72 C4.07573814,0.72 4.99361443,1.62 4.99361443,2.726 C4.99361443,3.832 4.07573814,4.732 2.94693402,4.732 M2.94693402,0.226666667 C1.54052165,0.226666667 0.396748454,1.34866667 0.396748454,2.726 C0.396748454,4.10466667 1.54052165,5.22533333 2.94693402,5.22533333 C4.35334639,5.22533333 5.49711959,4.10466667 5.49711959,2.726 C5.49711959,1.34866667 4.35334639,0.226666667 2.94693402,0.226666667" mask="url(#azzurraceramiche_logo-b)"></path>
      </g>
    </g>
  </g>
</svg>
