<?xml version="1.0" encoding="utf-8"?>
<!-- Generator: Adobe Illustrator 17.0.0, SVG Export Plug-In . SVG Version: 6.00 Build 0)  -->
<!DOCTYPE svg PUBLIC "-//W3C//DTD SVG 1.1//EN" "http://www.w3.org/Graphics/SVG/1.1/DTD/svg11.dtd">
<svg version="1.1" id="Livello_1" xmlns="http://www.w3.org/2000/svg" xmlns:xlink="http://www.w3.org/1999/xlink" x="0px" y="0px"
	 width="274.882px" height="75.522px" viewBox="0 0 274.882 75.522" enable-background="new 0 0 274.882 75.522"
	 xml:space="preserve">
<g>
	<path fill="#1D1D1B" d="M0,0h29.488v8.353H10.427v8.185h16.481v8.073H10.427v15.416H0V0z"/>
	<path fill="#1D1D1B" d="M34.253,0H44.68v31.057h18.668v8.97H34.253V0z"/>
	<path fill="#1D1D1B" d="M79.38,0h10.595l14.968,40.027H94.068l-2.466-7.176H77.643l-2.522,7.176H64.413L79.38,0z M80.054,25.115
		h9.081L84.706,11.1h-0.112L80.054,25.115z"/>
	<path fill="#1D1D1B" d="M125.575,40.027h-11.997L100.964,0h10.876l7.848,29.768h0.112L127.649,0h10.876L125.575,40.027z"/>
	<path fill="#1D1D1B" d="M141.497,0h10.428v40.027h-10.428V0z"/>
	<path fill="#1D1D1B" d="M159.155,0h10.427v15.361L182.756,0h12.949l-14.801,15.753l16.65,24.274h-12.949l-10.764-16.818
		l-4.261,4.485v12.333h-10.427V0H159.155z"/>
	<path fill="#1D1D1B" d="M200.695,0h31.897v8.353h-21.47v7.008h19.62v8.072h-19.62v7.624h22.031v8.97h-32.459L200.695,0L200.695,0z"
		/>
	<path fill="#1D1D1B" d="M239.096,0H259.5c7.064,0,14.016,3.195,14.016,11.268c0,4.316-2.075,8.409-6.278,10.035v0.112
		c4.26,1.009,5.494,5.774,5.83,9.586c0.111,1.682,0.279,7.568,1.682,9.026h-10.315c-0.895-1.345-1.064-5.269-1.178-6.391
		c-0.279-4.037-0.952-8.185-5.83-8.185h-7.903v14.576h-10.427L239.096,0L239.096,0z M249.523,17.378h8.746
		c3.138,0,4.819-1.681,4.819-4.709c0-2.971-2.354-4.316-5.27-4.316h-8.296v9.025H249.523z"/>
</g>
</svg>
