
					<svg width="116" height="38" viewBox="0 0 116 38" fill="none" xmlns="http://www.w3.org/2000/svg">
						<path d="M61.7978 34.8405C62.0114 35.0472 62.3215 35.1541 62.7212 35.1541C63.0106 35.1541 63.2552 35.0817 63.4654 34.937C63.6721 34.7923 63.7996 34.6407 63.8479 34.4787H65.102C64.9022 35.1024 64.5921 35.5503 64.1786 35.8156C63.7617 36.0843 63.2621 36.2187 62.6729 36.2187C62.2629 36.2187 61.8977 36.1532 61.567 36.0223C61.2396 35.8914 60.9606 35.7053 60.7332 35.4642C60.5058 35.223 60.33 34.9335 60.206 34.5993C60.082 34.2651 60.0199 33.8965 60.0199 33.4933C60.0199 33.104 60.082 32.7422 60.2094 32.408C60.3369 32.0738 60.5161 31.7809 60.7538 31.5363C60.9881 31.2917 61.2672 31.0987 61.5911 30.9575C61.915 30.8162 62.2767 30.7473 62.6695 30.7473C63.1105 30.7473 63.4964 30.8335 63.8237 31.0057C64.1511 31.178 64.4198 31.4054 64.6334 31.6948C64.8436 31.9842 64.9952 32.3116 65.0917 32.6802C65.1847 33.0489 65.2191 33.4348 65.1916 33.8379H61.4464C61.467 34.2961 61.5842 34.6338 61.7978 34.8405ZM63.4103 32.1048C63.238 31.9188 62.9796 31.8223 62.6316 31.8223C62.4042 31.8223 62.2147 31.8602 62.0631 31.936C61.9115 32.0118 61.7909 32.1083 61.7013 32.222C61.6118 32.3357 61.5463 32.4563 61.5118 32.5837C61.4739 32.7112 61.4533 32.8249 61.4464 32.9248H63.7652C63.6997 32.5665 63.5826 32.2909 63.4103 32.1048ZM56.385 31.843V30.8886H57.2395V30.4855C57.2395 30.0238 57.3842 29.6448 57.6701 29.3485C57.9596 29.0521 58.3937 28.9074 58.976 28.9074C59.1035 28.9074 59.2309 28.9109 59.3584 28.9212C59.4859 28.9316 59.6099 28.9384 59.7305 28.9453V30.0134C59.5617 29.9928 59.3894 29.9824 59.2068 29.9824C59.0139 29.9824 58.8726 30.0272 58.7899 30.1168C58.7072 30.2064 58.6659 30.3614 58.6659 30.575V30.8886H59.6513V31.843H58.6659V36.0878H57.2395V31.843H56.385ZM55.8027 36.0878H54.3763V30.8851H55.8027V36.0878ZM54.3763 28.904H55.8027V30.0823H54.3763V28.904ZM50.1073 28.904V34.7613H53.6011V36.0878H48.5293V28.904H50.1073ZM42.5135 30.8955L44.2225 35.3229L45.8212 30.8955H46.4552L44.2053 36.8733C44.1122 37.0939 44.0261 37.2765 43.9434 37.4212C43.8642 37.5659 43.7746 37.6796 43.6781 37.7623C43.5816 37.845 43.4679 37.907 43.337 37.9414C43.2061 37.9793 43.0407 37.9966 42.8409 37.9966C42.7134 37.9897 42.6135 37.9862 42.5446 37.9828C42.4757 37.9793 42.4136 37.969 42.3585 37.9483V37.4143C42.4309 37.4281 42.5032 37.4384 42.5756 37.4487C42.6479 37.4591 42.7168 37.4625 42.7926 37.4625C42.9339 37.4625 43.0476 37.4418 43.1372 37.4005C43.2268 37.3592 43.306 37.304 43.3749 37.2351C43.4404 37.1662 43.499 37.0801 43.5472 36.9802C43.5954 36.8802 43.6437 36.77 43.6988 36.6494L43.9193 36.0671L41.8486 30.8955H42.5135ZM40.7116 32.694C40.6461 32.4287 40.5462 32.191 40.4084 31.9842C40.2706 31.7775 40.0948 31.6052 39.8812 31.4743C39.6676 31.3434 39.4092 31.2779 39.106 31.2779C38.7718 31.2779 38.4893 31.3434 38.2584 31.4743C38.0276 31.6052 37.8381 31.7741 37.6968 31.9842C37.5521 32.191 37.4487 32.4287 37.3867 32.694C37.3247 32.9593 37.2902 33.2246 37.2902 33.4933C37.2902 33.7621 37.3212 34.0274 37.3867 34.2927C37.4487 34.558 37.5555 34.7957 37.6968 35.0025C37.8415 35.2092 38.0276 35.3815 38.2584 35.5124C38.4893 35.6433 38.7718 35.7088 39.106 35.7088C39.4057 35.7088 39.6642 35.6433 39.8812 35.5124C40.0948 35.3815 40.2706 35.2126 40.4084 35.0025C40.5462 34.7957 40.6461 34.558 40.7116 34.2927C40.7736 34.0274 40.808 33.7621 40.808 33.4933C40.808 33.2246 40.777 32.9593 40.7116 32.694ZM37.2937 28.904V31.8809H37.3144C37.3798 31.6914 37.4763 31.5294 37.6003 31.3882C37.7244 31.2469 37.8656 31.1298 38.0276 31.0298C38.1895 30.9334 38.3618 30.861 38.5513 30.8128C38.7373 30.7645 38.9268 30.7404 39.1129 30.7404C39.5091 30.7404 39.8502 30.8128 40.1431 30.9609C40.4359 31.1091 40.6771 31.3089 40.8701 31.5604C41.063 31.812 41.2077 32.1048 41.3008 32.4356C41.3938 32.7664 41.442 33.1178 41.442 33.4865C41.442 33.8551 41.3938 34.2066 41.3008 34.5373C41.2077 34.8681 41.063 35.1609 40.8701 35.4125C40.6771 35.664 40.4325 35.8638 40.1431 36.0051C39.8502 36.1498 39.5091 36.2221 39.1129 36.2221C38.6925 36.2221 38.3135 36.1257 37.9828 35.9293C37.652 35.7363 37.4108 35.4573 37.2661 35.0955H37.2454V36.0809H36.6632V28.904H37.2937ZM28.6111 34.2927C28.6731 34.558 28.7765 34.7957 28.9109 35.0025C29.0487 35.2092 29.2244 35.3815 29.438 35.5124C29.6516 35.6433 29.9101 35.7088 30.2133 35.7088C30.5475 35.7088 30.83 35.6433 31.0608 35.5124C31.2917 35.3815 31.4812 35.2126 31.6224 35.0025C31.7672 34.7957 31.8705 34.558 31.9325 34.2927C31.9946 34.0274 32.029 33.7621 32.029 33.4933C32.029 33.2246 31.998 32.9593 31.9325 32.694C31.8705 32.4287 31.7637 32.191 31.6224 31.9842C31.4777 31.7775 31.2917 31.6052 31.0608 31.4743C30.83 31.3434 30.5475 31.2779 30.2133 31.2779C29.9135 31.2779 29.6551 31.3434 29.438 31.4743C29.2244 31.6052 29.0487 31.7741 28.9109 31.9842C28.773 32.191 28.6731 32.4287 28.6111 32.694C28.5457 32.9593 28.5146 33.2246 28.5146 33.4933C28.5146 33.7621 28.5457 34.0274 28.6111 34.2927ZM32.0807 36.0878V35.1024H32.06C31.9946 35.2712 31.8946 35.4262 31.7637 35.5641C31.6328 35.7053 31.4846 35.8259 31.3158 35.9224C31.147 36.0189 30.9713 36.0947 30.7783 36.1498C30.5888 36.2049 30.3993 36.229 30.2098 36.229C29.8136 36.229 29.4725 36.1567 29.1796 36.012C28.8867 35.8673 28.6456 35.6709 28.4526 35.4194C28.2597 35.1678 28.115 34.875 28.0219 34.5442C27.9289 34.2134 27.8807 33.862 27.8807 33.4933C27.8807 33.1247 27.9289 32.7732 28.0219 32.4425C28.115 32.1117 28.2597 31.8188 28.4526 31.5673C28.6456 31.3158 28.8902 31.116 29.1796 30.9678C29.4725 30.8197 29.8136 30.7473 30.2098 30.7473C30.4028 30.7473 30.5923 30.7714 30.7783 30.8197C30.9609 30.8679 31.1332 30.9403 31.2951 31.0367C31.4571 31.1332 31.5983 31.2538 31.7224 31.3951C31.8464 31.5363 31.9429 31.7017 32.0083 31.8878H32.029V28.9109H32.663V36.0947H32.0807V36.0878ZM23.3568 34.3719C23.4188 34.6166 23.5222 34.8371 23.6634 35.03C23.8047 35.223 23.9804 35.3849 24.1975 35.5124C24.4111 35.6399 24.6695 35.7019 24.9727 35.7019C25.4344 35.7019 25.7962 35.5813 26.058 35.3401C26.3199 35.0989 26.499 34.7751 26.599 34.3754H27.2329C27.0986 34.9646 26.8539 35.4228 26.4956 35.7432C26.1373 36.0637 25.6308 36.2256 24.9727 36.2256C24.5627 36.2256 24.2113 36.1532 23.9115 36.0085C23.6152 35.8638 23.3706 35.6674 23.1845 35.4159C22.995 35.1644 22.8572 34.8715 22.7676 34.5408C22.678 34.21 22.6332 33.8586 22.6332 33.4899C22.6332 33.1488 22.678 32.8111 22.7676 32.4838C22.8572 32.1565 22.9985 31.8602 23.1845 31.6052C23.3706 31.3468 23.6152 31.1401 23.9115 30.9816C24.2078 30.8231 24.5627 30.7439 24.9727 30.7439C25.3862 30.7439 25.741 30.8266 26.0374 30.9954C26.3302 31.1642 26.5714 31.3813 26.754 31.6535C26.9366 31.9257 27.071 32.2357 27.1502 32.5906C27.2295 32.9421 27.2639 33.3004 27.2502 33.6622H23.2638C23.2603 33.893 23.2948 34.1273 23.3568 34.3719ZM26.4887 32.4356C26.4129 32.2151 26.3027 32.0187 26.1614 31.8464C26.0201 31.6741 25.8513 31.5363 25.648 31.433C25.4482 31.3296 25.2208 31.2779 24.9658 31.2779C24.704 31.2779 24.4731 31.3296 24.2733 31.433C24.0734 31.5363 23.9012 31.6741 23.7599 31.8464C23.6186 32.0187 23.5084 32.2151 23.4222 32.439C23.3396 32.663 23.2844 32.8938 23.2569 33.1281H26.6127C26.6093 32.8869 26.568 32.6561 26.4887 32.4356ZM20.4902 30.8955V32.1117H20.5108C20.6728 31.6879 20.9208 31.364 21.2585 31.1366C21.5962 30.9092 21.9993 30.8059 22.4679 30.8231V31.4571C22.1784 31.4433 21.92 31.4812 21.6857 31.5708C21.4514 31.6604 21.2482 31.7913 21.0793 31.9601C20.9071 32.1289 20.7761 32.3253 20.6831 32.5596C20.5901 32.7905 20.5418 33.0454 20.5418 33.3176V36.0843H19.9079V30.892H20.4902V30.8955ZM18.6916 36.0878H18.0577V30.8955H18.6916V36.0878ZM18.6916 29.9204H18.0577V28.904H18.6916V29.9204ZM16.3349 32.694C16.2729 32.4287 16.1696 32.191 16.0352 31.9842C15.8974 31.7775 15.7216 31.6052 15.508 31.4743C15.2944 31.3434 15.036 31.2779 14.7328 31.2779C14.3848 31.2779 14.0919 31.3399 13.8576 31.4605C13.6234 31.5811 13.4373 31.7431 13.296 31.9429C13.1548 32.1427 13.0549 32.3805 12.9997 32.6458C12.9412 32.9145 12.9136 33.197 12.9136 33.4899C12.9136 33.7586 12.9446 34.0239 13.0101 34.2892C13.0721 34.5546 13.1789 34.7923 13.3202 34.999C13.4649 35.2057 13.6509 35.378 13.8818 35.5089C14.1126 35.6399 14.3951 35.7053 14.7293 35.7053C15.0325 35.7053 15.2875 35.6399 15.5046 35.5089C15.7182 35.378 15.8939 35.2092 16.0317 34.999C16.1695 34.7923 16.2695 34.5546 16.3315 34.2892C16.3935 34.0239 16.428 33.7586 16.428 33.4899C16.4314 33.2246 16.4004 32.9593 16.3349 32.694ZM12.8654 30.8955V31.8809H12.886C13.0342 31.5191 13.2719 31.24 13.6027 31.0402C13.9334 30.8403 14.309 30.7439 14.7328 30.7439C15.129 30.7439 15.4701 30.8162 15.763 30.9644C16.0558 31.1125 16.297 31.3124 16.49 31.5639C16.6829 31.8154 16.8276 32.1083 16.9207 32.439C17.0137 32.7698 17.0619 33.1212 17.0619 33.4899C17.0619 33.8586 17.0137 34.21 16.9207 34.5408C16.8276 34.8715 16.6829 35.1644 16.49 35.4159C16.297 35.6674 16.0524 35.8673 15.763 36.0085C15.4736 36.1498 15.129 36.2256 14.7328 36.2256C14.5467 36.2256 14.3572 36.2015 14.1712 36.1567C13.9851 36.1084 13.8094 36.0395 13.6475 35.9465C13.4855 35.8535 13.3443 35.7363 13.2202 35.5951C13.0962 35.4538 12.9997 35.2884 12.9343 35.1024H12.9136V38H12.2796V30.8955H12.8654ZM10.4363 31.9084C10.3639 31.7637 10.264 31.6466 10.14 31.5501C10.016 31.4571 9.87469 31.3882 9.71275 31.3434C9.55082 31.2986 9.38199 31.2779 9.19938 31.2779C9.05812 31.2779 8.91685 31.2917 8.77215 31.3227C8.62744 31.3537 8.49651 31.4019 8.37592 31.4743C8.25533 31.5467 8.15885 31.6362 8.08305 31.7499C8.0107 31.8636 7.9728 32.0049 7.9728 32.1737C7.9728 32.315 8.00725 32.4321 8.07961 32.5321C8.15196 32.632 8.2381 32.7112 8.34491 32.7801C8.45172 32.8456 8.56886 32.9042 8.69634 32.9455C8.82383 32.9903 8.94097 33.0248 9.04778 33.0523L9.89192 33.2418C10.0711 33.2694 10.2502 33.3176 10.4294 33.3865C10.6086 33.4554 10.7636 33.5485 10.9014 33.6622C11.0393 33.7759 11.1495 33.9171 11.2391 34.086C11.3252 34.2548 11.37 34.4512 11.37 34.6786C11.37 34.9611 11.308 35.1989 11.1805 35.3987C11.053 35.5985 10.8911 35.757 10.6947 35.8811C10.4983 36.0051 10.2744 36.0947 10.0263 36.1463C9.77822 36.2015 9.53359 36.2256 9.29241 36.2256C8.68256 36.2256 8.18986 36.0809 7.81086 35.7915C7.43186 35.502 7.2148 35.0404 7.16312 34.4029H7.79708C7.82464 34.8336 7.97969 35.1575 8.26566 35.3746C8.55163 35.5916 8.90307 35.7019 9.32686 35.7019C9.48191 35.7019 9.6404 35.6847 9.80234 35.6502C9.96772 35.6157 10.1193 35.5606 10.2606 35.4779C10.4018 35.3987 10.5155 35.2953 10.6086 35.1713C10.6982 35.0473 10.7429 34.8956 10.7429 34.713C10.7429 34.558 10.7119 34.4305 10.6465 34.3271C10.5845 34.2238 10.4983 34.1376 10.3915 34.0653C10.2847 33.9929 10.1607 33.9378 10.0263 33.8896C9.88847 33.8413 9.75065 33.8034 9.60939 33.769L8.79626 33.5898C8.58953 33.5347 8.39659 33.4727 8.22432 33.4038C8.0486 33.3314 7.897 33.2453 7.76607 33.1419C7.63514 33.0385 7.53178 32.9111 7.45942 32.7595C7.38707 32.6079 7.34917 32.4218 7.34917 32.2013C7.34917 31.9394 7.40774 31.7155 7.52489 31.526C7.64204 31.3365 7.79364 31.1883 7.98314 31.0746C8.17264 30.9609 8.37936 30.8782 8.61021 30.8231C8.84105 30.7714 9.0719 30.7439 9.2993 30.7439C9.56116 30.7439 9.80234 30.7783 10.0263 30.8438C10.2502 30.9127 10.4466 31.0161 10.6189 31.1573C10.7912 31.2986 10.9256 31.4743 11.0255 31.681C11.1254 31.8878 11.184 32.1324 11.1977 32.4149H10.5638C10.55 32.222 10.5087 32.0531 10.4363 31.9084ZM2.68057 30.8955V31.7913H2.70124C2.82183 31.4778 3.03545 31.2228 3.34554 31.0333C3.65219 30.8438 3.98985 30.7473 4.35851 30.7473C4.72028 30.7473 5.02348 30.7955 5.26811 30.8886C5.51274 30.9816 5.70913 31.116 5.85728 31.2848C6.00544 31.4571 6.1088 31.6672 6.16738 31.9119C6.22595 32.1599 6.25696 32.439 6.25696 32.7457V36.0878H5.62299V32.849C5.62299 32.6285 5.60232 32.4218 5.56442 32.2289C5.52308 32.0394 5.45417 31.874 5.35425 31.7327C5.25433 31.5914 5.11995 31.4812 4.94768 31.402C4.77541 31.3227 4.56524 31.2814 4.31027 31.2814C4.05531 31.2814 3.82791 31.3261 3.63152 31.4192C3.43513 31.5088 3.2663 31.6328 3.12848 31.7913C2.99066 31.9498 2.88385 32.1358 2.80805 32.3563C2.73225 32.5734 2.69091 32.8111 2.68402 33.0661V36.0947H2.05005V30.9024H2.68057V30.8955ZM0.6822 36.0878H0V28.904H0.6822V36.0878Z" fill="black"/>
						<path d="M104.646 23.1294C102.751 23.1294 100.959 21.734 100.959 19.7219V5.50243C100.959 3.48684 102.751 2.09487 104.646 2.09487C106.541 2.09487 108.336 3.48339 108.336 5.50243V19.7219C108.332 21.734 106.541 23.1294 104.646 23.1294ZM104.646 0.0344849C99.6703 0.0344849 94.1816 3.31112 94.1816 8.9031V16.3143C94.1816 21.9132 99.6703 25.1829 104.646 25.1829C109.624 25.1829 115.113 21.9097 115.113 16.3143V8.9031C115.113 3.30767 109.621 0.0344849 104.646 0.0344849Z" fill="black"/>
						<path d="M79.6143 23.126C77.7193 23.126 75.9242 21.734 75.9242 19.7184V5.49899C75.9242 3.4834 77.7158 2.09143 79.6143 2.09143C81.5093 2.09143 83.3009 3.47995 83.3009 5.49899C83.3009 7.51114 81.5093 8.9031 79.6143 8.9031V12.607C81.5093 12.607 83.3009 14.0024 83.3009 16.0145V19.7184C83.3009 21.734 81.5093 23.126 79.6143 23.126ZM79.6143 0.0344849C74.639 0.0344849 69.147 3.31112 69.147 8.9031V16.3143C69.147 21.9132 74.639 25.1829 79.6143 25.1829C84.593 25.1829 90.085 21.9097 90.085 16.3143C90.085 12.5312 88.4967 10.6465 85.3682 8.9031C88.3313 7.87635 88.8826 3.90719 86.3226 2.09487C84.2209 0.613326 82.1501 0.0344849 79.6143 0.0344849Z" fill="black"/>
						<path d="M25.0312 0.0344849V8.9031V16.3143C25.0312 22.0889 30.0961 25.2208 35.3091 25.2208C37.7416 25.2208 40.2051 24.5386 42.2034 23.126H35.4986C33.607 23.126 31.8085 21.734 31.8085 19.7184V8.89966C31.8085 4.74788 29.028 1.10947 25.0312 0.0344849Z" fill="black"/>
						<path d="M10.2744 0C5.06138 0 0 3.12848 0 8.90307V16.3143C0 21.9131 5.48862 25.1829 10.4673 25.1829C15.4426 25.1829 20.9381 21.9097 20.9381 16.3143V8.90307H10.4708V12.6069H14.1574V19.7184C14.1574 21.7305 12.3658 23.1259 10.4673 23.1259C8.57231 23.1259 6.78067 21.734 6.78067 19.7184V5.49896C6.78067 3.48337 8.57231 2.0914 10.4673 2.0914H17.1722C15.1738 0.682204 12.7103 0 10.2744 0Z" fill="black"/>
						<path d="M54.5796 23.1294C52.688 23.1294 50.8929 21.734 50.8929 19.7219V5.50243C50.8929 3.48684 52.6846 2.09487 54.5796 2.09487C56.4746 2.09487 58.2697 3.48339 58.2697 5.50243V19.7219C58.2697 21.734 56.478 23.1294 54.5796 23.1294ZM54.5796 0.0344849C49.6043 0.0344849 44.1157 3.31112 44.1157 8.9031V16.3143C44.1157 21.9132 49.6043 25.1829 54.5796 25.1829C59.5548 25.1829 65.0469 21.9097 65.0469 16.3143V8.9031C65.0469 3.30767 59.5583 0.0344849 54.5796 0.0344849Z" fill="black"/>
					</svg>