<?xml version="1.0" encoding="utf-8"?>
<!-- Generator: Adobe Illustrator 18.1.1, SVG Export Plug-In . SVG Version: 6.00 Build 0)  -->
<svg version="1.1" id="Capa_1" xmlns="http://www.w3.org/2000/svg" xmlns:xlink="http://www.w3.org/1999/xlink" x="0px" y="0px"
	 viewBox="0 0 211.3 59.3" enable-background="new 0 0 211.3 59.3" xml:space="preserve">
<rect x="345" y="-259.3" fill="#EBC4C6" stroke="#EBC4C6" stroke-miterlimit="10" width="418.4" height="595.3"/>
<g>
	<g id="XMLID_667_">
		<path id="XMLID_681_" fill="#BDBBBB" d="M20.2,4c-1-1-2.1-1.8-3.4-2.3c-1.3-0.5-2.6-0.7-3.8-0.7c-1.3,0-2.4,0.2-3.4,0.6
			C8.6,1.9,7.7,2.3,7,2.9C6.3,3.5,5.8,4.1,5.3,4.7c-0.4,0.6-0.7,1.1-1,1.6c0-0.8,0-1.5,0.1-2.3c0.1-0.8,0.2-1.7,0.3-2.5l0-0.1
			l-0.1,0C3.7,1.6,3,1.7,2.4,1.7C1.8,1.7,1,1.6,0.1,1.4L0,1.4l0,0.1c0.1,0.9,0.1,1.9,0.2,3.1c0,1.2,0.1,2.4,0.1,3.8
			c0,1.4,0.1,2.7,0.1,4c0,1.4,0,2.6,0,3.8v8.2c0,1,0,2.2,0,3.6c0,1.3,0,2.7-0.1,4c0,1.4-0.1,2.6-0.1,3.8C0.1,37.1,0.1,38.2,0,39
			l0,0.1l0.1,0C1,39,1.8,38.9,2.4,38.9c0.6,0,1.3,0.1,2.3,0.3l0.1,0l0-0.1c-0.1-0.8-0.1-1.8-0.2-3.1c-0.1-1.2-0.1-2.5-0.1-3.8
			c0-1.3-0.1-2.7-0.1-4c0-1.3,0-2.5,0-3.6v-3c1.6,3.2,4.3,4.8,8,4.8c1.3,0,2.7-0.2,4-0.7c1.3-0.5,2.5-1.3,3.6-2.3
			c1-1.1,1.9-2.4,2.5-4c0.6-1.6,1-3.5,1-5.7c0-2.2-0.3-4.1-0.9-5.6C21.9,6.3,21.1,5,20.2,4z M18.8,13.5c0,1.5-0.1,3-0.4,4.3
			c-0.3,1.3-0.7,2.5-1.3,3.5c-0.6,1-1.3,1.8-2.2,2.3c-0.9,0.5-1.9,0.8-3.1,0.8c-4.9,0-7.3-3.5-7.3-10.5c0-1.4,0.1-2.8,0.4-4.1
			C5,8.5,5.5,7.3,6.1,6.4c0.6-0.9,1.4-1.7,2.3-2.3c0.9-0.6,2.1-0.9,3.4-0.9c0.8,0,1.6,0.2,2.5,0.5c0.8,0.3,1.6,0.8,2.2,1.6
			c0.7,0.8,1.2,1.8,1.6,3.1C18.6,9.8,18.8,11.5,18.8,13.5z"/>
		<path id="XMLID_680_" fill="#BDBBBB" d="M39.2,1c-0.2,0-0.5-0.1-0.8-0.1c-2.5,0-4.7,1.8-6.7,5.4c0-0.6,0-1.3,0-1.9
			c0-0.7,0.1-1.7,0.2-2.9l0-0.1l-0.1,0c-0.4,0.1-0.7,0.1-1.1,0.2c-0.7,0.1-1.4,0.1-2,0c-0.4-0.1-0.7-0.1-1.1-0.2l-0.1,0l0,0.1
			c0.1,2.2,0.2,4.2,0.2,5.9c0,1.7,0,3.2,0,4.6v1.6c0,2.9,0,5.3,0,7.3c0,2-0.1,3.6-0.2,4.7l0,0.1l0.1,0c1.3-0.1,2.7-0.1,4.2,0l0.1,0
			l0-0.1c-0.1-0.7-0.2-1.7-0.2-2.9c0-1.2,0-2.9,0-5.2v-5.6c0-1,0.1-1.9,0.4-2.7c0.2-0.8,0.6-1.6,1-2.2c0.4-0.6,1-1.1,1.6-1.5
			C35.3,5.1,36,5,36.8,5c0.5,0,1,0.1,1.5,0.2c0.5,0.2,0.8,0.3,1,0.5l0.1,0.1l0.5-0.3v0c0-0.7,0-1.4,0.1-2.3c0-0.8,0.1-1.4,0.3-1.8
			l0-0.1l-0.1,0C39.7,1.1,39.4,1,39.2,1z"/>
		<path id="XMLID_679_" fill="#BDBBBB" d="M48.1,6.2c0.1-1.7,0.2-3.2,0.3-4.7l0-0.1l-0.1,0c-0.9,0.2-1.7,0.3-2.3,0.3
			c-0.6,0-1.3-0.1-2.3-0.3l-0.1,0l0,0.1C43.9,3,44,4.6,44,6.2c0.1,1.7,0.1,3.3,0.1,4.8v5.3c0,1.5,0,3.1-0.1,4.8
			c-0.1,1.7-0.2,3.2-0.3,4.5l0,0.1l0.1,0c0.8-0.1,1.5-0.1,2.3-0.1c0.7,0,1.5,0,2.3,0.1l0.1,0l0-0.1c-0.2-1.3-0.3-2.9-0.3-4.5
			c-0.1-1.7-0.1-3.3-0.1-4.8V11C48,9.5,48.1,7.9,48.1,6.2z"/>
		<path id="XMLID_678_" fill="#BDBBBB" d="M119,2.8c-0.7-0.6-1.5-1.1-2.5-1.4c-1-0.3-2-0.5-3.1-0.5c-1.8,0-3.5,0.4-4.9,1.3
			c-1.4,0.9-2.5,2.1-3.3,3.7c-0.2-0.7-0.5-1.3-1-2c-0.5-0.6-1.1-1.2-1.7-1.6c-0.7-0.4-1.4-0.8-2.2-1.1c-0.8-0.3-1.7-0.4-2.5-0.4
			c-3.2,0-5.8,1.5-7.6,4.5c0-1.3,0.1-2.6,0.2-3.9l0-0.1l-0.3,0c-0.4,0.1-0.7,0.1-1,0.2c-0.3,0-0.6,0.1-0.9,0.1
			c-0.6,0-1.3-0.1-2.3-0.3l-0.1,0l0,0.1c0.2,1.5,0.3,3,0.3,4.7c0.1,1.7,0.1,3.3,0.1,4.8v5.3c0,1.5,0,3.2-0.1,4.8
			c-0.1,1.7-0.2,3.2-0.3,4.5l0,0.1l0.1,0c0.8-0.1,1.5-0.1,2.3-0.1c0.7,0,1.5,0,2.3,0.1l0.1,0l0-0.1c-0.2-1.3-0.3-2.9-0.3-4.5
			c-0.1-1.7-0.1-3.3-0.1-4.8V12c0-2.6,0.5-4.7,1.6-6.1c1-1.4,2.7-2.2,4.8-2.2c0.8,0,1.6,0.2,2.4,0.7c0.8,0.4,1.4,1,1.7,1.6
			c0.2,0.4,0.4,0.8,0.5,1.1c0.1,0.3,0.2,0.8,0.3,1.3c0.1,0.5,0.1,1.2,0.1,2.1c0,0.9,0,2.1,0,3.7c0,1.9,0,3.8-0.1,5.7
			c-0.1,1.9-0.2,3.8-0.3,5.7l0,0.1l0.1,0c0.8-0.1,1.5-0.1,2.2-0.1c0.7,0,1.4,0,2.2,0.1l0.1,0l0-0.1c-0.1-1.4-0.1-2.7-0.2-3.9
			c-0.1-1.2-0.1-2.5-0.1-4c0-2.4,0-4.3,0.1-5.7c0-1.4,0.1-2.4,0.2-3.2c0.1-0.8,0.2-1.3,0.4-1.7c0.1-0.4,0.4-0.7,0.6-1.1
			c0.5-0.6,1.1-1.2,2-1.7c0.8-0.5,1.9-0.7,3.1-0.7c1,0,1.9,0.2,2.5,0.5c0.7,0.3,1.2,0.7,1.6,1.3c0.4,0.5,0.7,1.2,0.9,1.9
			c0.2,0.7,0.3,1.5,0.3,2.4c0,4.6-0.1,8.2-0.2,10.8c-0.1,2.6-0.2,4.3-0.3,5.1l0,0.1l0.1,0c0.4-0.1,0.7-0.1,1.1-0.1h2.2
			c0.4,0,0.7,0,1.1,0.1l0.1,0l0-0.1c-0.1-1-0.1-1.9-0.1-2.7c0-0.8,0-1.7,0-2.6c0-1.5,0-2.8,0.1-3.9c0-1.1,0.1-2.2,0.1-3
			c0-0.9,0.1-1.7,0.1-2.4c0-0.7,0.1-1.3,0.1-1.9c0-1.4-0.2-2.7-0.6-3.7C120.3,4.3,119.7,3.5,119,2.8z"/>
		<path id="XMLID_675_" fill="#BDBBBB" d="M146.1,24c-0.2,0-0.4,0-0.5,0c-0.5,0-0.8-0.1-1.1-0.3c-0.2-0.2-0.4-0.5-0.6-0.9
			c-0.1-0.3-0.2-0.7-0.2-1.2c0-0.4,0-0.9,0-1.3c0-2.1,0-4.2,0.1-6.1c0.1-1.9,0.1-3.8,0.1-5.8c0-1.1-0.2-2.2-0.6-3.1
			c-0.4-0.9-1-1.8-1.7-2.4s-1.6-1.2-2.6-1.5c-1-0.4-2.2-0.5-3.4-0.5c-1.4,0-2.7,0.2-4,0.6c-1.3,0.4-2.7,1.2-4.2,2.4l0,0v2.8h0.7l0,0
			c0.6-1.1,1.4-1.9,2.6-2.5c1.2-0.6,2.4-0.9,3.7-0.9c1,0,1.9,0.2,2.6,0.5c0.7,0.3,1.3,0.8,1.7,1.4c0.4,0.6,0.8,1.2,1,2
			c0.2,0.8,0.3,1.6,0.3,2.4c0,0.5-0.1,0.9-0.1,1.2c-0.1,0.3-0.4,0.6-0.8,0.8c-0.5,0.2-1.2,0.5-2.3,0.7c-1,0.2-2.4,0.5-4.3,0.8
			c-2.2,0.4-4,1.1-5.3,2.3c-1.3,1.1-1.9,2.7-1.9,4.8c0,1,0.2,1.9,0.6,2.7c0.4,0.8,0.9,1.4,1.5,2c0.6,0.5,1.4,0.9,2.2,1.2
			c0.8,0.2,1.7,0.4,2.5,0.4c1.7,0,3.2-0.3,4.4-0.9c1.1-0.6,2.3-1.4,3.5-2.6c0.1,0.8,0.5,1.5,1,2c0.6,0.6,1.5,0.9,2.6,0.9
			c0.7,0,1.3-0.1,1.9-0.2c0.6-0.1,1-0.2,1.4-0.4l0,0v-1.3l-0.1,0.1C146.4,24,146.2,24,146.1,24z M139.8,13.1l-0.2,7.5
			c-0.6,0.9-1.4,1.7-2.4,2.4c-1,0.7-2.2,1.1-3.5,1.1c-1.1,0-2.1-0.4-3-1.2c-0.9-0.8-1.3-2-1.3-3.5c0-0.9,0.2-1.7,0.5-2.3
			c0.3-0.6,0.8-1.1,1.4-1.5c0.6-0.4,1.3-0.7,2-1c0.8-0.2,1.5-0.4,2.3-0.6c0.7-0.1,1.5-0.3,2.3-0.4C138.6,13.5,139.2,13.3,139.8,13.1
			z"/>
		<path id="XMLID_674_" fill="#BDBBBB" d="M155.2,5.8c0.7-1,1.6-1.7,2.7-2.3c1.1-0.6,2.4-0.8,3.9-0.8c0.8,0,1.5,0.1,2.2,0.4
			c0.7,0.2,1.3,0.6,1.8,1c0.6,0.4,1,0.8,1.4,1.3c0.4,0.4,0.7,0.9,1,1.3l0,0h0.5l0-0.1c0.1-0.6,0.3-1.2,0.5-1.7
			c0.2-0.6,0.4-1.1,0.6-1.6l0-0.1l0,0c-0.7-0.6-1.7-1.1-3.2-1.6c-1.5-0.5-3.2-0.7-5-0.7c-1.6,0-3.2,0.2-4.8,0.7
			c-1.6,0.5-3,1.3-4.2,2.3c-1.2,1-2.2,2.4-2.9,4c-0.7,1.6-1.1,3.5-1.1,5.7c0,2.3,0.4,4.3,1.1,5.9c0.7,1.6,1.7,2.9,2.9,3.9
			c1.2,1,2.5,1.7,4,2.2c1.5,0.4,3,0.6,4.4,0.6c1.6,0,3.2-0.3,4.7-0.9c1.5-0.6,2.8-1.3,3.8-2.1l0,0l0,0c0-0.8,0.1-1.7,0.3-2.5l0-0.1
			l-0.4-0.2l0,0.1c-0.4,0.5-1,1-1.5,1.4c-0.6,0.4-1.2,0.8-1.9,1.1c-0.7,0.3-1.4,0.6-2.1,0.8c-0.7,0.2-1.4,0.3-2.1,0.3
			c-2.8,0-5-0.9-6.5-2.6c-1.5-1.8-2.2-4.4-2.2-7.9c0-1.5,0.2-3,0.5-4.3C154,8,154.5,6.8,155.2,5.8z"/>
		<path id="XMLID_671_" fill="#BDBBBB" d="M191.8,4c-0.9-0.9-2-1.7-3.3-2.3c-1.3-0.6-2.9-0.8-4.7-0.8c-3.8,0-6.7,1.2-8.7,3.6
			c-2,2.4-3,5.7-3,9.9c0,1.7,0.3,3.3,0.9,4.8c0.6,1.5,1.5,2.7,2.6,3.8c1.1,1.1,2.4,1.9,3.9,2.5c1.5,0.6,3.2,0.8,5,0.8
			c1.6,0,3.2-0.3,4.7-0.9c1.5-0.6,2.8-1.3,3.8-2.1l0,0l0.3-2.6l-0.4-0.2l0,0.1c-0.4,0.5-1,1-1.5,1.4c-0.6,0.4-1.2,0.8-1.9,1.1
			c-0.7,0.3-1.4,0.6-2.1,0.8c-0.7,0.2-1.4,0.3-2.1,0.3c-1.4,0-2.7-0.2-3.7-0.7c-1.1-0.5-2-1.1-2.7-2c-0.7-0.8-1.3-1.8-1.7-2.9
			c-0.4-1.1-0.6-2.4-0.6-3.7v-0.7c0-0.3,0-0.5,0-0.7c1.1,0,2.2-0.1,3.3-0.1c1.1,0,2.2-0.1,3.3-0.1c1.8,0,3.6,0,5.4,0.1
			c1.8,0,3.6,0.1,5.4,0.1l0.1,0l0-0.1c0-0.3,0.1-0.6,0.1-1c0-0.3,0-0.7,0-1c0-1.4-0.2-2.8-0.6-4C193.4,6.1,192.7,5,191.8,4z
			 M177.4,8.5c0.3-1,0.7-2,1.3-2.8c0.5-0.8,1.3-1.6,2.1-2.1c0.8-0.6,1.9-0.8,3.1-0.8c1.3,0,2.4,0.3,3.2,0.8c0.8,0.6,1.4,1.3,1.9,2.2
			c0.5,0.9,0.8,1.8,0.9,2.8c0.1,1,0.2,1.9,0.2,2.8c-1.1,0-2.1,0.1-3.3,0.1c-1.1,0-2.3,0.1-3.4,0.1c-1.1,0-2.2,0-3.3-0.1
			c-1.1,0-2.2-0.1-3.2-0.1C177,10.5,177.2,9.5,177.4,8.5z"/>
		<path id="XMLID_670_" fill="#BDBBBB" d="M211.2,1.2c-0.4-0.1-0.6-0.2-0.9-0.3c-0.2,0-0.5-0.1-0.8-0.1c-2.5,0-4.7,1.8-6.7,5.4
			c0-0.6,0-1.3,0-1.9c0-0.7,0.1-1.7,0.2-2.9l0-0.1l-0.1,0c-0.4,0.1-0.7,0.1-1.1,0.2c-0.7,0.1-1.4,0.1-2,0c-0.4-0.1-0.7-0.1-1.1-0.2
			l-0.1,0l0,0.1c0.1,2.2,0.2,4.2,0.2,5.9c0,1.7,0,3.2,0,4.6v1.6c0,2.9,0,5.3,0,7.3c0,2-0.1,3.6-0.2,4.7l0,0.1l0.1,0
			c1.3-0.1,2.7-0.1,4.2,0l0.1,0l0-0.1c-0.1-0.7-0.2-1.7-0.2-2.9c0-1.2,0-2.9,0-5.2v-5.6c0-1,0.1-1.9,0.4-2.7c0.2-0.8,0.6-1.6,1-2.2
			c0.4-0.6,1-1.1,1.6-1.5c0.6-0.4,1.3-0.5,2.1-0.5c0.5,0,1,0.1,1.5,0.2c0.5,0.2,0.8,0.3,1,0.5l0.1,0.1l0.5-0.3v0
			c0-0.7,0-1.4,0.1-2.3c0-0.8,0.1-1.4,0.3-1.8L211.2,1.2L211.2,1.2z"/>
		<path id="XMLID_669_" fill="#55565A" d="M67.5,14.8c-1.2-1.5-5.7-4.2-9.4-6.4l-0.4-0.2C55.8,7.1,54.2,6,54.2,6L54,5.8L54,6.1
			c-1.1,4.1,2.5,6.5,2.6,6.5c0,0,3.8,2.4,5.9,3.7c0.8,0.5,1.4,1.1,1.7,1.8c0.2,0.4,0.5,1,0.5,1.8c0,0.7-0.1,1.3-0.4,1.9
			c-0.3,0.6-0.6,1-1,1.4c-0.4,0.4-1,0.6-1.5,0.8c-1.2,0.4-2.6,0.4-3.7,0c-0.6-0.2-1.2-0.5-1.6-0.9c-0.5-0.3-0.9-0.7-1.2-1.1
			c-0.3-0.4-0.6-0.8-0.8-1.1l0-0.1h-0.9v0.2c0,0.5-0.1,1.1-0.3,1.9c-0.2,0.8-0.4,1.4-0.6,1.8l-0.1,0.1l0.1,0.1
			c0.7,0.4,1.6,0.8,2.7,1.1c1.1,0.3,2.4,0.5,4,0.5c1.4,0,2.7-0.2,3.9-0.6c1.1-0.4,2.1-1,2.9-1.8c0.8-0.8,1.4-1.7,1.8-2.7
			C69.3,17.4,67.8,15.2,67.5,14.8L67.5,14.8z"/>
		<path id="XMLID_668_" fill="#55565A" d="M81.9,1.5c-0.7-0.4-1.6-0.8-2.7-1.1c-1.1-0.3-2.4-0.5-4-0.5c-1.4,0-2.7,0.2-3.9,0.6
			c-1.1,0.4-2.1,1-2.9,1.8c-0.8,0.8-1.4,1.7-1.8,2.7c-1.5,3.8-0.1,6,0.3,6.4v0c1.2,1.5,5.7,4.2,9.4,6.4l0.4,0.2
			c1.9,1.1,3.5,2.2,3.5,2.2l0.2,0.1l0.1-0.2c1.1-4.1-2.5-6.5-2.6-6.5c0,0-3.8-2.4-5.9-3.7c-0.8-0.5-1.4-1.1-1.7-1.8
			c-0.2-0.4-0.5-1-0.5-1.8c0-0.7,0.1-1.3,0.4-1.9c0.3-0.6,0.6-1,1-1.4c0.4-0.4,1-0.6,1.5-0.8c1.2-0.4,2.6-0.4,3.7,0
			c0.6,0.2,1.2,0.5,1.6,0.9C78.6,3.6,79,4,79.4,4.4c0.3,0.4,0.6,0.8,0.8,1.1l0,0.1H81V5.4c0-0.5,0.1-1.1,0.3-1.9
			c0.2-0.8,0.4-1.4,0.6-1.8l0.1-0.1L81.9,1.5z"/>
	</g>
	<g>
		<path fill="#EBC4C6" d="M160,55.8c0.7,1.3,2,1.9,3.4,1.4c1.1-0.4,2-1.1,2.7-2c1.9-2.3,2.8-5,3.2-7.9c0.1-0.7-0.2-1.3-0.9-1.6
			c-2.1-0.9-3.3-1-4.8,0.5c-0.1,0.1-0.3,0.3-0.4,0.4c-1.1,1.3-2.1,2.8-2.9,4.3c-0.4,0.9-0.8,1.8-0.8,2.9
			C159.5,54.5,159.7,55.1,160,55.8 M41.6,46c-0.5,1.5-0.2,2.9,0.8,4.1c0.5,0.5,1.1,0.9,1.5,1.5c0.4,0.6,0.7,0.7,1.4,0.3
			c0.8-0.4,1.4-1,2.1-1.5c1.1-0.9,1.8-2.1,2-3.5c0.1-0.5,0.2-1,0.3-1.5c0.1-0.4-0.1-0.7-0.4-1c-1.1-0.7-2.3-1.1-3.5-1.1
			C43.8,43.3,42.2,44.4,41.6,46 M74.8,54.8c0.4,1.9,1.9,2.8,3.8,2.3c1-0.3,1.8-0.9,2.6-1.5c2-1.8,3.3-4.1,4.4-6.5
			c0.4-0.9,0.7-1.8,0.9-2.8c0.1-0.6,0-1.2-0.5-1.5c-1.6-1.1-3.4-1.3-5.1-0.3c-0.5,0.3-1,0.7-1.5,1c-3.1,1.8-4.3,4.6-4.7,8
			C74.6,53.9,74.7,54.4,74.8,54.8 M168.7,55.5c-0.9,1.5-2.1,2.6-3.6,3.2c-2.3,1-4.7,0.3-6.1-1.7c-1.2-1.8-1.8-3.8-1.1-6
			c0.3-1,0.9-1.9,1.6-2.7c0.6-0.7,1.2-1.4,1.6-2.2c0.1-0.2,0.4-0.6,0.2-0.8c-0.2-0.2-0.5,0.1-0.7,0.3c-0.3,0.2-0.6,0.4-0.9,0.6
			c-1.1,0.7-1.8,1.6-2.3,2.8c-0.6,1.4-1.1,2.9-1.7,4.3c-0.8,2.1-2.3,3.6-4.1,4.8c-2.1,1.4-4.4,1.4-6.6,0.3c-1.9-0.9-3.4-2.4-4.6-4.2
			c-0.2-0.4-0.2-0.4-0.6-0.7c-0.3,0.9-0.8,1.7-1.2,2.6c-1.2,2.2-3.3,3.3-5.7,2.9c-2.3-0.3-4.1-2.1-4.6-4.5c-0.1-0.7-0.3-1.4-0.4-2.1
			c0-0.2,0-0.3-0.2-0.5c-0.4,0.5-0.8,1-1.1,1.5c-0.4,0.7-0.9,1.4-1.3,2.1c-0.7,1.2-1.7,2.1-2.9,2.9c-2.7,1.7-5.7,0.2-6.2-3
			c-0.3-2,0.1-3.8,0.3-5.7c0.1-1.2,0.2-2.5,0-3.7c0-0.2-0.1-0.4-0.2-0.6c-0.3-0.7-0.8-0.9-1.5-0.6c-0.7,0.3-1.3,0.9-1.8,1.5
			c-0.3,0.4-0.6,0.9-0.9,1.3c-0.2,0.3-0.5,0.6-0.9,0.8c-0.2,0.1-0.3,0.2-0.5,0.1c-0.2-0.1-0.2-0.3-0.2-0.5c0-0.1,0-0.3,0.1-0.4
			c0.1-0.4,0.1-0.8,0.1-1.2c-0.1-1.2-0.7-2.1-1.6-2.2c-1.1-0.2-2.4,0.4-2.9,1.4c-0.2,0.4-0.3,0.8-0.4,1.2c-0.3,2.1-1,4.1-1.4,6.2
			c-0.4,1.7-0.8,3.5-0.8,5.3c0,0.6-0.4,0.8-0.8,0.9c-0.5,0.1-0.8-0.1-1.1-0.5c-0.3-0.5-0.3-1.1-0.3-1.7c0-1.6,0.2-3.2,0.5-4.8
			c0.2-1.8,0.6-3.6,0.6-5.4c0-0.6-0.1-1.2-0.4-1.8c-0.2-0.3-0.3-0.4-0.6-0.1c-0.6,0.5-1.3,1-2,1.5c-0.8,0.6-1.2,1.5-1.5,2.3
			c-0.5,1.3-0.7,2.7-0.9,4.1c-0.2,1.1-0.4,2.2-0.7,3.2c-0.9,2.8-3.4,3.9-6.1,2.8c-1.7-0.7-2.9-1.9-3.5-3.7c-0.2-0.8-0.6-1.6-0.7-2.4
			c-0.3,0.5-0.7,0.9-1,1.4c-0.8,1.1-1.6,2.1-2.5,3c-1.2,1.2-2.7,1.8-4.3,2c-2.9,0.2-5.1-1.8-5.4-4.9c-0.1-1.3,0.1-2.5,0.3-3.8
			c0.1-0.4,0.2-0.8,0.1-1.2c-0.1-0.4-0.6-0.2-1-0.3c-1.1-0.5-2.3-0.7-3.4-1c-0.3-0.1-0.6-0.2-0.9-0.4c-1-0.6-0.9-2,0.1-2.6
			c0.1-0.1,0.3-0.1,0.3-0.3c0-0.2-0.2-0.2-0.4-0.2c-1.6,0.1-3,0.5-4.3,1.5c-1.4,1-2,2.3-1.9,4c0,0.7,0.1,1.4,0.3,2
			c0.3,1.5,0.8,3.1,0.9,4.7c0,0.4,0,0.9,0,1.3c0,0.2,0.1,0.5-0.2,0.6c-0.3,0.1-0.5,0.1-0.8-0.1c-0.4-0.3-0.6-0.7-0.8-1.1
			c-0.4-0.9-0.7-1.9-1-2.8c-0.2-0.5-0.4-1.1-0.6-1.6c-0.1-0.3-0.3-0.7-0.6-1c-0.2-0.3-0.5-0.7-0.9-0.7c-0.3,0.1-0.2,0.6-0.3,1
			c-0.5,2-1,4-2.4,5.6c-1.2,1.4-3.1,1.8-5,1.1c-1.2-0.5-2.1-1.2-3-2c-0.9-0.8-1.7-1.6-2.6-2.3c-0.2-0.2-0.4-0.2-0.7,0
			c-1,0.6-1.9,1.2-2.8,2c-1.1,0.9-2.3,1.7-3.7,2.2c-1.5,0.7-3.2,0.5-4.7,0.1c-3.7-1.1-6.1-3.4-7-7.2c-0.3-1.5,0-3,0.3-4.4
			c0.2-1.2,0.6-2.3,1.3-3.4c0.4-0.6,1-1.1,1.7-1.5c1.7-0.9,3.5-1.3,5.4-1.2c0.4,0,0.9,0.1,1.3,0.3c1,0.4,1.6,1.2,1.6,2.3
			c0,0.2,0.1,0.4-0.1,0.4c-0.2,0.1-0.4-0.1-0.5-0.2c-0.5-0.8-1.3-1.1-2.2-1.2c-2.6-0.2-5.4,1.5-6.3,3.9c-0.5,1.4-0.8,2.9-0.7,4.4
			c0.1,3.1,2.1,4.8,4.7,6c1.1,0.5,2.3,0.8,3.5,0.3c1.5-0.6,2.9-1.2,4-2.4c0.8-0.7,1.4-1.6,2.4-2.1c0.2-0.1,0.2-0.2,0-0.4
			c-0.5-0.7-1-1.5-1.5-2.2c-0.7-1.2-1.3-2.4-1.4-3.8c-0.1-2.5,1.3-4.3,3.7-4.9c1.5-0.4,3.1-0.3,4.6,0.1c2.5,0.7,3.8,2.9,3.4,5.5
			c-0.5,2.8-1.9,4.8-4.8,6.4c0.9,1,1.7,2.1,2.7,2.9c1,0.7,2,0.9,3.1,0.7c1-0.2,1.7-0.9,2.2-1.7c0.9-1.5,1.5-3.2,1.6-5
			c0-1.5-0.2-3,0.3-4.5c0.1-0.2,0-0.4,0-0.6c0-0.3,0.1-0.6,0.4-0.7c0.3-0.1,0.4,0.1,0.6,0.2c0.8,0.7,1.4,1.6,2,2.6
			c0.1-0.2,0.2-0.4,0.3-0.5c1.1-2.5,3.1-3.8,5.6-4.6c1.1-0.4,2.3-0.6,3.5-0.4c1.8,0.3,2.9,1.3,3.4,3c0,0.1,0.1,0.2,0.1,0.3
			c0.3,0.8,1.1,1.1,1.7,0.5c1-0.8,2-1.7,3.1-2.3c2-1.1,4.2-1.9,6.6-1.5c1.7,0.2,3.2,0.9,4.4,2c0.2,0.2,0.4,0.5,0.4,0.8
			c0.2,2.1,0.1,4.1,0.3,6.2c0.1,1.3,0.2,2.6,0.3,3.9c0.1,1,0.9,1.9,1.8,2.1c1,0.3,1.8-0.1,2.5-0.9c0.6-0.7,1-1.6,1.2-2.6
			c0.4-1.7,0.7-3.3,1-5c0.4-2,1.5-3.7,2.9-5.2c0.3-0.3,0.6-0.6,0.9-0.8c1-0.6,2-0.7,2.9,0c0.4,0.3,0.8,0.6,1.2,0.9
			c0.3,0.2,0.6,0.2,0.9-0.1c1.3-1.3,2.8-2,4.6-1.9c0.8,0,1.4,0.4,1.9,1c0.3,0.4,0.6,0.7,0.9,1.1c0.2,0.2,0.3,0.2,0.5,0.1
			c0.5-0.4,1.1-0.7,1.8-0.9c1.4-0.3,2.5,0,3.4,1.2c0.7,1,1.1,2.1,1.2,3.3c0.1,1.9-0.2,3.7-0.4,5.6c-0.1,1-0.1,2,0.2,3
			c0.3,0.8,0.6,0.9,1.5,0.7c1.6-0.4,2.7-1.4,3.5-2.8c1.1-1.7,1.7-3.6,2.5-5.4c0.6-1.3,1.1-2.6,1.8-3.7c0.4-0.7,1-1.1,1.8-1.3
			c0.5-0.1,0.9,0,1.2,0.4c0.3,0.4,0.2,0.8,0,1.2c-0.1,0.2-0.2,0.4-0.4,0.6c-0.3,0.4-0.5,0.8-0.5,1.3c0.1,1.4-0.2,2.8,0.1,4.2
			c0.3,1.2,0.5,2.4,0.6,3.6c0.1,0.8,0.5,1.4,1.2,1.7c0.4,0.2,0.8,0.4,1.3,0.6c0.5,0.2,0.9,0,1.3-0.3c1-0.8,1.8-1.7,2.4-2.9
			c0.7-1.4,1.1-2.9,1.5-4.4c1.1-3.4,3.1-5.9,6.4-7.1c2.4-0.9,4.7-0.7,6.9,0.7c0.8,0.5,1.5,1.3,1.7,2.3c0,0.2,0.1,0.3,0.1,0.5
			c0,0.5-0.4,0.7-0.8,0.4c-0.4-0.3-0.7-0.6-1-1c-1-1.3-2.4-1.6-3.9-1.4c-1.6,0.2-3,0.8-4.3,1.7c-1.1,0.9-1.6,2.1-1.7,3.4
			c-0.2,2,0.2,4,1.2,5.8c1.1,1.9,2.8,2.6,5,2.3c1.3-0.2,2.3-0.9,3.3-1.8c1.8-1.7,3.1-3.8,3.8-6.2c0.8-2.5,2.4-4.4,4.6-5.8
			c2.8-1.8,6.9-1.6,9.6,0.4c1.2,0.9,1.9,2.1,1.9,3.7c0,1.7-0.2,3.5-0.4,5.2c-0.1,0.8-0.1,1.5,0,2.3c0.1,1.2,1,1.8,2.2,1.5
			c0.8-0.2,1.5-0.6,2.2-1c0.9-0.6,1.9-1.1,3-1.4c0.5-0.1,0.9-0.2,1.4-0.2c1,0.1,1.7,0.9,1.6,1.8c0,0.2-0.1,0.3-0.2,0.3
			c-2,0.8-4,1.8-6.1,2.2c-2.3,0.4-4.2-0.1-5.6-2C169,55.8,168.9,55.7,168.7,55.5"/>
		<path fill="#EBC4C6" d="M129.3,38.9c2-0.1,2.1,1.2,1.8,2.8c0,0.2-0.2,0.2-0.4,0.2c-0.6,0.1-1.2,0-1.8-0.2
			c-0.2-0.1-0.2-0.2-0.3-0.3c-0.3-0.7-0.5-1.4-0.6-2.2c0-0.3,0.1-0.3,0.3-0.3C128.6,39,129,38.9,129.3,38.9"/>
		<path fill="#EBC4C6" d="M86.5,36.8c-1.5-0.7-2.3,1.2-3,3.7c-0.1,0.3,0.1,0.4,0.2,0.4c0.4,0.4,1,0.4,1.5,0.4c0.2,0,0.3-0.2,0.4-0.3
			c0.6-0.8,1.2-1.8,1.7-2.8c0.2-0.3,0.1-0.5,0-0.6C86.8,37.4,86.8,36.9,86.5,36.8"/>
	</g>
</g>
<g>
	<g id="XMLID_582_">
		<path id="XMLID_596_" fill="#55565A" d="M468.5,4c-1-1-2.1-1.8-3.4-2.3c-1.3-0.5-2.6-0.7-3.8-0.7c-1.3,0-2.4,0.2-3.4,0.6
			c-1,0.4-1.8,0.8-2.5,1.4c-0.7,0.6-1.3,1.2-1.7,1.8c-0.4,0.6-0.7,1.1-1,1.6c0-0.8,0-1.5,0.1-2.3c0.1-0.8,0.2-1.7,0.3-2.5l0-0.1
			l-0.1,0c-0.9,0.2-1.7,0.3-2.3,0.3c-0.6,0-1.3-0.1-2.3-0.3l-0.1,0l0,0.1c0.1,0.9,0.1,1.9,0.2,3.1c0,1.2,0.1,2.4,0.1,3.8
			c0,1.4,0.1,2.7,0.1,4c0,1.4,0,2.6,0,3.8v8.2c0,1,0,2.2,0,3.6c0,1.3,0,2.7-0.1,4c0,1.4-0.1,2.6-0.1,3.8c-0.1,1.2-0.1,2.2-0.2,3.1
			l0,0.1l0.1,0c0.9-0.2,1.7-0.3,2.3-0.3c0.6,0,1.3,0.1,2.3,0.3l0.1,0l0-0.1c-0.1-0.8-0.1-1.8-0.2-3.1c-0.1-1.2-0.1-2.5-0.1-3.8
			c0-1.3-0.1-2.7-0.1-4c0-1.3,0-2.5,0-3.6v-3c1.6,3.2,4.3,4.8,8,4.8c1.3,0,2.7-0.2,4-0.7c1.3-0.5,2.5-1.3,3.6-2.3
			c1-1.1,1.9-2.4,2.5-4c0.6-1.6,1-3.5,1-5.7c0-2.2-0.3-4.1-0.9-5.6C470.3,6.3,469.5,5,468.5,4z M467.1,13.5c0,1.5-0.1,3-0.4,4.3
			c-0.3,1.3-0.7,2.5-1.3,3.5c-0.6,1-1.3,1.8-2.2,2.3c-0.9,0.5-1.9,0.8-3.1,0.8c-4.9,0-7.3-3.5-7.3-10.5c0-1.4,0.1-2.8,0.4-4.1
			c0.3-1.3,0.7-2.4,1.3-3.4c0.6-0.9,1.4-1.7,2.3-2.3c0.9-0.6,2.1-0.9,3.4-0.9c0.8,0,1.6,0.2,2.5,0.5c0.8,0.3,1.6,0.8,2.2,1.6
			c0.7,0.8,1.2,1.8,1.6,3.1C466.9,9.8,467.1,11.5,467.1,13.5z"/>
		<path id="XMLID_595_" fill="#55565A" d="M487.5,1c-0.2,0-0.5-0.1-0.8-0.1c-2.5,0-4.7,1.8-6.7,5.4c0-0.6,0-1.3,0-1.9
			c0-0.7,0.1-1.7,0.2-2.9l0-0.1l-0.1,0c-0.4,0.1-0.7,0.1-1.1,0.2c-0.7,0.1-1.4,0.1-2,0c-0.4-0.1-0.7-0.1-1.1-0.2l-0.1,0l0,0.1
			c0.1,2.2,0.2,4.2,0.2,5.9c0,1.7,0,3.2,0,4.6v1.6c0,2.9,0,5.3,0,7.3c0,2-0.1,3.6-0.2,4.7l0,0.1l0.1,0c1.3-0.1,2.7-0.1,4.2,0l0.1,0
			l0-0.1c-0.1-0.7-0.2-1.7-0.2-2.9c0-1.2,0-2.9,0-5.2v-5.6c0-1,0.1-1.9,0.4-2.7c0.2-0.8,0.6-1.6,1-2.2c0.4-0.6,1-1.1,1.6-1.5
			c0.6-0.4,1.3-0.5,2.1-0.5c0.5,0,1,0.1,1.5,0.2c0.5,0.2,0.8,0.3,1,0.5l0.1,0.1l0.5-0.3v0c0-0.7,0-1.4,0.1-2.3
			c0-0.8,0.1-1.4,0.3-1.8l0-0.1l-0.1,0C488,1.1,487.7,1,487.5,1z"/>
		<path id="XMLID_594_" fill="#55565A" d="M496.5,6.2c0.1-1.7,0.2-3.2,0.3-4.7l0-0.1l-0.1,0c-0.9,0.2-1.7,0.3-2.3,0.3
			s-1.3-0.1-2.3-0.3l-0.1,0l0,0.1c0.2,1.4,0.3,3,0.3,4.7c0.1,1.7,0.1,3.3,0.1,4.8v5.3c0,1.5,0,3.1-0.1,4.8c-0.1,1.7-0.2,3.2-0.3,4.5
			l0,0.1l0.1,0c0.8-0.1,1.5-0.1,2.3-0.1c0.7,0,1.5,0,2.3,0.1l0.1,0l0-0.1c-0.2-1.3-0.3-2.9-0.3-4.5c-0.1-1.7-0.1-3.3-0.1-4.8V11
			C496.4,9.5,496.4,7.9,496.5,6.2z"/>
		<path id="XMLID_593_" fill="#55565A" d="M567.4,2.8c-0.7-0.6-1.5-1.1-2.5-1.4c-1-0.3-2-0.5-3.1-0.5c-1.8,0-3.5,0.4-4.9,1.3
			c-1.4,0.9-2.5,2.1-3.3,3.7c-0.2-0.7-0.5-1.3-1-2c-0.5-0.6-1.1-1.2-1.7-1.6c-0.7-0.4-1.4-0.8-2.2-1.1c-0.8-0.3-1.7-0.4-2.5-0.4
			c-3.2,0-5.8,1.5-7.6,4.5c0-1.3,0.1-2.6,0.2-3.9l0-0.1l-0.3,0c-0.4,0.1-0.7,0.1-1,0.2c-0.3,0-0.6,0.1-0.9,0.1
			c-0.6,0-1.3-0.1-2.3-0.3l-0.1,0l0,0.1c0.2,1.5,0.3,3,0.3,4.7c0.1,1.7,0.1,3.3,0.1,4.8v5.3c0,1.5,0,3.2-0.1,4.8
			c-0.1,1.7-0.2,3.2-0.3,4.5l0,0.1l0.1,0c0.8-0.1,1.5-0.1,2.3-0.1c0.7,0,1.5,0,2.3,0.1l0.1,0l0-0.1c-0.2-1.3-0.3-2.9-0.3-4.5
			c-0.1-1.7-0.1-3.3-0.1-4.8V12c0-2.6,0.5-4.7,1.6-6.1c1-1.4,2.7-2.2,4.8-2.2c0.8,0,1.6,0.2,2.4,0.7c0.8,0.4,1.4,1,1.7,1.6
			c0.2,0.4,0.4,0.8,0.5,1.1c0.1,0.3,0.2,0.8,0.3,1.3c0.1,0.5,0.1,1.2,0.1,2.1c0,0.9,0,2.1,0,3.7c0,1.9,0,3.8-0.1,5.7
			c-0.1,1.9-0.2,3.8-0.3,5.7l0,0.1l0.1,0c0.8-0.1,1.5-0.1,2.2-0.1c0.7,0,1.4,0,2.2,0.1l0.1,0l0-0.1c-0.1-1.4-0.1-2.7-0.2-3.9
			c-0.1-1.2-0.1-2.5-0.1-4c0-2.4,0-4.3,0.1-5.7c0-1.4,0.1-2.4,0.2-3.2c0.1-0.8,0.2-1.3,0.4-1.7c0.1-0.4,0.4-0.7,0.6-1.1
			c0.5-0.6,1.1-1.2,2-1.7c0.8-0.5,1.9-0.7,3.1-0.7c1,0,1.9,0.2,2.5,0.5c0.7,0.3,1.2,0.7,1.6,1.3c0.4,0.5,0.7,1.2,0.9,1.9
			c0.2,0.7,0.3,1.5,0.3,2.4c0,4.6-0.1,8.2-0.2,10.8c-0.1,2.6-0.2,4.3-0.3,5.1l0,0.1l0.1,0c0.4-0.1,0.7-0.1,1.1-0.1h2.2
			c0.4,0,0.7,0,1.1,0.1l0.1,0l0-0.1c-0.1-1-0.1-1.9-0.1-2.7c0-0.8,0-1.7,0-2.6c0-1.5,0-2.8,0.1-3.9c0-1.1,0.1-2.2,0.1-3
			c0-0.9,0.1-1.7,0.1-2.4c0-0.7,0.1-1.3,0.1-1.9c0-1.4-0.2-2.7-0.6-3.7C568.6,4.3,568.1,3.5,567.4,2.8z"/>
		<path id="XMLID_590_" fill="#55565A" d="M594.4,24c-0.2,0-0.4,0-0.5,0c-0.5,0-0.8-0.1-1.1-0.3c-0.2-0.2-0.4-0.5-0.6-0.9
			c-0.1-0.3-0.2-0.7-0.2-1.2c0-0.4,0-0.9,0-1.3c0-2.1,0-4.2,0.1-6.1c0.1-1.9,0.1-3.8,0.1-5.8c0-1.1-0.2-2.2-0.6-3.1
			c-0.4-0.9-1-1.8-1.7-2.4s-1.6-1.2-2.6-1.5c-1-0.4-2.2-0.5-3.4-0.5c-1.4,0-2.7,0.2-4,0.6c-1.3,0.4-2.7,1.2-4.2,2.4l0,0v2.8h0.7l0,0
			c0.6-1.1,1.4-1.9,2.6-2.5c1.2-0.6,2.4-0.9,3.7-0.9c1,0,1.9,0.2,2.6,0.5c0.7,0.3,1.3,0.8,1.7,1.4c0.4,0.6,0.8,1.2,1,2
			c0.2,0.8,0.3,1.6,0.3,2.4c0,0.5-0.1,0.9-0.1,1.2c-0.1,0.3-0.4,0.6-0.8,0.8c-0.5,0.2-1.2,0.5-2.3,0.7c-1,0.2-2.4,0.5-4.3,0.8
			c-2.2,0.4-4,1.1-5.3,2.3c-1.3,1.1-1.9,2.7-1.9,4.8c0,1,0.2,1.9,0.6,2.7c0.4,0.8,0.9,1.4,1.5,2c0.6,0.5,1.4,0.9,2.2,1.2
			c0.8,0.2,1.7,0.4,2.5,0.4c1.7,0,3.2-0.3,4.4-0.9c1.1-0.6,2.3-1.4,3.5-2.6c0.1,0.8,0.5,1.5,1,2c0.6,0.6,1.5,0.9,2.6,0.9
			c0.7,0,1.3-0.1,1.9-0.2c0.6-0.1,1-0.2,1.4-0.4l0,0v-1.3l-0.1,0.1C594.8,24,594.6,24,594.4,24z M588.1,13.1l-0.2,7.5
			c-0.6,0.9-1.4,1.7-2.4,2.4c-1,0.7-2.2,1.1-3.5,1.1c-1.1,0-2.1-0.4-3-1.2c-0.9-0.8-1.3-2-1.3-3.5c0-0.9,0.2-1.7,0.5-2.3
			c0.3-0.6,0.8-1.1,1.4-1.5c0.6-0.4,1.3-0.7,2-1c0.8-0.2,1.5-0.4,2.3-0.6c0.7-0.1,1.5-0.3,2.3-0.4C586.9,13.5,587.6,13.3,588.1,13.1
			z"/>
		<path id="XMLID_589_" fill="#55565A" d="M603.5,5.8c0.7-1,1.6-1.7,2.7-2.3c1.1-0.6,2.4-0.8,3.9-0.8c0.8,0,1.5,0.1,2.2,0.4
			c0.7,0.2,1.3,0.6,1.8,1c0.6,0.4,1,0.8,1.4,1.3c0.4,0.4,0.7,0.9,1,1.3l0,0h0.5l0-0.1c0.1-0.6,0.3-1.2,0.5-1.7
			c0.2-0.6,0.4-1.1,0.6-1.6l0-0.1l0,0c-0.7-0.6-1.7-1.1-3.2-1.6c-1.5-0.5-3.2-0.7-5-0.7c-1.6,0-3.2,0.2-4.8,0.7
			c-1.6,0.5-3,1.3-4.2,2.3c-1.2,1-2.2,2.4-2.9,4c-0.7,1.6-1.1,3.5-1.1,5.7c0,2.3,0.4,4.3,1.1,5.9c0.7,1.6,1.7,2.9,2.9,3.9
			c1.2,1,2.5,1.7,4,2.2c1.5,0.4,3,0.6,4.4,0.6c1.6,0,3.2-0.3,4.7-0.9c1.5-0.6,2.8-1.3,3.8-2.1l0,0l0,0c0-0.8,0.1-1.7,0.3-2.5l0-0.1
			l-0.4-0.2l0,0.1c-0.4,0.5-1,1-1.5,1.4c-0.6,0.4-1.2,0.8-1.9,1.1c-0.7,0.3-1.4,0.6-2.1,0.8c-0.7,0.2-1.4,0.3-2.1,0.3
			c-2.8,0-5-0.9-6.5-2.6c-1.5-1.8-2.2-4.4-2.2-7.9c0-1.5,0.2-3,0.5-4.3C602.3,8,602.8,6.8,603.5,5.8z"/>
		<path id="XMLID_586_" fill="#55565A" d="M640.2,4c-0.9-0.9-2-1.7-3.3-2.3c-1.3-0.6-2.9-0.8-4.7-0.8c-3.8,0-6.7,1.2-8.7,3.6
			c-2,2.4-3,5.7-3,9.9c0,1.7,0.3,3.3,0.9,4.8c0.6,1.5,1.5,2.7,2.6,3.8c1.1,1.1,2.4,1.9,3.9,2.5c1.5,0.6,3.2,0.8,5,0.8
			c1.6,0,3.2-0.3,4.7-0.9c1.5-0.6,2.8-1.3,3.8-2.1l0,0l0.3-2.6l-0.4-0.2l0,0.1c-0.4,0.5-1,1-1.5,1.4c-0.6,0.4-1.2,0.8-1.9,1.1
			c-0.7,0.3-1.4,0.6-2.1,0.8c-0.7,0.2-1.4,0.3-2.1,0.3c-1.4,0-2.7-0.2-3.7-0.7c-1.1-0.5-2-1.1-2.7-2c-0.7-0.8-1.3-1.8-1.7-2.9
			c-0.4-1.1-0.6-2.4-0.6-3.7v-0.7c0-0.3,0-0.5,0-0.7c1.1,0,2.2-0.1,3.3-0.1c1.1,0,2.2-0.1,3.3-0.1c1.8,0,3.6,0,5.4,0.1
			c1.8,0,3.6,0.1,5.4,0.1l0.1,0l0-0.1c0-0.3,0.1-0.6,0.1-1c0-0.3,0-0.7,0-1c0-1.4-0.2-2.8-0.6-4C641.7,6.1,641.1,5,640.2,4z
			 M625.8,8.5c0.3-1,0.7-2,1.3-2.8c0.5-0.8,1.3-1.6,2.1-2.1c0.8-0.6,1.9-0.8,3.1-0.8c1.3,0,2.4,0.3,3.2,0.8c0.8,0.6,1.4,1.3,1.9,2.2
			c0.5,0.9,0.8,1.8,0.9,2.8c0.1,1,0.2,1.9,0.2,2.8c-1.1,0-2.1,0.1-3.3,0.1c-1.1,0-2.3,0.1-3.4,0.1c-1.1,0-2.2,0-3.3-0.1
			c-1.1,0-2.2-0.1-3.2-0.1C625.3,10.5,625.5,9.5,625.8,8.5z"/>
		<path id="XMLID_585_" fill="#55565A" d="M659.6,1.2C659.2,1.1,659,1,658.7,1c-0.2,0-0.5-0.1-0.8-0.1c-2.5,0-4.7,1.8-6.7,5.4
			c0-0.6,0-1.3,0-1.9c0-0.7,0.1-1.7,0.2-2.9l0-0.1l-0.1,0c-0.4,0.1-0.7,0.1-1.1,0.2c-0.7,0.1-1.4,0.1-2,0c-0.4-0.1-0.7-0.1-1.1-0.2
			l-0.1,0l0,0.1c0.1,2.2,0.2,4.2,0.2,5.9c0,1.7,0,3.2,0,4.6v1.6c0,2.9,0,5.3,0,7.3c0,2-0.1,3.6-0.2,4.7l0,0.1l0.1,0
			c1.3-0.1,2.7-0.1,4.2,0l0.1,0l0-0.1c-0.1-0.7-0.2-1.7-0.2-2.9c0-1.2,0-2.9,0-5.2v-5.6c0-1,0.1-1.9,0.4-2.7c0.2-0.8,0.6-1.6,1-2.2
			c0.4-0.6,1-1.1,1.6-1.5c0.6-0.4,1.3-0.5,2.1-0.5c0.5,0,1,0.1,1.5,0.2c0.5,0.2,0.8,0.3,1,0.5l0.1,0.1l0.5-0.3v0
			c0-0.7,0-1.4,0.1-2.3c0-0.8,0.1-1.4,0.3-1.8L659.6,1.2L659.6,1.2z"/>
		<path id="XMLID_584_" fill="#FFFFFF" d="M515.8,14.8c-1.2-1.5-5.7-4.2-9.4-6.4l-0.4-0.2c-1.9-1.1-3.5-2.2-3.5-2.2l-0.2-0.1
			l-0.1,0.2c-1.1,4.1,2.5,6.5,2.6,6.5c0,0,3.8,2.4,5.9,3.7c0.8,0.5,1.4,1.1,1.7,1.8c0.2,0.4,0.5,1,0.5,1.8c0,0.7-0.1,1.3-0.4,1.9
			c-0.3,0.6-0.6,1-1,1.4c-0.4,0.4-1,0.6-1.5,0.8c-1.2,0.4-2.6,0.4-3.7,0c-0.6-0.2-1.2-0.5-1.6-0.9c-0.5-0.3-0.9-0.7-1.2-1.1
			c-0.3-0.4-0.6-0.8-0.8-1.1l0-0.1h-0.9v0.2c0,0.5-0.1,1.1-0.3,1.9c-0.2,0.8-0.4,1.4-0.6,1.8l-0.1,0.1l0.1,0.1
			c0.7,0.4,1.6,0.8,2.7,1.1c1.1,0.3,2.4,0.5,4,0.5c1.4,0,2.7-0.2,3.9-0.6c1.1-0.4,2.1-1,2.9-1.8c0.8-0.8,1.4-1.7,1.8-2.7
			C517.6,17.4,516.1,15.2,515.8,14.8L515.8,14.8z"/>
		<path id="XMLID_583_" fill="#FFFFFF" d="M530.3,1.5c-0.7-0.4-1.6-0.8-2.7-1.1c-1.1-0.3-2.4-0.5-4-0.5c-1.4,0-2.7,0.2-3.9,0.6
			c-1.1,0.4-2.1,1-2.9,1.8c-0.8,0.8-1.4,1.7-1.8,2.7c-1.5,3.8-0.1,6,0.3,6.4v0c1.2,1.5,5.7,4.2,9.4,6.4l0.4,0.2
			c1.9,1.1,3.5,2.2,3.5,2.2l0.2,0.1l0.1-0.2c1.1-4.1-2.5-6.5-2.6-6.5c0,0-3.8-2.4-5.9-3.7c-0.8-0.5-1.4-1.1-1.7-1.8
			c-0.2-0.4-0.5-1-0.5-1.8c0-0.7,0.1-1.3,0.4-1.9c0.3-0.6,0.6-1,1-1.4c0.4-0.4,1-0.6,1.5-0.8c1.2-0.4,2.6-0.4,3.7,0
			c0.6,0.2,1.2,0.5,1.6,0.9c0.5,0.3,0.9,0.7,1.2,1.1c0.3,0.4,0.6,0.8,0.8,1.1l0,0.1h0.9V5.4c0-0.5,0.1-1.1,0.3-1.9
			c0.2-0.8,0.4-1.4,0.6-1.8l0.1-0.1L530.3,1.5z"/>
	</g>
	<g>
		<path fill="#55565A" d="M608.4,55.8c0.7,1.3,2,1.9,3.4,1.4c1.1-0.4,2-1.1,2.7-2c1.9-2.3,2.8-5,3.2-7.9c0.1-0.7-0.2-1.3-0.9-1.6
			c-2.1-0.9-3.3-1-4.8,0.5c-0.1,0.1-0.3,0.3-0.4,0.4c-1.1,1.3-2.1,2.8-2.9,4.3c-0.4,0.9-0.8,1.8-0.8,2.9
			C607.9,54.5,608,55.1,608.4,55.8 M490,46c-0.5,1.5-0.2,2.9,0.8,4.1c0.5,0.5,1.1,0.9,1.5,1.5c0.4,0.6,0.7,0.7,1.4,0.3
			c0.8-0.4,1.4-1,2.1-1.5c1.1-0.9,1.8-2.1,2-3.5c0.1-0.5,0.2-1,0.3-1.5c0.1-0.4-0.1-0.7-0.4-1c-1.1-0.7-2.3-1.1-3.5-1.1
			C492.2,43.3,490.6,44.4,490,46 M523.1,54.8c0.4,1.9,1.9,2.8,3.8,2.3c1-0.3,1.8-0.9,2.6-1.5c2-1.8,3.3-4.1,4.4-6.5
			c0.4-0.9,0.7-1.8,0.9-2.8c0.1-0.6,0-1.2-0.5-1.5c-1.6-1.1-3.4-1.3-5.1-0.3c-0.5,0.3-1,0.7-1.5,1c-3.1,1.8-4.3,4.6-4.7,8
			C523,53.9,523,54.4,523.1,54.8 M617.1,55.5c-0.9,1.5-2.1,2.6-3.6,3.2c-2.3,1-4.7,0.3-6.1-1.7c-1.2-1.8-1.8-3.8-1.1-6
			c0.3-1,0.9-1.9,1.6-2.7c0.6-0.7,1.2-1.4,1.6-2.2c0.1-0.2,0.4-0.6,0.2-0.8c-0.2-0.2-0.5,0.1-0.7,0.3c-0.3,0.2-0.6,0.4-0.9,0.6
			c-1.1,0.7-1.8,1.6-2.3,2.8c-0.6,1.4-1.1,2.9-1.7,4.3c-0.8,2.1-2.3,3.6-4.1,4.8c-2.1,1.4-4.4,1.4-6.6,0.3c-1.9-0.9-3.4-2.4-4.6-4.2
			c-0.2-0.4-0.2-0.4-0.6-0.7c-0.3,0.9-0.8,1.7-1.2,2.6c-1.2,2.2-3.3,3.3-5.7,2.9c-2.3-0.3-4.1-2.1-4.6-4.5c-0.1-0.7-0.3-1.4-0.4-2.1
			c0-0.2,0-0.3-0.2-0.5c-0.4,0.5-0.8,1-1.1,1.5c-0.4,0.7-0.9,1.4-1.3,2.1c-0.7,1.2-1.7,2.1-2.9,2.9c-2.7,1.7-5.7,0.2-6.2-3
			c-0.3-2,0.1-3.8,0.3-5.7c0.1-1.2,0.2-2.5,0-3.7c0-0.2-0.1-0.4-0.2-0.6c-0.3-0.7-0.8-0.9-1.5-0.6c-0.7,0.3-1.3,0.9-1.8,1.5
			c-0.3,0.4-0.6,0.9-0.9,1.3c-0.2,0.3-0.5,0.6-0.9,0.8c-0.2,0.1-0.3,0.2-0.5,0.1c-0.2-0.1-0.2-0.3-0.2-0.5c0-0.1,0-0.3,0.1-0.4
			c0.1-0.4,0.1-0.8,0.1-1.2c-0.1-1.2-0.7-2.1-1.6-2.2c-1.1-0.2-2.4,0.4-2.9,1.4c-0.2,0.4-0.3,0.8-0.4,1.2c-0.3,2.1-1,4.1-1.4,6.2
			c-0.4,1.7-0.8,3.5-0.8,5.3c0,0.6-0.4,0.8-0.8,0.9c-0.5,0.1-0.8-0.1-1.1-0.5c-0.3-0.5-0.3-1.1-0.3-1.7c0-1.6,0.2-3.2,0.5-4.8
			c0.2-1.8,0.6-3.6,0.6-5.4c0-0.6-0.1-1.2-0.4-1.8c-0.2-0.3-0.3-0.4-0.6-0.1c-0.6,0.5-1.3,1-2,1.5c-0.8,0.6-1.2,1.5-1.5,2.3
			c-0.5,1.3-0.7,2.7-0.9,4.1c-0.2,1.1-0.4,2.2-0.7,3.2c-0.9,2.8-3.4,3.9-6.1,2.8c-1.7-0.7-2.9-1.9-3.5-3.7c-0.2-0.8-0.6-1.6-0.7-2.4
			c-0.3,0.5-0.7,0.9-1,1.4c-0.8,1.1-1.6,2.1-2.5,3c-1.2,1.2-2.7,1.8-4.3,2c-2.9,0.2-5.1-1.8-5.4-4.9c-0.1-1.3,0.1-2.5,0.3-3.8
			c0.1-0.4,0.2-0.8,0.1-1.2c-0.1-0.4-0.6-0.2-1-0.3c-1.1-0.5-2.3-0.7-3.4-1c-0.3-0.1-0.6-0.2-0.9-0.4c-1-0.6-0.9-2,0.1-2.6
			c0.1-0.1,0.3-0.1,0.3-0.3c0-0.2-0.2-0.2-0.4-0.2c-1.6,0.1-3,0.5-4.3,1.5c-1.4,1-2,2.3-1.9,4c0,0.7,0.1,1.4,0.3,2
			c0.3,1.5,0.8,3.1,0.9,4.7c0,0.4,0,0.9,0,1.3c0,0.2,0.1,0.5-0.2,0.6c-0.3,0.1-0.5,0.1-0.8-0.1c-0.4-0.3-0.6-0.7-0.8-1.1
			c-0.4-0.9-0.7-1.9-1-2.8c-0.2-0.5-0.4-1.1-0.6-1.6c-0.1-0.3-0.3-0.7-0.6-1c-0.2-0.3-0.5-0.7-0.9-0.7c-0.3,0.1-0.2,0.6-0.3,1
			c-0.5,2-1,4-2.4,5.6c-1.2,1.4-3.1,1.8-5,1.1c-1.2-0.5-2.1-1.2-3-2c-0.9-0.8-1.7-1.6-2.6-2.3c-0.2-0.2-0.4-0.2-0.7,0
			c-1,0.6-1.9,1.2-2.8,2c-1.1,0.9-2.3,1.7-3.7,2.2c-1.5,0.7-3.2,0.5-4.7,0.1c-3.7-1.1-6.1-3.4-7-7.2c-0.3-1.5,0-3,0.3-4.4
			c0.2-1.2,0.6-2.3,1.3-3.4c0.4-0.6,1-1.1,1.7-1.5c1.7-0.9,3.5-1.3,5.4-1.2c0.4,0,0.9,0.1,1.3,0.3c1,0.4,1.6,1.2,1.6,2.3
			c0,0.2,0.1,0.4-0.1,0.4c-0.2,0.1-0.4-0.1-0.5-0.2c-0.5-0.8-1.3-1.1-2.2-1.2c-2.6-0.2-5.4,1.5-6.3,3.9c-0.5,1.4-0.8,2.9-0.7,4.4
			c0.1,3.1,2.1,4.8,4.7,6c1.1,0.5,2.3,0.8,3.5,0.3c1.5-0.6,2.9-1.2,4-2.4c0.8-0.7,1.4-1.6,2.4-2.1c0.2-0.1,0.2-0.2,0-0.4
			c-0.5-0.7-1-1.5-1.5-2.2c-0.7-1.2-1.3-2.4-1.4-3.8c-0.1-2.5,1.3-4.3,3.7-4.9c1.5-0.4,3.1-0.3,4.6,0.1c2.5,0.7,3.8,2.9,3.4,5.5
			c-0.5,2.8-1.9,4.8-4.8,6.4c0.9,1,1.7,2.1,2.7,2.9c1,0.7,2,0.9,3.1,0.7c1-0.2,1.7-0.9,2.2-1.7c0.9-1.5,1.5-3.2,1.6-5
			c0-1.5-0.2-3,0.3-4.5c0.1-0.2,0-0.4,0-0.6c0-0.3,0.1-0.6,0.4-0.7c0.3-0.1,0.4,0.1,0.6,0.2c0.8,0.7,1.4,1.6,2,2.6
			c0.1-0.2,0.2-0.4,0.3-0.5c1.1-2.5,3.1-3.8,5.6-4.6c1.1-0.4,2.3-0.6,3.5-0.4c1.8,0.3,2.9,1.3,3.4,3c0,0.1,0.1,0.2,0.1,0.3
			c0.3,0.8,1.1,1.1,1.7,0.5c1-0.8,2-1.7,3.1-2.3c2-1.1,4.2-1.9,6.6-1.5c1.7,0.2,3.2,0.9,4.4,2c0.2,0.2,0.4,0.5,0.4,0.8
			c0.2,2.1,0.1,4.1,0.3,6.2c0.1,1.3,0.2,2.6,0.3,3.9c0.1,1,0.9,1.9,1.8,2.1c1,0.3,1.8-0.1,2.5-0.9c0.6-0.7,1-1.6,1.2-2.6
			c0.4-1.7,0.7-3.3,1-5c0.4-2,1.5-3.7,2.9-5.2c0.3-0.3,0.6-0.6,0.9-0.8c1-0.6,2-0.7,2.9,0c0.4,0.3,0.8,0.6,1.2,0.9
			c0.3,0.2,0.6,0.2,0.9-0.1c1.3-1.3,2.8-2,4.6-1.9c0.8,0,1.4,0.4,1.9,1c0.3,0.4,0.6,0.7,0.9,1.1c0.2,0.2,0.3,0.2,0.5,0.1
			c0.5-0.4,1.1-0.7,1.8-0.9c1.4-0.3,2.5,0,3.4,1.2c0.7,1,1.1,2.1,1.2,3.3c0.1,1.9-0.2,3.7-0.4,5.6c-0.1,1-0.1,2,0.2,3
			c0.3,0.8,0.6,0.9,1.5,0.7c1.6-0.4,2.7-1.4,3.5-2.8c1.1-1.7,1.7-3.6,2.5-5.4c0.6-1.3,1.1-2.6,1.8-3.7c0.4-0.7,1-1.1,1.8-1.3
			c0.5-0.1,0.9,0,1.2,0.4c0.3,0.4,0.2,0.8,0,1.2c-0.1,0.2-0.2,0.4-0.4,0.6c-0.3,0.4-0.5,0.8-0.5,1.3c0.1,1.4-0.2,2.8,0.1,4.2
			c0.3,1.2,0.5,2.4,0.6,3.6c0.1,0.8,0.5,1.4,1.2,1.7c0.4,0.2,0.8,0.4,1.3,0.6c0.5,0.2,0.9,0,1.3-0.3c1-0.8,1.8-1.7,2.4-2.9
			c0.7-1.4,1.1-2.9,1.5-4.4c1.1-3.4,3.1-5.9,6.4-7.1c2.4-0.9,4.7-0.7,6.9,0.7c0.8,0.5,1.5,1.3,1.7,2.3c0,0.2,0.1,0.3,0.1,0.5
			c0,0.5-0.4,0.7-0.8,0.4c-0.4-0.3-0.7-0.6-1-1c-1-1.3-2.4-1.6-3.9-1.4c-1.6,0.2-3,0.8-4.3,1.7c-1.1,0.9-1.6,2.1-1.7,3.4
			c-0.2,2,0.2,4,1.2,5.8c1.1,1.9,2.8,2.6,5,2.3c1.3-0.2,2.3-0.9,3.3-1.8c1.8-1.7,3.1-3.8,3.8-6.2c0.8-2.5,2.4-4.4,4.6-5.8
			c2.8-1.8,6.9-1.6,9.6,0.4c1.2,0.9,1.9,2.1,1.9,3.7c0,1.7-0.2,3.5-0.4,5.2c-0.1,0.8-0.1,1.5,0,2.3c0.1,1.2,1,1.8,2.2,1.5
			c0.8-0.2,1.5-0.6,2.2-1c0.9-0.6,1.9-1.1,3-1.4c0.5-0.1,0.9-0.2,1.4-0.2c1,0.1,1.7,0.9,1.6,1.8c0,0.2-0.1,0.3-0.2,0.3
			c-2,0.8-4,1.8-6.1,2.2c-2.3,0.4-4.2-0.1-5.6-2C617.4,55.8,617.2,55.7,617.1,55.5"/>
		<path fill="#55565A" d="M577.6,38.9c2-0.1,2.1,1.2,1.8,2.8c0,0.2-0.2,0.2-0.4,0.2c-0.6,0.1-1.2,0-1.8-0.2
			c-0.2-0.1-0.2-0.2-0.3-0.3c-0.3-0.7-0.5-1.4-0.6-2.2c0-0.3,0.1-0.3,0.3-0.3C577,39,577.3,38.9,577.6,38.9"/>
		<path fill="#55565A" d="M534.9,36.8c-1.5-0.7-2.3,1.2-3,3.7c-0.1,0.3,0.1,0.4,0.2,0.4c0.4,0.4,1,0.4,1.5,0.4
			c0.2,0,0.3-0.2,0.4-0.3c0.6-0.8,1.2-1.8,1.7-2.8c0.2-0.3,0.1-0.5,0-0.6C535.2,37.4,535.1,36.9,534.9,36.8"/>
	</g>
</g>
</svg>
