<?xml version="1.0" encoding="utf-8"?>
<!-- Generator: Adobe Illustrator 27.9.3, SVG Export Plug-In . SVG Version: 9.03 Build 53313)  -->
<svg version="1.1" id="Livello_1" xmlns="http://www.w3.org/2000/svg" xmlns:xlink="http://www.w3.org/1999/xlink" x="0px" y="0px"
	 viewBox="0 0 771.1 100" style="enable-background:new 0 0 771.1 100;" xml:space="preserve">
<style type="text/css">
	.st0{fill:#AA1124;}
</style>
<g>
	<path class="st0" d="M10.9,89.6c2.1,0.1,1.2,1.8,0.5,1.7C11,91.2,10.7,90.7,10.9,89.6 M14.8,92.6c1.4-2.9,4,2.4,0.3,1.6
		C15.2,93.6,14.2,92.7,14.8,92.6 M45.8,47.8c2.3,1.6,0,5.3-2,6C42.4,51.7,44.8,49.3,45.8,47.8 M59.5,66.5c3.5-0.8,2,3.9,0,4.7
		c0.5,3.1-1.7,4.7-2.8,6.6c-1.3,2.2-1.4,4.7-2.8,7.1c0.5,4-2.1,7.2-3.1,10.7c-2,0.5-4.1,1-3.9-0.3c2.8-0.9,2-5.4,4.2-6.9
		c-0.2-1.8,0.6-2.7,1.1-3.9c-1-6.2,4.3-8.1,4.5-14C57.8,70.1,58.2,66.8,59.5,66.5 M57.3,90.1c1.1-1.9,0.9-4.3,1.7-6
		c0.4-1,1.5-1.4,2-2.2c0.3-0.4,0.1-1.2,0.3-1.6c0.5-1.1,1.7-2.1,2.5-3.3c-0.2-3.6,3.1-5.1,3.9-8c0.4-1.4-0.3-3,0.8-4.4
		c2.2,1.3,0.6,5,0.6,7.4c-0.8,0.7-1.1,1.6-1.7,2.5c-1.5,2.5-2.9,6.2-4.5,9.3C61.8,86,61,90.2,57.3,90.1 M32.7,48.6
		c0.3-7.6,3.8-12,3.9-19.8c0.4-0.2,0.7-0.4,0.8-0.8h1.1c1.7,3.2-1.5,6.8-0.5,10.2c-1.1,1.8-2.4,3.5-2.5,6c0,0.7,0.4,1.5,0.3,2.2
		c-0.2,1.1-0.9,2.6-1.4,3.6c-0.5,0.9-1,2.5-2.2,2.5C31,51.3,32.1,49.7,32.7,48.6 M33.8,53.9c0.2-1.2,0.5-1.6,0.8-1.6
		C35.5,52.3,36.3,55.4,33.8,53.9 M38.3,22.8c0.3,1.2,1.1,3-0.3,3.6c-1.5-0.2-1.1-2.2-0.6-3c-0.9-2.4-1.3-6.4-0.3-9.1
		c0.7,0.2,0.9,1,1.4,1.4C38.3,18.5,39.2,20.9,38.3,22.8 M0,97.4h7.1c1-0.3,1.6-1,2.6-1.3c2.1,0.3,3.1,0.2,4.2-0.8
		c0.7,0.4,0.6,1.3,0.5,2.1h6c-0.1-0.9-0.2-1.8-0.4-2.7c0.6-1.4,1.3-2.1,0.8-3.6c-0.3-1-1.3-1.2-1.7-2.2c0.9-1.8,1.4-4,4.2-3.8
		c0.7,0.8,0.6,2.5,1.4,3.3c-1.1,2.4,0.2,5.8-0.6,8c-0.6,0.3-1,0.7-1.5,1h7.7c-0.3-1-0.9-1.7-1.7-2.1c0.4-1.8,0.7-3.7,0.6-6
		c1.2-1.4,5.3-5.8,0-5.8c0.9-2.4,0.8-4.8,2-6.6c0.4-0.7,1.4-1,2-1.6c0.3-0.4,0.5-1.2,0.8-1.6c0.6-0.9,1.5-1.5,1.7-3
		c0.8-0.4,1.2-1.3,2-1.6c0.2-1.8,1-3.1,2-4.1c1.2-3.5,1.6-7.8,3.9-10.2c3.4,2.4-0.7,6.7-2,8.8c-0.1,2.3-1.4,3.7-2.2,5.5
		c-1,2.1-1.1,3.8-2.8,5.2c-0.4,2.9-3.7,4.6-3.1,7.7c2.9-0.1,2.9-3,3.6-5.2c2.3-0.6,1.9-3.6,4.5-3.8c1-3,3.4-4.6,3.6-8.2
		c2.5-1.6,2-6.1,3.9-8.2c0.6-3.6,0.4-8,2.2-10.4c-0.3-2.1,0.4-3.7,0.8-5.2c2.1,0.6,1.1,3.5,0.3,4.7c-0.2,4.3,0.1,7.5-2,10.2
		c-0.4,4.3-1.6,7.8-3.6,10.4c-0.3,1.6-0.1,3-0.8,4.4c-0.5,1-1.7,1.5-2.3,2.5c-0.6,1.1-0.7,2.4-1.4,3.6c-0.6,0.9-1.7,1.7-2.2,2.7
		c-0.3,0.5-0.2,1.4-0.6,1.9c-1,1.6-3,2.7-4.2,4.1c-1,1.2-1.3,2.8-2.8,3.6c0.2,1.7-1.4,2.9-0.8,4.1c5,0.7,5.3-5.6,9-7.1
		c0.2-2.7,2.5-3.2,2.5-6.1c0.8-0.9,2.6-1.4,3.4-2.5c0.8-1.1,0.7-3.1,1.4-4.7c0.6-1.3,1.6-2.4,2.2-3.6c1.4-2.7,2.1-5.6,3.6-8
		c-0.2-3.2,1.6-6.2,2-9.1c0.1-0.8-0.3-1.6-0.3-2.5c0-0.7,0.6-1.2,0.6-1.6c0-0.8-0.6-1.7-0.6-2.5c0.1-1.5,1.2-3.4,1.4-4.9
		c0.2-1.6-0.8-4.2,1.7-4.1c1.2,1.1-0.7,2.8,0.6,4.4c-0.1,2.2-2.1,4.4-2,7.1c0,0.7,0.6,1.5,0.6,2.2c0,0.9-0.5,1.8-0.6,2.7
		c-0.3,2.5,0.2,5.7-0.8,7.7c-0.4,0.8-1.4,0.8-1.7,1.6c0.6,1.1-0.4,1.9-0.6,3c-0.1,0.5,0.4,1.1,0.3,1.6c-0.4,1.7-1.7,2.9-2.5,4.7
		c-0.2,0.5,0,1.4-0.3,1.9c-1,2-3.1,4-3.4,7.4c-1.3,0.8-2.4,1.9-3.6,2.7c-1.5,4.4-5.8,6-6.7,11c-1.4,0.9-2.8,1.9-4.1,3h6.9
		c1.4-3.6,3.2-7.3,5.3-10.1c1.2-0.2,1.5,0.5,2,1.1c-0.5,1.8-2,2.3-3.1,4.1c-0.9,1.5-1,3.5-1.8,4.9h9.6c0.5-0.7,1.1-1.3,1.5-1.9
		c0.3-2.3,1-4.1,2.5-5.2c1.3,0.2,0.6,2.4,1.1,3.3c0.4,0,0.8,0,0.8,0.3c3.2-1.1,3.7-4.8,6.7-6c1.7-4.3,2.8-9.2,6.2-11.8
		c0.5-2.9,1.3-5.7,3.6-6.9c0.1-1.8,0.7-3.2,1.7-4.1c0.1-1.2-0.7-1.5-0.6-2.7c1.7-1.7,4.3-2.5,5-5.2c-1.5-2.8,0-5.5,0.6-7.7
		c0.5-2,0-4,1.4-5.2c0-0.9-0.6-1.2-0.6-2.2c1.2-2.8,0.5-7.3,1.7-10.7c-1.5-1.8,0.4-4,0.6-6c0.1-0.7-0.4-1.6-0.6-2.5
		c-0.2-1.9-0.1-4-0.3-6.1c-0.3-3.6-1.1-6.8-0.6-9.9c0.3-1.8,0.4-3.7-0.5-5.1h-5.3c0,0.3,0,0.6,0,0.9c0.3,2,1.4,4.2,0,6.6
		c0.2,1,1.9,1.4,2.2,2.8c0.4,1.4-0.1,4.1,0,6.3c0.1,2.8,0.2,5.7,0.6,8c0.5,3.7-0.7,6.8-1.7,9.1c0.9,2.5,0.7,6.4-0.8,8
		c1.3,2.3,0,5-1.1,6.6c0.3,2.9,1.1,8.2-2.2,8.5c-1.2-1.9,1-4.1-0.3-6.6c0.4-1,1-1.8,1.7-2.5c-0.6-1.1-0.6-1.9-0.6-3
		c0-0.9,0.6-1.7,0.6-2.5c0-0.9-0.6-1.8-0.6-2.7c0.2-5.4,3.6-12.8,1.7-19.5c-0.3-1-1.3-1.8-1.4-2.8c-0.1-1.2,1-2.2,1.4-3.3
		c-0.6-2,0.1-3.9-0.3-5.8c-0.4-1.6-1.7-3-2-4.7c-0.2-1.2-0.1-2.4-0.2-3.4h-4.4c0.5,1,0.9,2.1,1,3.1c0.3,2.5-0.8,5.5-0.6,8
		c0.1,1.1,0.9,1.9,1.1,3c0.1,0.5-0.3,0.9-0.3,1.7c0,1.1,0.8,2.3,0.8,3.3c0,0.8-0.4,1.6-0.3,2.5c0.3,3.4,1.3,6.5,1.1,9.9
		c-0.1,1.4-0.9,2.9-0.8,4.4c0.1,1.6,0.4,2.9,0,4.9c-0.7,0.9-1.4,1.7-2,2.8c-0.6,2.2,0.5,4.1,0.6,6c0,2.5-1.3,4.9-1.7,7.4
		c-0.3,1.7,0.5,3.5-0.9,4.9c-3.1,0-0.9-3.3-0.6-4.7c-0.1-0.9-0.3-1.6-0.6-2.2c1.4-2.4,0.3-6,0.8-9.6c0.2-1.4,0.2-3.8,0.6-6.1
		c0.2-1.4,0.3-2.1,0.3-3.8c-0.1-2.2,1-4.3,1.1-6.3c0.2-2.7-0.8-5.7-0.8-8c0-0.9,0.5-1.8,0.5-2.8c0.1-2.8-1.4-5.7-1.7-8.5
		c-0.3-2.2,0.3-4.6,0-6.9c-0.1-0.9-0.7-1.7-0.8-2.5c0-0.2-0.1-0.4-0.1-0.7h-4.4c0,4.7,0.6,7.9,1.7,11.9C63.2,15,64,17.3,64,19.5
		c0,0.8-0.5,1.4-0.5,2.2c-0.1,0.8,0.2,1,0.3,2.2c0,0.9-0.1,2,0,2.8c0.3,2,1.6,4,1.7,6c0,0.6-0.5,1.4-0.6,2.2
		c-0.3,2.7,0.9,6.2,0.3,8.2c-0.3,1.1-1.5,1.6-1.7,2.5c0.1,1.2,1.1,1.5,1.4,2.5c-0.7,3.3-0.5,6.9-1.4,9.3c-0.6,2.3-2.1,4.4-2.8,6.6
		c-0.2,0.7,0.5,1.2-0.9,0.9c-0.1-2.5-0.1-4.4,0.6-6.9c0.2-0.7,0.9-1.4,1.1-2.2c0.4-2,0.1-4.2,0.3-6.3c0.1-1.2,0.8-2.4,0.8-3.6
		c0.2-3.1-1.1-6.9,0.6-9.9c-0.8-4.1,0.1-8.3-1.4-11.5c-0.1-1.2,0.8-1.4,0.8-2.5c0-1.2-1.1-1.3-1.1-2.5c0.2-3.7,0.5-9.6-1.1-12.3
		c0.2-1.8,0.2-3.7-0.1-5.3h-5.8c0.2,0.7,0.4,1.4,0,2.3c1,1.4,2.5,2.1,2.8,4.1c0.1,1-0.8,1-0.8,1.9c1.7,4.9,0.9,9.4,1.1,15.1
		c0.2,0.8,0.9,1.2,1.4,1.6c0.2,1.2-0.8,1.2-0.8,2.2c0.2,2,0.6,4.2-1.4,4.7c-0.8-4.1-1.9-1.6-3.1,0.8c-1.4-1.1,0-3.6,0.8-4.1
		c0.6-5,0.7-10.7,0-15.9c-0.2-1.8-0.8-3.5-0.8-5.2c0-1.4,0.5-2.6,0.3-3.8c-0.2-1.1-1.3-1.8-1.7-2.8c-0.1-0.3-0.2-0.6-0.3-0.9h-3.9
		c0.4,1,0.8,2.2,1.1,3.7c0.4,2.3-0.1,4.2,0.3,6.3c0.4,2.1,2.9,4.4,1.1,7.4c-0.1,1.3,1.1,1.3,1.1,2.5c-0.4,5-0.5,8.6-2.5,12.1
		c-0.3,2.9,0.8,7-2.2,7.1c-1.1-4.4,3.2-10.8,0.3-14.5c0.2-1.3,0.7-2.2,1.1-3.3c-0.5-1.5-0.9-2.8-0.8-4.4c0-0.9,0.6-1.8,0.6-2.8
		c-0.1-1.9-1.3-4.1-1.4-6.3c-0.1-1.7,0.6-3.4-0.6-4.9c0.5-1.1,0.5-2,0.4-2.9h-5.3c0.2,0.3,0.4,0.6,0.5,0.9c0.3,1.1,0.1,2.2,0.5,3.3
		c0.3,0.7,1.2,1.4,1.4,2.2c1,3.6-0.6,7.6,1.1,10.7c-0.2,0.8-0.4,1.4-0.6,2.2c0.7,1.9,0.4,4.3,0.6,6.8c0.3,3.5-1.2,6.3-1.4,9.6
		c0,0.8,0.4,1.9,0.3,2.8c-0.3,2.2-1.3,4.6-2,6.9c-0.7,2.3-1.3,4.6-2,6.9c-0.2,1-1,1.6-2.2,1.6c0.4,0.7,1,1,0.8,2.2
		c-1.6,3.7-3.4,7.3-4.5,11.5c-3,1.8-2.9,6.6-6.7,7.7c-0.4,1.7-1.6,2.8-2,4.7c-1.7,0.4-2.6,1.7-4.2,2.2c0.6-3.1,1.9-5.5,3.9-7.1
		c1.7-5.7,0.8-14.1,4.5-17.8c-0.4-2.8,1.4-4.8,3.1-4.7c1.6,4.4-2.8,6.8-3.4,10.4c-0.3,1.8,0.2,3.5,0.3,5.5c2.4-0.8,2.8-3.9,3.6-6
		c0.9-2.3,2.2-4.6,2.5-7.1c0.4-0.5,0.9-1,1.4-1.4c0-0.9-0.9-0.9-0.8-1.9c0.6-1.5,2-2.7,2.5-4.4c0.3-0.7,0-1.5,0.3-2.2
		c0.9-2.2,2.4-3.7,2.5-6.3c0.1-1.6-0.5-3.2-0.3-4.9c0.1-1.3,1.2-2.3,1.4-3.6c0.3-1.8-0.4-4.1-0.6-6.6c-0.1-2,0.4-3.7,0.3-5.5
		c-0.2-3.1-1.5-6.3-1.7-9.1c0-1.3,0.5-2.5,0.3-3.6c-0.3-1.6-1.7-3.6-2.3-5.9H35c0.1,1,0.1,2-0.1,3.1c-0.2,1.1-1.2,2.2-1.4,3.6
		c-0.4,3.2,1.9,6.7,0,9.6c1.5,2-0.5,5.2-0.3,8c0.1,0.7,0.6,1.3,0.6,1.9c-0.1,1.3-0.6,2.3-1.1,3.3c-0.3,5-1.1,10.3-2.5,14.8
		c-0.7,2.4-2.2,4.5-2.8,6.9c-0.4,1.5,0.1,3.2-0.3,4.7c-0.1,0.5-1,1.3-1.1,1.9c-0.4,2.2-0.2,3-2.2,3.8c0.8,3.8-2.4,5.8-2.2,9.9
		c-1.6,1-4.7,1.7-3.4,4.6c-3.9,1.6-4.8,6.1-7.6,8.8c-0.1,1,0.1,1.8,0.3,2.5c-1.3-0.4-3.2-0.2-4.5,0.5c-0.9,0.6-1.3,2.1-2.5,2.7
		c-0.9,0.5-2.1,0.3-3.1,0.5c-0.2,0.1-0.5,0.1-0.8,0.2V97.4z M76,78.6c-0.3,1.4,0.1,5.3-2.5,5.2C73.2,81.9,73.8,78.8,76,78.6
		 M77.4,76.7c-0.1-1.6,1.8-1.3,1.7-3H80C79.4,74.9,79.8,77.1,77.4,76.7 M80.8,90.4c0-0.8,0-3.3,1.7-3.3c0.7,1.3-0.1,3.1-1.4,3.3
		c-0.2,1.9-1.5,4-3.6,3c0-1.3,0.8-1.8,1.1-2.7C79.2,90.5,79.8,90.3,80.8,90.4 M83,80.8C80.4,81,82,77,83.9,78.6
		C84,79.6,83.8,80.5,83,80.8 M84.7,76.7c-1.5-1.1-3.2-2.3-3.1-4.4c2.3-2.7,2-6.7,3.1-9.9c0.9-2.7,3-4.9,3.9-7.4
		c-0.5-2.1-0.2-4.6,2.2-4.7c1.2,1.7-0.3,3.1,0.3,5.5c-0.4,0.3-0.7,0.8-1.1,1.1c-1,6-3.9,10.2-6.2,15.1c0.9,2.2,3.6-0.6,4.5,0
		c1.3,0,0.8,2.2,0.6,3C87.5,75.5,86.4,76.4,84.7,76.7 M89.2,87.6c-0.1,1.4-0.3,2.8-2,2.7C86.5,89.1,87.6,87.5,89.2,87.6 M59.5,95.6
		c-0.7,0.3-0.8,1.1-1.1,1.9h4.8c1.2-0.8,2.5-1.5,3.8-2.1c0.2-0.8,0.6-1.4,0.8-2.2c2-1,4.1-2,4.8-4.4c1.8-4.1,5.4-5.7,7-6.3h1.1
		c-0.2,4.3-5.5,3.5-5.6,8c-0.6,0.3-1.1,0.7-2.2,0.5c-0.7,0.2-0.7,1.1-0.8,1.9c-2.1,1-3.1,2.9-4.4,4.6h13.1c0.2-0.9,1.1-1.8,1.2-2.8
		c2.2-0.8,2.2-2.8,4.3-3.7c0.1,1.5-1.3,2.5-1.1,3.8c0.4,4.2,5.7,2.1,5.6-1.4c2.1-1.1,3.5-2.8,4.7-4.8v-3.7c-1.7,0.6-3.1,1.6-3.6,3.3
		c-0.9-0.2-1.7-0.5-2.2-1.1c0-1.8,1.5-2.2,2.8-2.8v-2.8c1.1-1.1,2-2.2,3.1-3.3V59.4c-0.5,0.9-1,1.7-1.4,2.4c-0.2,0.4,0.1,1,0,1.4
		c-0.3,0.7-0.8,1.5-1.1,2.2c-0.8,1.8-1.6,4.9-3.4,5.2c-1.5-1.2,0-2.6,0.5-3.6c0.7-1.2,1.6-2.3,2-3.3c-0.1-2.8,1.4-6.2,2.8-8.5h0.5
		V1.8h-3.1c0.4,1.8,1.1,3.6,1.2,5.3c0,0.9-0.4,1.9-0.3,2.8c0.2,1.3,1.3,3.2,2,4.9c-1.8,4.2-0.6,9.4,0,13.5c-0.2,1-0.8,1.7-1.1,2.7
		c-0.1,1.7,0.7,2.8,0.6,4.4c-0.2,2.3-2,4.6-2.2,6.9c-0.2,2.1,0.6,4.4-1.1,6.1c-2.5-0.3-1.3-4.8-0.3-5.8c-0.1-2.1-0.6-4.5-0.3-6.6
		c0.2-1.2,1.2-2.2,1.4-3.3c0.2-1.4,0.1-4.7,0-6.6c-0.1-0.9-0.8-2-0.8-3c-0.1-1.4,0.7-3.7,0.6-5.8c-0.1-1-0.7-1.9-0.8-3
		c-0.3-2.2,0-4.7-0.3-7.1c-0.2-1.8-0.6-3.6-1.1-5.3h-5c0.6,0.7,1,1.3,1.3,3.1c0.1,0.9,0.8,1.9,0.8,2.5c0.1,2.1-1.1,4.2,0.8,5.8
		c0.1,1.3-0.1,2.2-0.6,3c0.8,1.8,0.9,5.3,0.6,9.3c-0.1,0.8-0.5,1.5-0.6,2.2c0,3.2,1.4,5.3-0.8,7.1c1.1,3.3-1.5,5.6-2,8.8
		c-0.2,1.8,0.2,3.6,0,5.2c-0.1,1-0.7,1.9-0.8,2.7c-0.1,0.8,0.7,1.8-0.3,2.5c0,1.1,1,1.3,0.8,2.5c0,1.1-0.9,1.3-1.4,1.9
		c-0.1,2.5-0.7,4.6-2.8,5.2c0.3,1.2,1.9,1,1.4,3c-0.6,0.1-1.8,0.4-2.7,0.2c-0.9,0.5-0.5,1.5-1.5,2c-0.1,1.5-0.8,2.5-1.7,3.3
		c0,5.6-4.7,6.7-6.4,10.7c0.2,1,1,1.4,1.1,2.5c-0.6,2-2,3.2-3.9,3.8c-0.3,0.8-0.6,1.6-0.8,2.5C63.1,92.7,62.4,95.2,59.5,95.6
		 M26.8,44c1.3-3.2,1.8-5.6,3.1-9.3c0.4-1.2,1.3-2.4,1.4-3.3c0.3-1.8-0.1-4,0-6c0.3-3.1,1-5.4,0.8-8.5c-0.1-1.7,0.5-3.6,0.6-5.2
		c0-2.1-0.8-4.1-0.8-6c0-0.9,0.5-1.8,0.6-2.8c0-0.3,0-0.6,0-0.9h-3.8c0.3,3.2,0.3,6.4,0.2,10c-0.1,2.6,0.5,5.4,0.3,7.7
		c-0.1,0.9-0.9,1.8-1.1,2.8c-0.3,1.3,0.5,2.8,0.3,4.1c-0.1,0.6-0.9,1.3-1.1,2.2c-0.3,1.6,0.1,3.1-1.1,3.8c1,3.4-0.7,6.3-1.4,9.6
		c-0.5,2.3-0.8,5.1-2,7.7c-0.5,1-0.6,1.4-1.1,3c-0.4,1.2-1.6,4.4-2,6c-0.6,3.4-0.9,6.1-3.6,8c-1,2.8-2.8,5.4-4.5,8
		c-1.1,1.7-3.9,5.8-6.1,6.3c-1.1,0.2-2.6-0.6-3.6-0.3C0.8,81,0.4,81.6,0,82.2v8.5c2.3-0.8,4.3-1.8,5-4.2c0.9-0.1,1-0.9,2.2-0.5
		c3-2.4,4.6-6.3,7.8-8.5c2.7-4.7,4-10.7,7.6-14.6c-0.4-3.5,1.6-6,2.5-8.8c0.2-0.8,0-1.6,0.3-2.5C26.2,49,28.6,47,26.8,44 M18.7,55.5
		v-2.7c2-1.8,1.7-5.8,3.4-8c0.3-3.1,0.7-6.4,1.7-9.6c0.3-1,1.1-1.8,1.4-2.8c0.1-0.5-0.1-1.2,0-1.9c0.4-2.1,1.6-4,0-6
		c0.1-1.9,1.4-3.3,1.7-5.2c0.4-3.8-1.7-8.2,0-12.1C26,5.5,26.4,3.6,27,1.8h-3.7c0,0.1,0.1,0.3,0.1,0.4c0.1,2.8-0.4,5.5-0.3,8.5
		c0.1,1.4,0.1,2.9,0,4.4c-0.2,3.1-1.6,6.1-1.7,9.1c0,1.4,0.7,2.7,0.8,4.1c0.2,3.1-2,7.5-2.5,11.3c-0.3,2.4-0.5,4.1-2,5.5
		c-0.2,1,0.6,1,0.6,1.9c-1.3,0.6-1.4,2.3-2.5,3v2.2c-2.5,2.3-2.2,5.8-3.9,8.2c-1.9,2.6-6.3,3.4-6.4,7.4c-1,0.4-1.2-0.1-2.2,0.3
		c-0.4,1.3-1.3,2.1-2.8,2.2c-0.2,0.3-0.4,0.6-0.5,1v8.1c1-0.2,2-0.5,2.7-0.9c3.2-1.7,5.5-4.5,7-7.7C14.8,67.8,15.4,60.4,18.7,55.5
		 M4.4,17.1c-0.4,0.4-1.2,0.3-2,0.3c-0.2-0.9,0.3-1.2,0.6-1.6C3.8,15.8,4.3,16.3,4.4,17.1 M20.3,1.8H7.9C7.6,3.2,7.4,4.7,7.2,6.4
		c-2,1.8-0.8,6.7-3.4,8c-0.9-0.7-1.6-1.5-2-2.7c1.5-1.6,2.4-4.4,1.7-7.4C3.9,3.3,4.7,2.8,5,2c0,0,0-0.1,0-0.1H0v17.7
		c0.3-0.4,0.6-0.7,0.8-1.1c0.4-0.1,0.5,0.3,0.8,0.3c-0.3,1.2-1,2.3-1.6,3.4v8.2c1.4-2.7,3.1-5,6.1-6.1c0-1.8-0.3-3.9,1.1-4.4
		c2.9,0.8,0.6,4.7-1.4,4.9c0.3,2.6-1.3,3.3-0.8,6c-1.6,1.6-4.2,4.8-2.2,7.4c4.5-4.3,8-9.4,9.8-16.2c0.5-0.5,0.9-1.2,1.4-1.7
		c0.5-2.6,0.5-5.7,0.8-8.5c-0.8-0.9-2-1-3.4-0.8c-0.4,1.1-0.3,2.6-1.1,3.3c-0.1,2,0.5,4.6-1.7,4.4C7.7,15.6,9,12.4,10.9,11
		c0.1-2.8,1.6-5,0.8-7.7c1,0.3,1.1,1.5,2.2,1.6c1.1-0.1,0.8-1.6,2.2-1.4c1.1,1,0.3,3.7-0.3,4.7c0.2,3-0.1,6.5,0.6,9.9
		c0.2,0.8,1.1,1.9,1.1,2.8c0,2.5-2.1,3.3-3.1,5.2c-0.1,1.1,1.8,0.3,2.2,0.8c0.4,1.2-1.1,0.6-0.8,1.6c0.4,2.8-0.2,4.5,0,6.6
		c-0.5,1.2-1.7,1.7-2.2,3c-0.3,0.7,0,1.7-0.3,2.5c-0.4,1.2-1.4,2-2,3.3c-1.2,2.7-1.8,5.6-3.1,8.2c-2.2,1.3-3.5,3.9-5.9,6
		c-0.7,0.6-1.6,1-2.5,1.7v9.9c0.2,0,0.3-0.1,0.5-0.1c0.9-1,2.6-1.3,2.8-3c0.8-0.2,1.4-0.4,2.2-0.5c0.4-5.2,2.9-8.3,6.1-10.7
		c0.2-2.2,1.3-3.5,2.2-4.9c0.1-2.7,1.7-5.1,2.5-7.1c0.2-0.6,0.5-2,0.8-3c0.2-0.9,0.6-1.4,0.8-2.2c0.6-2,0.4-4.4,1.7-5.8
		c-0.3-1.9,0.7-3.3,0.3-4.7c-0.4-1.5-2.1-1.2-2.5-2.7c0.4-0.9,0.9-1.7,1.4-2.5c0.1-0.9-0.5-1-0.3-1.9c3.2-4.2-0.3-10.9,1.7-15.4
		c0.1-1.2-0.1-2.1-0.3-3C20.2,2.1,20.2,2,20.3,1.8 M5,42c0.3,0.8,0.3,1.2,0,1.9c-1.3,1.9-3.5,3.2-5,5.1v7.3c0.6-0.8,1.2-1.5,2.2-2
		c0.9-3.2,3-5.2,5.6-6.9c-0.1-1.4,0.5-2.1,0.3-3.6c3-2.7,2.2-9.1,5.6-11.5c0-1.7,0.4-2.9,0.5-4.4c-3.4,0.9-3,5.6-5.9,7.2
		C8,38.2,6.8,40.5,5,42 M0.8,39.3H0v3.6C0.5,42,0.9,41,1.3,40.1C1,40,1,39.5,0.8,39.3 M89.8,97.4h5.8v-3.3c-1.1-0.3-2.2-1-2.9-0.1
		C92.4,94.9,91.2,96.3,89.8,97.4"/>
	<path d="M741.7,62.1h-21.5l10.4-43.2h0.5L741.7,62.1z M771.1,97.4L743.5,1.8h-25.4l-27,95.6h20.4l4.9-19h29.3l4.8,19H771.1z"/>
	<polygon points="673.2,19.3 697,19.3 697,1.8 627,1.8 627,19.3 651.3,19.3 651.3,97.4 673.2,97.4 	"/>
	<polygon points="143,97.4 186.6,97.4 186.6,88.7 175.2,88.7 175.2,10.1 186.6,10.1 186.6,1.8 143,1.8 143,10.1 154.2,10.1 
		154.2,88.9 143,88.9 	"/>
	<path d="M598.6,97.4h17.2V1.8h-19.3v35.5c0,3.6,0,4.4,0.4,10.9l0.5,9.6h-0.7c-0.4-0.7-1.7-4.2-2.1-4.9c-0.9-2-2.2-4.6-3.3-6.5
		L566.8,1.8h-20.1v95.6H566V52.6c0-2.5-0.5-14.6-0.7-17.3h0.7c4.9,11.6,5.1,12,7.2,15.8L598.6,97.4z"/>
	<path d="M510.7,65.5c0,6.6,0,17.2-11.3,17.2c-9.4,0-11.3-7.2-11.3-17.2V32.3c0-3.8,0-14.7,11.6-14.7c11.1,0,11.1,8.1,11.1,14.7
		V65.5z M532.4,62V38.8c0-15.4-3-23.8-8.3-29.6C517.7,2.3,508.7,0,498.9,0c-9,0-18,2.5-24,9.1c-6.6,7.3-8.3,16.7-8.3,26.4v25.7
		c0,4.2,0.4,12.5,2.5,19.3c4.8,16.1,20.2,19.5,29.6,19.5c6.1,0,17.6-0.9,25.5-9.5C530.2,84,532.4,75.4,532.4,62"/>
	<path d="M432.6,29.3c0,5.2-0.5,10.4-7.2,12.8c-3,1-4.8,1-16.7,1V16.7c11.7,0,14.3,0,17.6,1.2C430.5,19.4,432.6,22.7,432.6,29.3
		 M454.1,29.6c0-25.7-19.7-27.7-35.2-27.7h-30.9v95.6h20.7V58.3h7l18.1,39.1h22.8L435.9,55C449.3,50.9,454.1,41.7,454.1,29.6"/>
	<path d="M355.4,31.3c0,9.8-6,12.6-7.7,13.3c-2.5,1-6.2,1-16.3,1v-28c12.6,0,14.2,0,17.6,1.3C351.9,20.1,355.4,22,355.4,31.3
		 M377.3,31.9c0-9.5-2.7-17.2-8.7-22.5c-5.1-4.6-12.6-7.6-26.7-7.6h-31.5v95.6h21.1V61.7l11.5-0.4c7.4-0.3,15-0.7,21.9-4.8
		C369.1,53.8,377.3,46.8,377.3,31.9"/>
	<path d="M274.5,97.4h18.4V1.8h-28.3l-11.2,39.5c-2.3,8.5-3.8,14.5-5.2,22.4h-0.7c-0.4-1.7-2.3-10-2.9-12c-1-4.3-1.6-5.7-2.7-10
		L230.6,1.8h-28.1v95.6h18.1V46.6c0-4-0.8-23.4-0.9-27.9h0.7l20.3,78.6h14.5l19.8-78.6h0.5c-0.4,9.1-0.9,20.4-0.9,27.2V97.4z"/>
</g>
</svg>
