<?xml version="1.0" encoding="UTF-8"?><svg id="Livello_1" xmlns="http://www.w3.org/2000/svg" viewBox="0 0 46.58 11.34"><defs><style>.cls-1{fill:#161412;}</style></defs><path class="cls-1" d="M3.44,11.08H0V.21H3.44V11.08Z"/><path class="cls-1" d="M15.82,7.42c.93,.57,2.34,1.09,3.56,1.09,.72,0,1.45-.05,1.45-.57,0-.34-.21-.43-.59-.54l-1.68-.43c-2.07-.55-3.04-1.54-3.04-3.36,0-2.34,1.93-3.61,4.42-3.61,1.63,0,2.65,.32,3.58,.79V3.86c-1.04-.68-2.16-1.06-3.4-1.06-.66,0-1.16,.13-1.16,.48,0,.32,.23,.45,.61,.54l1.57,.43c2.18,.63,3.18,1.73,3.18,3.45,0,2.59-2.24,3.63-4.83,3.63-1.47,0-2.83-.41-3.67-.86v-3.06Z"/><path class="cls-1" d="M40.77,8.1v2.98h-3.38V.21h5.1c2.41,0,4.09,1.42,4.09,3.95s-1.68,3.95-4.09,3.95h-1.72Zm1.26-5.05h-1.26v2.2h1.26c.89,0,1.24-.43,1.24-1.1s-.35-1.1-1.24-1.1Z"/><path class="cls-1" d="M8.35,7.96v3.12h-3.38V.21h5.29c2.39,0,4.09,1.45,4.09,3.97,0,1.54-.71,2.67-1.86,3.28l2.25,3.63h-3.77l-1.82-3.12h-.8Zm0-2.69h1.45c.89,0,1.22-.44,1.22-1.1s-.34-1.12-1.22-1.12h-1.45v2.21Z"/><path class="cls-1" d="M32.29,.21h-3.58l-4.11,10.87h3.36l.57-1.58h3.83l.57,1.58h3.47L32.29,.21Zm-2.8,6.55l.96-2.65,.96,2.65h-1.92Z"/></svg>