<svg xmlns="http://www.w3.org/2000/svg" viewBox="0 0 409.0836 54.5618"><defs><style>.cls-1{fill:#fff;}</style></defs><g id="Livello_2" data-name="Livello 2"><g id="Livello_1-2" data-name="Livello 1"><path class="cls-1" d="M176.8805,28.7414c-.1816-2.626-.39-5.85-.3638-7.748h-.0781c-.624,1.8979-1.352,3.9258-2.34,6.5259l-3.6924,9.5424h-.8579l-3.458-9.3086c-.9883-2.73-1.7422-4.8359-2.2622-6.76H163.75c-.0258,2.0537-.1557,5.0957-.3637,8.0078l-.5459,8.0605h-1.2222l1.2739-17.5244h1.43l3.77,10.0879c.8062,2.2363,1.43,4.0044,1.9239,5.6943h.0522c.4683-1.6118,1.0923-3.3281,1.9761-5.6679l3.9-10.1143h1.4819l1.1958,17.5244H177.401Z"/><path class="cls-1" d="M189.23,30.9255l-2.1577,6.1362h-1.2739l6.3437-17.5244h1.1963l6.3184,17.5244h-1.2744l-2.21-6.1362Zm6.5528-1.04-2.1324-5.85c-.416-1.2222-.65-2.1065-.91-3.0943h-.0518c-.26,1.0142-.5464,1.9243-.91,3.042L189.62,29.8855Z"/><path class="cls-1" d="M207.56,37.0617V19.5373h1.17l6.8379,10.3482a62.694,62.694,0,0,1,3.2764,5.5122l.0517-.0259c-.1816-2.3662-.208-4.3682-.208-7.1245v-8.71H219.91V37.0617h-1.17l-6.6822-10.1923c-1.3-2.0284-2.496-3.8741-3.4062-5.668l-.0518.0259c.13,2.1577.1558,4.0561.1558,6.9682v8.8662Z"/><path class="cls-1" d="M230.57,19.5373V30.1194c0,4.4462,2.08,6.1621,4.68,6.1621,2.8862,0,4.8881-1.8721,4.8881-6.1621V19.5373h1.2481V29.99c0,5.3823-2.9121,7.3584-6.2144,7.3584-3.0678,0-5.8242-1.794-5.8242-7.15v-10.66Z"/><path class="cls-1" d="M250.8229,19.5373h8.6587v1.04h-7.4365v6.9677h6.8125v1.04h-6.8125v8.4765h-1.2222Z"/><path class="cls-1" d="M267.9049,30.9255l-2.1577,6.1362h-1.2739l6.3437-17.5244h1.1963l6.3184,17.5244h-1.2744l-2.21-6.1362Zm6.5528-1.04-2.1324-5.85c-.416-1.2222-.65-2.1065-.91-3.0943h-.0518c-.26,1.0142-.5464,1.9243-.91,3.042l-2.1582,5.9024Z"/><path class="cls-1" d="M297.8571,36.4377a10.8577,10.8577,0,0,1-4.7061.8838c-4.2383,0-8.2939-2.7041-8.2939-8.918,0-5.2,3.354-9.1523,8.8662-9.1523a8.9545,8.9545,0,0,1,4.082.78l-.416,1.04a8.3369,8.3369,0,0,0-3.64-.7539c-4.732,0-7.6182,3.0679-7.6182,8.1123,0,4.7583,2.73,7.8262,7.41,7.8262a9.2764,9.2764,0,0,0,3.9521-.8062Z"/><path class="cls-1" d="M310.3107,20.5774h-5.6939v-1.04h12.6621v1.04h-5.72V37.0617h-1.248Z"/><path class="cls-1" d="M325.4943,19.5373V30.1194c0,4.4462,2.08,6.1621,4.68,6.1621,2.8862,0,4.8881-1.8721,4.8881-6.1621V19.5373h1.2481V29.99c0,5.3823-2.9121,7.3584-6.2144,7.3584-3.0678,0-5.8242-1.794-5.8242-7.15v-10.66Z"/><path class="cls-1" d="M345.7487,19.7712a19.5267,19.5267,0,0,1,3.77-.3642c2.2881,0,3.7183.4941,4.7319,1.456a4.4015,4.4015,0,0,1,1.2222,3.12,4.6516,4.6516,0,0,1-3.4321,4.5762v.0522c1.4043.4419,2.2881,1.7681,2.7041,3.7178a23.4082,23.4082,0,0,0,1.3,4.7324h-1.3a26.2364,26.2364,0,0,1-1.1182-4.2641c-.52-2.522-1.6118-3.666-3.9258-3.77h-2.73v8.0341h-1.2217Zm1.2217,8.2422h2.7822c2.7041,0,4.4721-1.5083,4.4721-3.8223,0-2.6782-1.976-3.77-4.7319-3.77a11.793,11.793,0,0,0-2.5224.2339Z"/><path class="cls-1" d="M365.3,19.5373V37.0617h-1.2221V19.5373Z"/><path class="cls-1" d="M374.7379,37.0617V19.5373h1.17l6.8384,10.3482a63.0687,63.0687,0,0,1,3.2764,5.5122l.0517-.0259c-.1826-2.3662-.208-4.3682-.208-7.1245v-8.71h1.2217V37.0617h-1.17l-6.6821-10.1923c-1.3-2.0284-2.4961-3.8741-3.4063-5.668l-.0522.0259c.13,2.1577.1562,4.0561.1562,6.9682v8.8662Z"/><path class="cls-1" d="M409.0836,36.2815a13.599,13.599,0,0,1-5.0957.9624,8.4877,8.4877,0,0,1-6.2148-2.314,9.1879,9.1879,0,0,1-2.3916-6.5786c0-4.8618,3.1719-8.9961,9.126-8.9961a10.3959,10.3959,0,0,1,4.082.78l-.39,1.04a8.33,8.33,0,0,0-3.7441-.7539c-4.8359,0-7.8008,3.12-7.8008,7.8784,0,4.94,2.9121,7.8784,7.541,7.8784a8.4893,8.4893,0,0,0,3.6661-.5981V29.3913H403.78V28.3772h5.3037Z"/><path class="cls-1" d="M58.6854,36.6379a10.7345,10.7345,0,0,1-6.977-2.7658,8.8563,8.8563,0,0,1-2.472-6.5291c0-4.8569,2.596-7.18,4.775-8.2739a11.3446,11.3446,0,0,1,4.61-1.148h34.513V0h3.245V21.167H58.6214c-.622.0061-6.141.2309-6.139,6.1741a5.7336,5.7336,0,0,0,1.517,4.2319,7.5025,7.5025,0,0,0,4.684,1.82h37.696v3.2448H58.6854Z"/><path class="cls-1" d="M3.244,54.5618H0V33.3928H37.757c.623-.0049,6.141-.227,6.141-6.1709-.002-5.8581-5.574-6.052-6.211-6.0549H0V17.9209H37.687A10.6977,10.6977,0,0,1,44.67,20.689a8.8549,8.8549,0,0,1,2.474,6.531c0,4.8559-2.596,7.1789-4.777,8.2719a11.3251,11.3251,0,0,1-4.61,1.146H3.244Z"/><path class="cls-1" d="M104.2655,54.5618H101.02V33.3928h37.758c.623-.0049,6.143-.227,6.14-6.1709-.001-5.8581-5.576-6.052-6.211-6.0549H101.02V17.9209h37.687a10.74,10.74,0,0,1,6.983,2.7681,8.8391,8.8391,0,0,1,2.474,6.531c.001,4.8559-2.596,7.1789-4.777,8.2719a11.3155,11.3155,0,0,1-4.611,1.146h-34.51Z"/></g></g></svg>